<?xml version="1.0" encoding="utf-8"?>
<!-- Generator: Adobe Illustrator 22.0.0, SVG Export Plug-In . SVG Version: 6.00 Build 0)  -->
<svg version="1.1" id="Слой_1" xmlns="http://www.w3.org/2000/svg" xmlns:xlink="http://www.w3.org/1999/xlink" x="0px" y="0px"
	 viewBox="0 0 80 80" style="enable-background:new 0 0 80 80;" xml:space="preserve">
<style type="text/css">
	.st0{fill:#00AAFF;}
	.st1{fill:none;stroke:#000000;stroke-width:2;stroke-linecap:round;stroke-linejoin:round;stroke-miterlimit:10;}
	.st2{fill:none;stroke:#E6E6E6;stroke-linecap:round;stroke-linejoin:round;stroke-miterlimit:10;}
	.st3{fill:#E6E6E6;}
	.st4{fill:none;stroke:#E6E6E6;stroke-miterlimit:10;}
	.st5{fill:none;stroke:#000000;stroke-width:2;stroke-miterlimit:10;}
	.st6{fill:none;stroke:#000000;stroke-miterlimit:10;}
	.st7{fill:#002782;}
	.st8{fill:#FFFFFF;stroke:#000000;stroke-miterlimit:10;}
	.st9{fill:#002782;stroke:#000000;stroke-width:2;stroke-miterlimit:10;}
</style>
<g>
	<polygon class="st0" points="76,60 53,60 53,58 74,58 74,55 53,55 53,53 76,53 	"/>
</g>
<g>
	<polygon class="st0" points="17,60 4,60 4,53 14,53 14,55 6,55 6,58 17,58 	"/>
</g>
<g>
	<polygon class="st0" points="17,55 7,55 7,10 73,10 73,54 71,54 71,12 9,12 9,53 17,53 	"/>
</g>
<g>
	<polygon class="st0" points="68,55 53,55 53,53 66,53 66,18 14,18 14,53 16.5,53 16.5,55 12,55 12,16 68,16 	"/>
</g>
<g>
	<path class="st0" d="M40,15.5c-0.8,0-1.5-0.7-1.5-1.5s0.7-1.5,1.5-1.5s1.5,0.7,1.5,1.5S40.8,15.5,40,15.5z M40,13.5
		c-0.3,0-0.5,0.2-0.5,0.5s0.2,0.5,0.5,0.5s0.5-0.2,0.5-0.5S40.3,13.5,40,13.5z"/>
</g>
<g>
	<g>
		<polygon class="st7" points="41.5,39.5 32.7,27.7 23.6,38.6 22.1,37.3 32.8,24.5 41.7,36.5 55.7,22.4 57.1,23.8 		"/>
	</g>
	<g>
		<polygon class="st7" points="58.1,31.6 56.1,31.6 56.1,23.4 47.9,23.4 47.9,21.4 58.1,21.4 		"/>
	</g>
</g>
<g id="Layer_4">
</g>
<g>
	<g>
		<path class="st7" d="M26,54c-5.6,0-10-2.5-10-5.8c0-0.7,0.2-1.4,0.6-2c0.3-0.5,0.9-0.6,1.4-0.3s0.6,0.9,0.3,1.4
			c-0.2,0.3-0.3,0.7-0.3,1c0,1.8,3.3,3.8,8,3.8s8-2,8-3.8c0-0.4-0.2-0.8-0.5-1.2s-0.3-1.1,0.2-1.4c0.4-0.3,1.1-0.3,1.4,0.2
			c0.6,0.8,0.9,1.6,0.9,2.5C36,51.5,31.6,54,26,54z"/>
	</g>
	<g>
		<path class="st7" d="M26,58.2c-5.6,0-10-2.5-10-5.8c0-0.7,0.2-1.4,0.6-2c0.3-0.5,0.9-0.6,1.4-0.3s0.6,0.9,0.3,1.4
			c-0.2,0.3-0.3,0.7-0.3,1c0,1.8,3.3,3.8,8,3.8s8-2,8-3.8c0-0.4-0.2-0.8-0.5-1.2s-0.3-1.1,0.2-1.4c0.4-0.3,1.1-0.3,1.4,0.2
			c0.6,0.8,0.9,1.6,0.9,2.5C36,55.7,31.6,58.2,26,58.2z"/>
	</g>
	<g>
		<path class="st7" d="M26,62.5c-5.6,0-10-2.5-10-5.8c0-0.7,0.2-1.4,0.6-2c0.3-0.5,0.9-0.6,1.4-0.3s0.6,0.9,0.3,1.4
			c-0.2,0.3-0.3,0.7-0.3,1c0,1.8,3.3,3.8,8,3.8s8-2,8-3.8c0-0.4-0.2-0.8-0.5-1.2s-0.3-1.1,0.2-1.4c0.4-0.3,1.1-0.3,1.4,0.2
			c0.6,0.8,0.9,1.6,0.9,2.5C36,59.9,31.6,62.5,26,62.5z"/>
	</g>
	<g>
		<path class="st7" d="M26,66.7c-5.6,0-10-2.5-10-5.8c0-0.7,0.2-1.4,0.6-2c0.3-0.5,0.9-0.6,1.4-0.3s0.6,0.9,0.3,1.4
			c-0.2,0.3-0.3,0.7-0.3,1c0,1.8,3.3,3.8,8,3.8s8-2,8-3.8c0-0.4-0.2-0.8-0.5-1.2s-0.3-1.1,0.2-1.4c0.4-0.3,1.1-0.3,1.4,0.2
			c0.6,0.8,0.9,1.6,0.9,2.5C36,64.2,31.6,66.7,26,66.7z"/>
	</g>
	<g>
		<path class="st7" d="M26,70.7c-5.6,0-10-2.5-10-5.8c0-0.7,0.2-1.4,0.6-2c0.3-0.5,0.9-0.6,1.4-0.3s0.6,0.9,0.3,1.4
			c-0.2,0.3-0.3,0.7-0.3,1c0,1.8,3.3,3.8,8,3.8s8-2,8-3.8c0-0.4-0.2-0.8-0.5-1.2c-0.3-0.4-0.3-1.1,0.2-1.4c0.4-0.3,1.1-0.3,1.4,0.2
			c0.6,0.8,0.9,1.6,0.9,2.5C36,68.2,31.6,70.7,26,70.7z"/>
	</g>
	<g>
		<path class="st7" d="M26,49.8c-5.6,0-10-2.5-10-5.8s4.4-5.8,10-5.8s10,2.5,10,5.8S31.6,49.8,26,49.8z M26,40.2c-4.7,0-8,2-8,3.8
			s3.3,3.8,8,3.8s8-2,8-3.8S30.7,40.2,26,40.2z"/>
	</g>
</g>
<g>
	<g>
		<path class="st7" d="M44,58.3c-5.6,0-10-2.5-10-5.8c0-0.7,0.2-1.4,0.6-2c0.3-0.5,0.9-0.6,1.4-0.3s0.6,0.9,0.3,1.4
			c-0.2,0.3-0.3,0.7-0.3,1c0,1.8,3.3,3.8,8,3.8s8-2,8-3.8c0-0.4-0.2-0.8-0.5-1.2s-0.3-1.1,0.2-1.4c0.4-0.3,1.1-0.3,1.4,0.2
			c0.6,0.8,0.9,1.6,0.9,2.5C54,55.8,49.6,58.3,44,58.3z"/>
	</g>
	<g>
		<path class="st7" d="M44,62.5c-5.6,0-10-2.5-10-5.8c0-0.7,0.2-1.4,0.6-2c0.3-0.5,0.9-0.6,1.4-0.3s0.6,0.9,0.3,1.4
			c-0.2,0.3-0.3,0.7-0.3,1c0,1.8,3.3,3.8,8,3.8s8-2,8-3.8c0-0.4-0.2-0.8-0.5-1.2s-0.3-1.1,0.2-1.4c0.4-0.3,1.1-0.3,1.4,0.2
			c0.6,0.8,0.9,1.6,0.9,2.5C54,60,49.6,62.5,44,62.5z"/>
	</g>
	<g>
		<path class="st7" d="M44,66.8c-5.6,0-10-2.5-10-5.8c0-0.7,0.2-1.4,0.6-2c0.3-0.5,0.9-0.6,1.4-0.3s0.6,0.9,0.3,1.4
			c-0.2,0.3-0.3,0.7-0.3,1c0,1.8,3.3,3.8,8,3.8s8-2,8-3.8c0-0.4-0.2-0.8-0.5-1.2s-0.3-1.1,0.2-1.4c0.4-0.3,1.1-0.3,1.4,0.2
			c0.6,0.8,0.9,1.6,0.9,2.5C54,64.2,49.6,66.8,44,66.8z"/>
	</g>
	<g>
		<path class="st7" d="M44,71c-5.6,0-10-2.5-10-5.8c0-0.7,0.2-1.4,0.6-2c0.3-0.5,0.9-0.6,1.4-0.3s0.6,0.9,0.3,1.4
			c-0.2,0.3-0.3,0.7-0.3,1c0,1.8,3.3,3.8,8,3.8s8-2,8-3.8c0-0.4-0.2-0.8-0.5-1.2c-0.3-0.4-0.3-1.1,0.2-1.4c0.4-0.3,1.1-0.3,1.4,0.2
			c0.6,0.8,0.9,1.6,0.9,2.5C54,68.5,49.6,71,44,71z"/>
	</g>
	<g>
		<path class="st7" d="M44,54.1c-5.6,0-10-2.5-10-5.8s4.4-5.8,10-5.8s10,2.5,10,5.8S49.6,54.1,44,54.1z M44,44.5c-4.7,0-8,2-8,3.8
			s3.3,3.8,8,3.8s8-2,8-3.8S48.7,44.5,44,44.5z"/>
	</g>
</g>
</svg>
