<?xml version="1.0" encoding="utf-8"?>
<!-- Generator: Adobe Illustrator 22.0.0, SVG Export Plug-In . SVG Version: 6.00 Build 0)  -->
<svg version="1.1" id="Layer_1" xmlns="http://www.w3.org/2000/svg" xmlns:xlink="http://www.w3.org/1999/xlink" x="0px" y="0px"
	 viewBox="0 0 80 80" style="enable-background:new 0 0 80 80;" xml:space="preserve">
<style type="text/css">
	.st0{fill:#00AAFF;}
	.st1{fill:none;stroke:#000000;stroke-width:2;stroke-linecap:round;stroke-linejoin:round;stroke-miterlimit:10;}
	.st2{fill:none;stroke:#E6E6E6;stroke-linecap:round;stroke-linejoin:round;stroke-miterlimit:10;}
	.st3{fill:#E6E6E6;}
	.st4{fill:none;stroke:#E6E6E6;stroke-miterlimit:10;}
	.st5{fill:none;stroke:#000000;stroke-width:2;stroke-miterlimit:10;}
	.st6{fill:#002782;}
	.st7{fill:none;stroke:#000000;stroke-miterlimit:10;}
	.st8{fill:#FFFFFF;stroke:#000000;stroke-miterlimit:10;}
	.st9{fill:none;stroke:#E4E4E4;stroke-width:2;stroke-miterlimit:10;}
	.st10{fill:none;stroke:#000000;stroke-width:5;stroke-miterlimit:10;}
	.st11{fill:none;}
	.st12{stroke:#020202;stroke-miterlimit:10;}
	.st13{fill:none;stroke:#020202;stroke-width:2;stroke-miterlimit:10;}
	.st14{fill:#020202;}
	.st15{fill:#393939;}
</style>
<g>
	<polygon class="st0" points="48,39 25.1,32.1 13.5,38.9 12.5,37.1 24.9,29.9 48,37 66.8,33 67.2,35 	"/>
</g>
<g>
	<path class="st0" d="M50,32c-2.8,0-5-2.2-5-5s2.2-5,5-5s5,2.2,5,5S52.8,32,50,32z M50,24c-1.7,0-3,1.3-3,3s1.3,3,3,3s3-1.3,3-3
		S51.7,24,50,24z"/>
</g>
<g>
	<polygon class="st6" points="17,53 7,53 7,8 73,8 73,52 71,52 71,10 9,10 9,51 17,51 	"/>
</g>
<g>
	<polygon class="st6" points="68,53 50,53 50,51 66,51 66,16 14,16 14,51 16.5,51 16.5,53 12,53 12,14 68,14 	"/>
</g>
<g>
	<path class="st6" d="M40,13.5c-0.8,0-1.5-0.7-1.5-1.5s0.7-1.5,1.5-1.5s1.5,0.7,1.5,1.5S40.8,13.5,40,13.5z M40,11.5
		c-0.3,0-0.5,0.2-0.5,0.5s0.2,0.5,0.5,0.5s0.5-0.2,0.5-0.5S40.3,11.5,40,11.5z"/>
</g>
<g>
	<path class="st6" d="M25.5,56c-5.3,0-9.5-2.4-9.5-5.5c0-0.6,0.2-1.2,0.5-1.8c0.2-0.5,0.8-0.7,1.3-0.4c0.5,0.2,0.7,0.8,0.4,1.3
		c-0.2,0.4-0.3,0.7-0.3,1c0,1.7,3.1,3.5,7.5,3.5s7.5-1.8,7.5-3.5c0-0.4-0.2-0.8-0.5-1.2s-0.3-1.1,0.2-1.4c0.4-0.3,1.1-0.3,1.4,0.2
		c0.6,0.8,0.9,1.6,0.9,2.4C35,53.6,30.8,56,25.5,56z"/>
</g>
<g>
	<path class="st6" d="M25.5,60c-5.3,0-9.5-2.4-9.5-5.5c0-0.6,0.2-1.2,0.5-1.8c0.2-0.5,0.8-0.7,1.3-0.4c0.5,0.2,0.7,0.8,0.4,1.3
		c-0.2,0.4-0.3,0.7-0.3,1c0,1.7,3.1,3.5,7.5,3.5s7.5-1.8,7.5-3.5c0-0.4-0.2-0.8-0.5-1.2s-0.3-1.1,0.2-1.4c0.4-0.3,1.1-0.3,1.4,0.2
		c0.6,0.8,0.9,1.6,0.9,2.4C35,57.6,30.8,60,25.5,60z"/>
</g>
<g>
	<path class="st6" d="M25.5,64c-5.3,0-9.5-2.4-9.5-5.5c0-0.6,0.2-1.2,0.5-1.8c0.2-0.5,0.8-0.7,1.3-0.4c0.5,0.2,0.7,0.8,0.4,1.3
		c-0.2,0.4-0.3,0.7-0.3,1c0,1.7,3.1,3.5,7.5,3.5s7.5-1.8,7.5-3.5c0-0.4-0.2-0.8-0.5-1.2s-0.3-1.1,0.2-1.4c0.4-0.3,1.1-0.3,1.4,0.2
		c0.6,0.8,0.9,1.6,0.9,2.4C35,61.6,30.8,64,25.5,64z"/>
</g>
<g>
	<path class="st6" d="M25.5,68c-5.3,0-9.5-2.4-9.5-5.5c0-0.6,0.2-1.2,0.5-1.8c0.2-0.5,0.8-0.7,1.3-0.4c0.5,0.2,0.7,0.8,0.4,1.3
		c-0.2,0.4-0.3,0.7-0.3,1c0,1.7,3.1,3.5,7.5,3.5s7.5-1.8,7.5-3.5c0-0.4-0.2-0.8-0.5-1.2s-0.3-1.1,0.2-1.4c0.4-0.3,1.1-0.3,1.4,0.2
		c0.6,0.8,0.9,1.6,0.9,2.4C35,65.6,30.8,68,25.5,68z"/>
</g>
<g>
	<path class="st6" d="M25.5,72c-5.3,0-9.5-2.4-9.5-5.5c0-0.6,0.2-1.2,0.5-1.8c0.2-0.5,0.8-0.7,1.3-0.4c0.5,0.2,0.7,0.8,0.4,1.3
		c-0.2,0.4-0.3,0.7-0.3,1c0,1.7,3.1,3.5,7.5,3.5s7.5-1.8,7.5-3.5c0-0.4-0.2-0.8-0.5-1.2c-0.3-0.4-0.3-1.1,0.2-1.4
		c0.4-0.3,1.1-0.3,1.4,0.2c0.6,0.8,0.9,1.6,0.9,2.4C35,69.6,30.8,72,25.5,72z"/>
</g>
<g>
	<path class="st6" d="M25.5,52c-5.3,0-9.5-2.4-9.5-5.5s4.2-5.5,9.5-5.5s9.5,2.4,9.5,5.5S30.8,52,25.5,52z M25.5,43
		c-4.4,0-7.5,1.8-7.5,3.5s3.1,3.5,7.5,3.5s7.5-1.8,7.5-3.5S29.9,43,25.5,43z"/>
</g>
<g>
	<path class="st6" d="M42.5,64c-5.3,0-9.5-2.4-9.5-5.5c0-0.6,0.2-1.2,0.5-1.8c0.2-0.5,0.8-0.7,1.3-0.4c0.5,0.2,0.7,0.8,0.4,1.3
		c-0.2,0.4-0.3,0.7-0.3,1c0,1.7,3.1,3.5,7.5,3.5s7.5-1.8,7.5-3.5c0-0.4-0.2-0.8-0.5-1.2s-0.3-1.1,0.2-1.4c0.4-0.3,1.1-0.3,1.4,0.2
		c0.6,0.8,0.9,1.6,0.9,2.4C52,61.6,47.8,64,42.5,64z"/>
</g>
<g>
	<path class="st6" d="M42.5,68c-5.3,0-9.5-2.4-9.5-5.5c0-0.6,0.2-1.2,0.5-1.8c0.2-0.5,0.8-0.7,1.3-0.4c0.5,0.2,0.7,0.8,0.4,1.3
		c-0.2,0.4-0.3,0.7-0.3,1c0,1.7,3.1,3.5,7.5,3.5s7.5-1.8,7.5-3.5c0-0.4-0.2-0.8-0.5-1.2s-0.3-1.1,0.2-1.4c0.4-0.3,1.1-0.3,1.4,0.2
		c0.6,0.8,0.9,1.6,0.9,2.4C52,65.6,47.8,68,42.5,68z"/>
</g>
<g>
	<path class="st6" d="M42.5,72c-5.3,0-9.5-2.4-9.5-5.5c0-0.6,0.2-1.2,0.5-1.8c0.2-0.5,0.8-0.7,1.3-0.4c0.5,0.2,0.7,0.8,0.4,1.3
		c-0.2,0.4-0.3,0.7-0.3,1c0,1.7,3.1,3.5,7.5,3.5s7.5-1.8,7.5-3.5c0-0.4-0.2-0.8-0.5-1.2c-0.3-0.4-0.3-1.1,0.2-1.4
		c0.4-0.3,1.1-0.3,1.4,0.2c0.6,0.8,0.9,1.6,0.9,2.4C52,69.6,47.8,72,42.5,72z"/>
</g>
<g>
	<path class="st6" d="M42.5,60c-5.3,0-9.5-2.4-9.5-5.5s4.2-5.5,9.5-5.5s9.5,2.4,9.5,5.5S47.8,60,42.5,60z M42.5,51
		c-4.4,0-7.5,1.8-7.5,3.5s3.1,3.5,7.5,3.5s7.5-1.8,7.5-3.5S46.9,51,42.5,51z"/>
</g>
<g>
	<polygon class="st6" points="76,58 51,58 51,56 74,56 74,53 54,53 54,51 76,51 	"/>
</g>
<g>
	<polygon class="st6" points="17,58 4,58 4,51 17,51 17,53 6,53 6,56 17,56 	"/>
</g>
</svg>
