<?xml version="1.0" encoding="utf-8"?>
<!-- Generator: Adobe Illustrator 22.0.0, SVG Export Plug-In . SVG Version: 6.00 Build 0)  -->
<svg version="1.1" id="Layer_1" xmlns="http://www.w3.org/2000/svg" xmlns:xlink="http://www.w3.org/1999/xlink" x="0px" y="0px"
	 viewBox="0 0 80 80" style="enable-background:new 0 0 80 80;" xml:space="preserve">
<style type="text/css">
	.st0{fill:none;stroke:#000000;stroke-width:2;stroke-linecap:round;stroke-linejoin:round;stroke-miterlimit:10;}
	.st1{fill:none;stroke:#E6E6E6;stroke-linecap:round;stroke-linejoin:round;stroke-miterlimit:10;}
	.st2{fill:#E6E6E6;}
	.st3{fill:none;stroke:#E6E6E6;stroke-miterlimit:10;}
	.st4{fill:none;stroke:#000000;stroke-width:2;stroke-miterlimit:10;}
	.st5{fill:none;stroke:#000000;stroke-miterlimit:10;}
	.st6{fill:#FFFFFF;stroke:#000000;stroke-miterlimit:10;}
	.st7{fill:none;stroke:#E4E4E4;stroke-width:2;stroke-miterlimit:10;}
	.st8{fill:none;stroke:#000000;stroke-width:5;stroke-miterlimit:10;}
	.st9{fill:none;}
	.st10{stroke:#020202;stroke-miterlimit:10;}
	.st11{fill:none;stroke:#020202;stroke-width:2;stroke-miterlimit:10;}
	.st12{fill:#020202;}
	.st13{fill:#393939;}
	.st14{fill:#002782;}
	.st15{fill:#00AAFF;}
</style>
<g>
	<path class="st14" d="M52.3,54.7c-0.5,0-1.1-0.1-1.6-0.3s-0.8-0.7-0.6-1.3c0.2-0.5,0.7-0.8,1.3-0.6c0.9,0.3,1.7,0.2,2.3-0.3
		c1-0.7,1.7-2.4,1.7-4.1c0-1.8-0.7-3.3-1.6-3.8c-0.6-0.3-1.3-0.2-2.2,0.4c-0.5,0.3-1.1,0.2-1.4-0.3c-0.3-0.5-0.2-1.1,0.3-1.4
		c2-1.3,3.5-0.9,4.3-0.5c1.6,0.9,2.6,3.1,2.6,5.6c0,2.4-1,4.6-2.5,5.7C54.1,54.4,53.2,54.7,52.3,54.7z"/>
</g>
<g>
	<path class="st14" d="M15.5,54.7c-0.9,0-1.8-0.3-2.6-0.8c-1.6-1.1-2.5-3.3-2.5-5.7c0-2.5,1-4.7,2.6-5.6c0.7-0.4,2.3-0.9,4.3,0.5
		c0.5,0.3,0.6,0.9,0.3,1.4c-0.3,0.5-0.9,0.6-1.4,0.3c-0.9-0.6-1.6-0.7-2.2-0.4c-0.9,0.5-1.6,2.1-1.6,3.8c0,1.8,0.7,3.4,1.7,4.1
		c0.7,0.5,1.5,0.6,2.3,0.3c0.5-0.2,1.1,0.1,1.3,0.6c0.2,0.5-0.1,1.1-0.6,1.3C16.6,54.6,16,54.7,15.5,54.7z"/>
</g>
<g>
	<path class="st14" d="M55.3,43.8c-0.1,0-0.2,0-0.3-0.1c-0.5-0.2-0.8-0.7-0.6-1.3l3.2-9.6c0.8-1.9,0.9-3.4,0.4-4.5
		c-0.2-0.5,0-1.1,0.5-1.3c0.5-0.2,1.1,0,1.3,0.5c0.7,1.7,0.6,3.7-0.3,6l-3.2,9.6C56.1,43.5,55.7,43.8,55.3,43.8z"/>
</g>
<g>
	<path class="st14" d="M13.6,43.8c-0.5,0-1-0.4-1-0.9L11.5,30c-0.3-2.5,0.7-5.3,3.1-7.9C18.2,18,24,15,28.6,15
		c4.3,0,8.1,0.7,11.1,2.1c0.5,0.2,0.7,0.8,0.5,1.3s-0.8,0.7-1.3,0.5c-2.8-1.3-6.2-2-10.3-2c-3.9,0-9.3,2.7-12.5,6.4
		c-1.4,1.5-2.9,3.9-2.6,6.4l1.1,12.9C14.6,43.2,14.2,43.7,13.6,43.8L13.6,43.8z"/>
</g>
<g>
	<path class="st14" d="M33.8,77.6c-0.5,0-1.1-0.1-1.5-0.3c-0.7-0.3-1.4-0.6-2-0.8c-8.7-2.7-14.5-11.2-14.5-21.1V50c0-0.6,0.4-1,1-1
		s1,0.4,1,1v5.4c0,9,5.3,16.7,13.1,19.2c0.7,0.2,1.5,0.5,2.3,0.9c0.4,0.2,0.9,0.2,1.2,0l0.6-0.2c0.6-0.3,1.1-0.5,1.8-0.7
		c7.8-2.4,13.1-10.1,13.1-19.2V50c0-0.6,0.4-1,1-1s1,0.4,1,1v5.4c0,9.9-5.8,18.4-14.5,21.1c-0.5,0.2-1,0.4-1.5,0.6l-0.5,0.2
		C34.8,77.5,34.3,77.6,33.8,77.6z"/>
</g>
<g>
	<path class="st14" d="M45.7,51.3c-0.6,0-1-0.4-1-1c0-0.3,0-0.6-0.2-0.8c-0.3-0.3-1.5-0.3-2.5-0.3h-0.6h-0.6c-1.1,0-2.2,0-2.5,0.3
		c-0.2,0.2-0.2,0.5-0.2,0.8c0,0.6-0.4,1-1,1s-1-0.4-1-1c0-1,0.3-1.7,0.8-2.2c0.9-0.9,2.4-0.9,3.9-0.9h0.5h0.5c1.6,0,3,0,3.9,0.9
		c0.5,0.5,0.8,1.3,0.8,2.2C46.7,50.8,46.2,51.3,45.7,51.3z"/>
</g>
<g>
	<path class="st14" d="M30.7,51.3c-0.6,0-1-0.4-1-1c0-0.3,0-0.6-0.2-0.8c-0.3-0.3-1.5-0.3-2.5-0.3h-0.6h-0.6c-1.1,0-2.2,0-2.5,0.3
		c-0.2,0.2-0.2,0.5-0.2,0.8c0,0.6-0.4,1-1,1s-1-0.4-1-1c0-1,0.3-1.7,0.8-2.2c0.9-0.9,2.4-0.9,3.9-0.9h0.5h0.5c1.5,0,3,0,3.9,0.9
		c0.5,0.5,0.8,1.3,0.8,2.2C31.7,50.8,31.2,51.3,30.7,51.3z"/>
</g>
<g>
	<path class="st14" d="M31.8,43.8c-0.5,0-0.9-0.4-1-0.9s0.3-1.1,0.8-1.1c6.9-1,11-7,11.1-7.1c0.3-0.4,0.8-0.5,1.2-0.4
		c0.4,0.2,0.7,0.6,0.6,1.1c-0.2,1.1-0.3,4.4,0.9,5.8c0.3,0.4,0.8,0.6,1.4,0.6c0.6,0,1,0.4,1,1s-0.4,1-1,1c-1.2,0-2.2-0.4-2.9-1.3
		c-1-1.1-1.3-2.9-1.4-4.4c-2,2.1-5.6,4.9-10.5,5.6C31.9,43.8,31.8,43.8,31.8,43.8z"/>
</g>
<g>
	<path class="st14" d="M22.1,42.7c-0.5,0-0.9-0.3-1-0.8s0.2-1.1,0.8-1.2c5.1-1,11.4-5.2,11.4-5.2c0.5-0.3,1.1-0.2,1.4,0.3
		c0.3,0.5,0.2,1.1-0.3,1.4c-0.3,0.2-6.7,4.4-12.1,5.5C22.3,42.7,22.2,42.7,22.1,42.7z"/>
</g>
<g>
	<path class="st14" d="M33.3,67c-3.4,0-5.9-0.7-6.1-0.8c-0.5-0.2-0.8-0.7-0.7-1.2c0.2-0.5,0.7-0.8,1.2-0.7c0.1,0,7.2,2.1,13.2-1
		c0.5-0.3,1.1-0.1,1.3,0.4c0.3,0.5,0.1,1.1-0.4,1.3C39,66.6,35.9,67,33.3,67z"/>
</g>
<g>
	<path class="st14" d="M33.9,60.9c-1.2,0-2.5-0.3-3.5-1c-0.1,0-0.1-0.1-0.2-0.1L30,59.5c-0.4-0.4-0.4-1,0-1.4s1-0.4,1.4,0l0.1,0.1
		c1.4,0.9,3.3,0.9,4.6,0l0.1-0.1c0.4-0.4,1-0.4,1.4,0s0.4,1,0,1.4l-0.2,0.2l-0.1,0.1C36.3,60.6,35.1,60.9,33.9,60.9z"/>
</g>
<g>
	<path class="st15" d="M46,36c-0.2,0-0.3,0-0.5-0.1C45.2,35.7,45,35.4,45,35v-7.7c-4.3-2.3-7-6.9-7-11.7c0-7.4,6-13.3,13.3-13.3
		h10.3C69,2.2,75,8.2,75,15.6s-6,13.3-13.3,13.3h-5.2l-9.9,6.9C46.4,35.9,46.2,36,46,36z M51.3,4.2C45.1,4.2,40,9.3,40,15.6
		c0,4.3,2.5,8.3,6.4,10.2c0.3,0.2,0.6,0.5,0.6,0.9v6.4l8.1-5.7c0.2-0.3,0.5-0.5,0.9-0.5h5.7c6.2,0,11.3-5.1,11.3-11.3
		S67.9,4.2,61.7,4.2H51.3z"/>
</g>
<g>
	<g>
		<g>
			<ellipse class="st14" cx="54.6" cy="13" rx="1" ry="1"/>
		</g>
		<g>
			<ellipse class="st14" cx="58.6" cy="13" rx="1" ry="1"/>
		</g>
	</g>
	<g>
		<path class="st14" d="M56.6,25c-0.2,0-0.3,0-0.5,0c-2.4-0.1-4.6-1.2-6.2-3c-1.6-1.8-2.4-4.1-2.3-6.5c0.3-5,4.5-8.8,9.5-8.5
			c2.4,0.1,4.6,1.2,6.2,3s2.4,4.1,2.3,6.5C65.3,21.3,61.3,25,56.6,25z M56.6,9c-3.7,0-6.8,2.9-7,6.6c-0.1,1.9,0.5,3.7,1.8,5.1
			c1.2,1.4,3,2.2,4.8,2.3c3.9,0.2,7.2-2.7,7.4-6.6l0,0c0.1-1.9-0.5-3.7-1.8-5.1c-1.2-1.4-3-2.2-4.8-2.3C56.8,9,56.7,9,56.6,9z"/>
	</g>
	<g>
		<path class="st14" d="M56.6,20c-1.7,0-3.3-0.6-4.6-1.9c-0.4-0.4-0.4-1,0-1.4s1-0.4,1.4,0c0.8,0.8,2,1.3,3.1,1.3l0,0
			c1.2,0,2.3-0.5,3.1-1.3c0.4-0.4,1-0.4,1.4,0s0.4,1,0,1.4C59.9,19.4,58.2,20,56.6,20z"/>
	</g>
</g>
</svg>
