<?xml version="1.0" encoding="utf-8"?>
<!-- Generator: Adobe Illustrator 22.0.0, SVG Export Plug-In . SVG Version: 6.00 Build 0)  -->
<svg version="1.1" id="Layer_1" xmlns="http://www.w3.org/2000/svg" xmlns:xlink="http://www.w3.org/1999/xlink" x="0px" y="0px"
	 viewBox="0 0 80 80" style="enable-background:new 0 0 80 80;" xml:space="preserve">
<style type="text/css">
	.st0{fill:#00AAFF;}
	.st1{fill:none;stroke:#000000;stroke-width:2;stroke-linecap:round;stroke-linejoin:round;stroke-miterlimit:10;}
	.st2{fill:none;stroke:#E6E6E6;stroke-linecap:round;stroke-linejoin:round;stroke-miterlimit:10;}
	.st3{fill:#E6E6E6;}
	.st4{fill:none;stroke:#E6E6E6;stroke-miterlimit:10;}
	.st5{fill:none;stroke:#000000;stroke-width:2;stroke-miterlimit:10;}
	.st6{fill:none;stroke:#000000;stroke-miterlimit:10;}
	.st7{fill:#FFFFFF;stroke:#000000;stroke-miterlimit:10;}
	.st8{fill:none;stroke:#E4E4E4;stroke-width:2;stroke-miterlimit:10;}
	.st9{fill:none;stroke:#000000;stroke-width:5;stroke-miterlimit:10;}
	.st10{fill:none;}
	.st11{stroke:#020202;stroke-miterlimit:10;}
	.st12{fill:none;stroke:#020202;stroke-width:2;stroke-miterlimit:10;}
	.st13{fill:#020202;}
	.st14{fill:#393939;}
	.st15{fill:#002782;}
</style>
<g>
	<polygon class="st0" points="64,53.9 62,53.9 62,50.4 43,50.4 43,53.9 41,53.9 41,48.4 64,48.4 	"/>
</g>
<g>
	<polygon class="st0" points="38.6,53.9 36.6,53.9 36.6,50.4 33.1,50.4 33.1,48.4 38.6,48.4 	"/>
</g>
<g>
	<polygon class="st0" points="17.6,53.9 15.6,53.9 15.6,48.4 23.5,48.4 23.5,50.4 17.6,50.4 	"/>
</g>
<g>
	<polygon class="st15" points="17,54.9 7,54.9 7,9.9 73,9.9 73,53.9 71,53.9 71,11.9 9,11.9 9,52.9 17,52.9 	"/>
</g>
<g>
	<polygon class="st15" points="68,54.9 51,54.9 51,52.9 66,52.9 66,17.9 14,17.9 14,52.9 16.5,52.9 16.5,54.9 12,54.9 12,15.9 
		68,15.9 	"/>
</g>
<g>
	<path class="st15" d="M40,15.4c-0.8,0-1.5-0.7-1.5-1.5s0.7-1.5,1.5-1.5s1.5,0.7,1.5,1.5S40.8,15.4,40,15.4z M40,13.4
		c-0.3,0-0.5,0.2-0.5,0.5s0.2,0.5,0.5,0.5s0.5-0.2,0.5-0.5S40.3,13.4,40,13.4z"/>
</g>
<g>
	<polygon class="st15" points="76,59.9 32.3,59.9 32.3,57.9 74,57.9 74,54.9 32.3,54.9 32.3,52.9 76,52.9 	"/>
</g>
<g>
	<polygon class="st15" points="24.3,59.9 4,59.9 4,52.9 24.3,52.9 24.3,54.9 6,54.9 6,57.9 24.3,57.9 	"/>
</g>
<g>
	<path class="st0" d="M64,33.1H41v-11h23V33.1z M43,31.1h19v-7H43V31.1z"/>
</g>
<g>
	<path class="st0" d="M64,46.4H41v-11h23V46.4z M43,44.4h19v-7H43V44.4z"/>
</g>
<g>
	<polygon class="st0" points="24.3,33.1 15.6,33.1 15.6,22.1 27.1,22.1 27.1,24.1 17.6,24.1 17.6,31.1 24.3,31.1 	"/>
</g>
<g>
	<polygon class="st0" points="38.6,33.1 32.3,33.1 32.3,31.1 36.6,31.1 36.6,24.1 29.3,24.1 29.3,22.1 38.6,22.1 	"/>
</g>
<g>
	<polygon class="st0" points="38.6,46.4 32.3,46.4 32.3,44.4 36.6,44.4 36.6,37.4 32.3,37.4 32.3,35.4 38.6,35.4 	"/>
</g>
<g>
	<polygon class="st0" points="24.3,46.4 15.6,46.4 15.6,35.4 24.2,35.4 24.2,37.4 17.6,37.4 17.6,44.4 24.3,44.4 	"/>
</g>
<g>
	<g>
		<rect x="27.3" y="30.6" class="st15" width="2" height="37.2"/>
	</g>
	<g>
		<rect x="24.3" y="30.5" class="st15" width="8" height="2"/>
	</g>
	<g>
		<rect x="26.2" y="25.5" class="st15" width="4.2" height="2"/>
	</g>
	<g>
		<path class="st15" d="M29,76.1h-1.5c-2.3,0-4.3-1.9-4.3-4.3V30.4l5-10.7l5,10.7v41.5C33.3,74.2,31.4,76.1,29,76.1z M25.3,30.8
			v41.1c0,1.2,1,2.3,2.3,2.3H29c1.2,0,2.3-1,2.3-2.3V30.8l-3-6.4L25.3,30.8z"/>
	</g>
	<g>
		<rect x="24.3" y="66.8" class="st15" width="8" height="2"/>
	</g>
</g>
</svg>
