<?xml version="1.0" encoding="utf-8"?>
<!-- Generator: Adobe Illustrator 22.0.0, SVG Export Plug-In . SVG Version: 6.00 Build 0)  -->
<svg version="1.1" id="Layer_1" xmlns="http://www.w3.org/2000/svg" xmlns:xlink="http://www.w3.org/1999/xlink" x="0px" y="0px"
	 viewBox="0 0 80 80" style="enable-background:new 0 0 80 80;" xml:space="preserve">
<style type="text/css">
	.st0{fill:#00AAFF;}
	.st1{fill:#002782;}
</style>
<rect x="15.9" y="30" class="st0" width="27.4" height="2"/>
<path class="st1" d="M29.6,15.6c-7.4,0-14.3-0.3-19.5-0.8c-8.3-0.8-8.9-1.8-8.9-2.9s0.7-2.1,8.9-2.9c5.2-0.5,12.1-0.8,19.5-0.8
	s14.3,0.3,19.5,0.8C57.4,9.9,58,10.9,58,12s-0.7,2.1-8.9,2.9C43.9,15.4,37,15.6,29.6,15.6z M4.2,12c3.3,0.8,12.3,1.6,25.4,1.6
	S51.7,12.8,55,12c-3.3-0.8-12.3-1.6-25.4-1.6S7.5,11.2,4.2,12z"/>
<path class="st1" d="M29.6,79.2c-5.2,0-10.1-0.2-13.8-0.6c-5.6-0.5-6.6-1.2-6.6-2.3c0-0.8,0-2.6,17.6-2.8c0.2-0.3,0.4-0.5,0.6-0.8
	c0.5-0.8,1.2-1.7,2.1-1.7s1.7,0.9,2.3,1.6c0.2,0.3,0.5,0.6,0.7,0.8C50,73.7,50,75.5,50,76.3c0,1.1-1,1.8-6.6,2.3
	C39.7,79,34.8,79.2,29.6,79.2z M13.2,76.3c5.4,0.7,10.9,0.9,16.4,0.9c5.5,0.1,11-0.2,16.4-0.9c-4.5-0.6-9-0.8-13.5-0.8
	c-1,0-1.6-0.8-2.2-1.6c-0.2-0.3-0.4-0.5-0.7-0.8c-0.2,0.2-0.4,0.5-0.5,0.7c-0.6,0.8-1.1,1.6-2.1,1.7C22.4,75.5,17.8,75.8,13.2,76.3z
	"/>
<path class="st1" d="M29.6,49.8L29.6,49.8c-0.9,0-1.7-0.4-2.1-1.1l-26.1-36L3,11.4l26.1,36c0.1,0.2,0.3,0.3,0.5,0.3l0,0
	c0.2,0,0.4-0.1,0.5-0.3l26.1-36l1.6,1.2L31.7,48.6C31.3,49.3,30.5,49.8,29.6,49.8z"/>
<rect x="28.6" y="48.8" class="st1" width="2" height="23.2"/>
<path class="st1" d="M63.3,59c-11,0-12.2-2.1-12.2-3s1.2-3,12.2-3s12.2,2.1,12.2,3S74.3,59,63.3,59z M53.8,56c3.1,0.8,6.3,1.1,9.5,1
	c3.2,0.1,6.4-0.2,9.5-1c-3.1-0.8-6.3-1.1-9.5-1C60.1,54.9,56.9,55.2,53.8,56z"/>
<path class="st0" d="M63.3,67.8c-11,0-12.2-2.1-12.2-3s1.2-3,12.2-3s12.2,2.1,12.2,3S74.3,67.8,63.3,67.8z M53.8,64.8
	c3.1,0.8,6.3,1.1,9.5,1c3.2,0.1,6.4-0.2,9.5-1c-3.1-0.8-6.3-1.1-9.5-1C60.1,63.7,56.9,64,53.8,64.8z"/>
<polygon class="st1" points="63.3,78 51.2,75.8 51.2,56 53.2,56 53.2,74.2 63.4,76 73.5,74.6 73.5,56 75.5,56 75.5,76.4 "/>
<rect x="62.3" y="58" class="st1" width="2" height="19"/>
<path class="st1" d="M32.5,36c-2.8,0-5-2.2-5-5s2.2-5,5-5s5,2.2,5,5S35.3,36,32.5,36z M32.5,28c-1.7,0-3,1.3-3,3c0,1.7,1.3,3,3,3
	c1.7,0,3-1.3,3-3C35.5,29.3,34.2,28,32.5,28z"/>
<rect x="37.1" y="31.5" transform="matrix(0.6394 -0.7688 0.7688 0.6394 -12.3669 41.5564)" class="st1" width="2" height="4.9"/>
<rect x="16" y="-0.9" transform="matrix(0.6396 -0.7687 0.7687 0.6396 -6.4815 18.9993)" class="st1" width="2" height="34.6"/>
</svg>
