<svg xmlns="http://www.w3.org/2000/svg" width="16" height="16" viewBox="0 0 16 16">
  <metadata><?xpacket begin="﻿" id="W5M0MpCehiHzreSzNTczkc9d"?>
<x:xmpmeta xmlns:x="adobe:ns:meta/" x:xmptk="Adobe XMP Core 5.6-c138 79.159824, 2016/09/14-01:09:01        ">
   <rdf:RDF xmlns:rdf="http://www.w3.org/1999/02/22-rdf-syntax-ns#">
      <rdf:Description rdf:about=""/>
   </rdf:RDF>
</x:xmpmeta>
                                                                                                    
                                                                                                    
                                                                                                    
                                                                                                    
                                                                                                    
                                                                                                    
                                                                                                    
                                                                                                    
                                                                                                    
                                                                                                    
                                                                                                    
                                                                                                    
                                                                                                    
                                                                                                    
                                                                                                    
                                                                                                    
                                                                                                    
                                                                                                    
                                                                                                    
                                                                                                    
                           
<?xpacket end="w"?></metadata>
<defs>
    <style>
      .cls-1 {
        fill: #fff;
        fill-rule: evenodd;
      }
    </style>
  </defs>
  <path id="facebook" class="cls-1" d="M198,912h-3.988v-6.006h2.195l0.329-1.99h-2.524V902.08A0.916,0.916,0,0,1,195.091,901h1.417v-1.9a8.391,8.391,0,0,0-1.422-.112A2.922,2.922,0,0,0,192,901.972V904h-2v1.99h2V912h-6a2,2,0,0,1-2-2V898a2,2,0,0,1,2-2h12a2,2,0,0,1,2,2v12A2,2,0,0,1,198,912Zm-3.988,0h0Z" transform="translate(-184 -896)"/>
</svg>
