<?xml version="1.0" encoding="utf-8"?>
<!-- Generator: Adobe Illustrator 22.0.0, SVG Export Plug-In . SVG Version: 6.00 Build 0)  -->
<svg version="1.1" id="Layer_1" xmlns="http://www.w3.org/2000/svg" xmlns:xlink="http://www.w3.org/1999/xlink" x="0px" y="0px"
	 viewBox="0 0 80 80" style="enable-background:new 0 0 80 80;" xml:space="preserve">
<style type="text/css">
	.st0{fill:#002782;}
	.st1{fill:#00AAFF;}
</style>
<path class="st0" d="M73,69.4h-2v-41h-4v-2h4c1.1,0,2,0.9,2,2V69.4z"/>
<path class="st0" d="M17,70.4H7v-42c0-1.1,0.9-2,2-2h48.2v2H9v40h8V70.4z"/>
<path class="st0" d="M56.4,70.4H12v-36c0-1.1,0.9-2,2-2h38.2v2H14v34h42.4V70.4z"/>
<path class="st0" d="M68,70.4H51v-2h15v-34h-3.4v-2H66c1.1,0,2,0.9,2,2V70.4z"/>
<path class="st0" d="M40,32c-0.8,0-1.5-0.7-1.5-1.5S39.2,29,40,29s1.5,0.7,1.5,1.5l0,0C41.5,31.3,40.8,32,40,32z M40,30
	c-0.3,0-0.5,0.2-0.5,0.5S39.7,31,40,31s0.5-0.2,0.5-0.5S40.3,30,40,30z"/>
<polygon class="st0" points="79,75.4 54,75.4 54,73.4 77,73.4 77,70.4 54,70.4 54,68.4 79,68.4 "/>
<polygon class="st0" points="55.9,75.4 1,75.4 1,68.4 14,68.4 14,70.4 3,70.4 3,73.4 55.9,73.4 "/>
<polygon class="st1" points="19.7,62.9 18.1,61.8 32.5,41.1 43.9,50.5 75.9,4.9 77.5,6.1 44.3,53.4 32.9,44 "/>
<polygon class="st1" points="77.2,15.3 75.9,6.7 66.8,8.1 66.4,6.1 77.5,4.4 79.2,14.9 "/>
<rect x="54.8" y="10.8" transform="matrix(0.9326 -0.361 0.361 0.9326 -2.1458 21.2445)" class="st1" width="2" height="11.1"/>
<rect x="71.6" y="21.8" transform="matrix(0.9949 -0.1005 0.1005 0.9949 -1.9144 7.5976)" class="st1" width="5.7" height="2"/>
<rect x="50.1" y="19.5" transform="matrix(0.6075 -0.7943 0.7943 0.6075 3.5356 48.7634)" class="st1" width="2" height="2.7"/>
<rect x="60.6" y="14.8" transform="matrix(0.991 -0.1342 0.1342 0.991 -1.5837 8.4105)" class="st1" width="2" height="2.3"/>
</svg>
