<svg xmlns="http://www.w3.org/2000/svg" width="11" height="18.5" viewBox="0 0 11 18.5">
  <metadata><?xpacket begin="﻿" id="W5M0MpCehiHzreSzNTczkc9d"?>
<x:xmpmeta xmlns:x="adobe:ns:meta/" x:xmptk="Adobe XMP Core 5.6-c138 79.159824, 2016/09/14-01:09:01        ">
   <rdf:RDF xmlns:rdf="http://www.w3.org/1999/02/22-rdf-syntax-ns#">
      <rdf:Description rdf:about=""/>
   </rdf:RDF>
</x:xmpmeta>
                                                                                                    
                                                                                                    
                                                                                                    
                                                                                                    
                                                                                                    
                                                                                                    
                                                                                                    
                                                                                                    
                                                                                                    
                                                                                                    
                                                                                                    
                                                                                                    
                                                                                                    
                                                                                                    
                                                                                                    
                                                                                                    
                                                                                                    
                                                                                                    
                                                                                                    
                                                                                                    
                           
<?xpacket end="w"?></metadata>
<defs>
    <style>
      .cls-1 {
        fill: #fff;
        fill-rule: evenodd;
      }
    </style>
  </defs>
  <path id="Shape_2_copy_4" data-name="Shape 2 copy 4" class="cls-1" d="M304,903.548a4.773,4.773,0,1,0-4.9-4.771A4.844,4.844,0,0,0,304,903.548Zm0-6.746a1.976,1.976,0,1,1-2.03,1.975A2,2,0,0,1,304,896.8Zm1.984,10.639a9.354,9.354,0,0,0,2.848-1.148,1.376,1.376,0,0,0,.45-1.928,1.459,1.459,0,0,0-1.981-.44,6.369,6.369,0,0,1-6.6,0,1.457,1.457,0,0,0-1.98.44,1.376,1.376,0,0,0,.449,1.928,9.379,9.379,0,0,0,2.848,1.148l-2.741,2.667a1.372,1.372,0,0,0,0,1.977,1.464,1.464,0,0,0,2.032,0L304,909.464l2.695,2.621a1.464,1.464,0,0,0,2.031,0,1.372,1.372,0,0,0,0-1.977Z" transform="translate(-298.5 -894)"/>
</svg>
