<?xml version="1.0" encoding="utf-8"?>
<!-- Generator: Adobe Illustrator 22.0.0, SVG Export Plug-In . SVG Version: 6.00 Build 0)  -->
<svg version="1.1" id="Слой_1" xmlns="http://www.w3.org/2000/svg" xmlns:xlink="http://www.w3.org/1999/xlink" x="0px" y="0px"
	 viewBox="0 0 80 80" style="enable-background:new 0 0 80 80;" xml:space="preserve">
<style type="text/css">
	.st0{fill:none;stroke:#000000;stroke-width:2;stroke-linecap:round;stroke-linejoin:round;stroke-miterlimit:10;}
	.st1{fill:none;stroke:#E6E6E6;stroke-linecap:round;stroke-linejoin:round;stroke-miterlimit:10;}
	.st2{fill:#E6E6E6;}
	.st3{fill:none;stroke:#E6E6E6;stroke-miterlimit:10;}
	.st4{fill:none;stroke:#000000;stroke-width:2;stroke-miterlimit:10;}
	.st5{fill:none;stroke:#000000;stroke-miterlimit:10;}
	.st6{fill:none;stroke:#E4E4E4;stroke-width:4;stroke-miterlimit:10;}
	.st7{fill:none;stroke:#000000;stroke-width:4;stroke-miterlimit:10;}
	.st8{fill:#00AAFF;}
	.st9{fill:#002782;}
	.st10{fill:#002782;stroke:#000000;stroke-width:2;stroke-miterlimit:10;}
</style>
<g>
	<g>
		<path class="st8" d="M34.6,57.2c-0.9,0-1.8,0-2.7-0.1l0.2-2C53.2,57,62.5,34.9,62.6,34.7l1.9,0.8C64.3,35.7,55.3,57.2,34.6,57.2z"
			/>
	</g>
	<g>
		<path class="st9" d="M8.8,70.6c-1.6,0-3.2-0.6-4.3-1.7c-0.8-0.8-1.3-2.5-1.2-4.2C3.5,63,4,61.6,5,60.7
			c-2.7-12.4,7.4-31.5,18.8-41.8C41,3.2,63.7,11.6,67.1,13c1.5-0.7,6.7-2.7,8.9,0.5c1.7,2.5,0,6-0.7,7.2c3.2,9.7-3.6,26.5-20.8,38.4
			c-17.5,12-37.9,10.3-41,10C11.9,70.1,10.3,70.6,8.8,70.6z M48.9,11.5c-7.5,0-16.2,2-23.8,8.9c-13.8,12.5-20.4,31-18,40.5l0.2,0.7
			L6.8,62c-1.1,0.8-1.3,2.2-1.4,2.9c-0.1,1.3,0.3,2.4,0.6,2.7c1.9,1.9,4.8,1.2,6.6-0.2l0.3-0.2l0.4,0.1c0.2,0,21.8,2.9,40-9.6
			c12.8-9.1,24-25.5,19.9-36.7L73,20.5l0.3-0.4c0.6-1,2.1-3.8,1-5.5c-1.2-1.8-5.4-0.3-6.7,0.3l-0.4,0.2L66.7,15
			C66.6,14.9,58.8,11.5,48.9,11.5z"/>
	</g>
	<g>
		<path class="st9" d="M24,57.4h-2c0-2.2-1.8-3.9-3.9-3.9c-2.2,0-3.9,1.8-3.9,3.9h-2c0-3.3,2.7-5.9,5.9-5.9S24,54.1,24,57.4z"/>
	</g>
	<g>
		<path class="st9" d="M28.4,49.7h-2c0-2.2-1.8-3.9-3.9-3.9s-3.9,1.8-3.9,3.9h-2c0-3.3,2.7-5.9,5.9-5.9S28.4,46.4,28.4,49.7z"/>
	</g>
	<g>
		<path class="st9" d="M33.9,40.9h-2c0-2.2-1.8-3.9-3.9-3.9s-4,1.7-4,3.9h-2c0-3.3,2.7-5.9,5.9-5.9S33.9,37.6,33.9,40.9z"/>
	</g>
	<g>
		<path class="st9" d="M41.6,32.1h-2c0-2.2-1.8-3.9-3.9-3.9s-3.9,1.8-3.9,3.9h-2c0-3.3,2.7-5.9,5.9-5.9S41.6,28.8,41.6,32.1z"/>
	</g>
	<g>
		<path class="st9" d="M52.6,25.5h-2c0-2.2-1.8-3.9-3.9-3.9s-3.9,1.8-3.9,3.9h-2c0-3.3,2.7-5.9,5.9-5.9S52.6,22.2,52.6,25.5z"/>
	</g>
	<g>
		<path class="st9" d="M65.8,22.2h-2c0-2.2-1.8-3.9-3.9-3.9S56,20.1,56,22.2h-2c0-3.3,2.7-5.9,5.9-5.9S65.8,19,65.8,22.2z"/>
	</g>
</g>
</svg>
