<?xml version="1.0" encoding="utf-8"?>
<!-- Generator: Adobe Illustrator 22.0.0, SVG Export Plug-In . SVG Version: 6.00 Build 0)  -->
<svg version="1.1" id="Layer_1" xmlns="http://www.w3.org/2000/svg" xmlns:xlink="http://www.w3.org/1999/xlink" x="0px" y="0px"
	 viewBox="0 0 80 80" style="enable-background:new 0 0 80 80;" xml:space="preserve">
<style type="text/css">
	.st0{fill:none;stroke:#000000;stroke-width:2;stroke-linecap:round;stroke-linejoin:round;stroke-miterlimit:10;}
	.st1{fill:none;stroke:#E6E6E6;stroke-linecap:round;stroke-linejoin:round;stroke-miterlimit:10;}
	.st2{fill:#E6E6E6;}
	.st3{fill:none;stroke:#E6E6E6;stroke-miterlimit:10;}
	.st4{fill:none;stroke:#000000;stroke-width:2;stroke-miterlimit:10;}
	.st5{fill:none;stroke:#000000;stroke-miterlimit:10;}
	.st6{fill:none;stroke:#E4E4E4;stroke-width:4;stroke-miterlimit:10;}
	.st7{fill:none;stroke:#000000;stroke-width:4;stroke-miterlimit:10;}
	.st8{fill:#00AAFF;}
	.st9{fill:#002782;}
</style>
<g>
	<g>
		<path class="st8" d="M56.4,56H28.6c-3,0-5.4-2.4-5.4-5.4v-1.1c0-3,2.4-5.4,5.4-5.4h27.8c3,0,5.4,2.4,5.4,5.4v1.1
			C61.8,53.6,59.4,56,56.4,56z M28.6,46.1c-1.9,0-3.4,1.5-3.4,3.4v1.1c0,1.9,1.5,3.4,3.4,3.4h27.8c1.9,0,3.4-1.5,3.4-3.4v-1.1
			c0-1.9-1.5-3.4-3.4-3.4H28.6z"/>
	</g>
	<g>
		<path class="st8" d="M52.8,46.1H32.2c-3.3,0-5.9-2.6-6-5.9L22.4,15c0-2.6,2.2-12,6-12h28.2c3.8,0,6,9.4,6,12v0.1l-3.8,25.1
			C58.7,43.5,56.1,46.1,52.8,46.1z M24.4,14.9l3.8,25.3c0,2.2,1.8,4,4,4h20.6c2.2,0,4-1.8,4-4v-0.1L60.6,15c0-3.3-2.5-9.9-4-9.9
			H28.4C26.9,5,24.5,11.6,24.4,14.9z"/>
	</g>
	<g>
		<rect x="37" y="38.5" transform="matrix(0.2984 -0.9544 0.9544 0.2984 -7.8833 68.2716)" class="st8" width="11" height="2"/>
	</g>
	<g>
		<rect x="30" y="38.5" transform="matrix(0.2984 -0.9544 0.9544 0.2984 -12.794 61.5909)" class="st8" width="11" height="2"/>
	</g>
	<g>
		<rect x="44" y="38.5" transform="matrix(0.2984 -0.9544 0.9544 0.2984 -2.9726 74.9522)" class="st8" width="11" height="2"/>
	</g>
	<g>
		<g>
			<rect x="41.5" y="56" class="st9" width="2" height="13"/>
		</g>
		<g>
			<path class="st9" d="M58.4,69.6h-2c0-2.3-5.9-6.7-13.9-6.7s-13.9,4.4-13.9,6.7h-2c0-3.9,7.3-8.7,15.9-8.7S58.4,65.7,58.4,69.6z"
				/>
		</g>
		<g>
			<path class="st9" d="M57.5,78c-2.8,0-5-2.2-5-5s2.2-5,5-5s5,2.2,5,5S60.3,78,57.5,78z M57.5,70c-1.7,0-3,1.3-3,3s1.3,3,3,3
				s3-1.3,3-3S59.2,70,57.5,70z"/>
		</g>
		<g>
			<path class="st9" d="M42.5,78c-2.8,0-5-2.2-5-5s2.2-5,5-5s5,2.2,5,5S45.3,78,42.5,78z M42.5,70c-1.7,0-3,1.3-3,3s1.3,3,3,3
				s3-1.3,3-3S44.2,70,42.5,70z"/>
		</g>
		<g>
			<path class="st9" d="M27.5,78c-2.8,0-5-2.2-5-5s2.2-5,5-5s5,2.2,5,5S30.3,78,27.5,78z M27.5,70c-1.7,0-3,1.3-3,3s1.3,3,3,3
				s3-1.3,3-3S29.2,70,27.5,70z"/>
		</g>
	</g>
	<g>
		<g>
			<g>
				<path class="st9" d="M61.2,35H55v-2h6.2c3.2,0,5.8-2.6,5.8-5.8V21h2v6.2C69,31.5,65.5,35,61.2,35z"/>
			</g>
			<g>
				<rect x="64" y="20" class="st9" width="8" height="2"/>
			</g>
		</g>
		<g>
			<g>
				<path class="st9" d="M30,35h-6.2c-4.3,0-7.8-3.5-7.8-7.8V21h2v6.2c0,3.2,2.6,5.8,5.8,5.8H30V35z"/>
			</g>
			<g>
				<rect x="13" y="20" class="st9" width="8" height="2"/>
			</g>
		</g>
	</g>
</g>
</svg>
