<?xml version="1.0" encoding="utf-8"?>
<!-- Generator: Adobe Illustrator 22.0.0, SVG Export Plug-In . SVG Version: 6.00 Build 0)  -->
<svg version="1.1" id="Слой_1" xmlns="http://www.w3.org/2000/svg" xmlns:xlink="http://www.w3.org/1999/xlink" x="0px" y="0px"
	 viewBox="0 0 77.4 48.5" style="enable-background:new 0 0 77.4 48.5;" xml:space="preserve">
<style type="text/css">
	.st0{fill:none;stroke:#002782;stroke-width:2;stroke-miterlimit:10;}
	.st1{fill:none;stroke:#00AAFF;stroke-width:2;stroke-miterlimit:10;}
	.st2{fill:#00AAFF;}
	.st3{fill:#002782;}
</style>
<path class="st0" d="M72.6,14.2h2.3c0.8,0,1.5,0.7,1.5,1.5v17.1c0,0.8-0.7,1.5-1.5,1.5h-2.3c-0.8,0-1.5-0.7-1.5-1.5V15.7
	C71.1,14.9,71.8,14.2,72.6,14.2z"/>
<path class="st0" d="M65.6,5.2h4.1c0.8,0,1.5,0.7,1.5,1.5v35.2c0,0.8-0.7,1.5-1.5,1.5h-4.1c-0.8,0-1.5-0.7-1.5-1.5V6.6
	C64.1,5.8,64.8,5.2,65.6,5.2z"/>
<path class="st0" d="M2.5,14.2h2.2c0.8,0,1.5,0.7,1.5,1.5v17.1c0,0.8-0.7,1.5-1.5,1.5H2.5c-0.8,0-1.5-0.7-1.5-1.5V15.7
	C1,14.9,1.7,14.2,2.5,14.2z"/>
<rect x="21" y="19.9" class="st1" width="35.4" height="7.6"/>
<path class="st0" d="M7.9,5.2h3.9c0.8,0,1.5,0.7,1.5,1.5v35.2c0,0.8-0.7,1.5-1.5,1.5H7.9c-0.8,0-1.5-0.7-1.5-1.5V6.6
	C6.4,5.8,7.1,5.2,7.9,5.2z"/>
<path class="st0" d="M14.8,2.7h4.7c0.8,0,1.5,0.7,1.5,1.5v40.1c0,0.8-0.7,1.5-1.5,1.5h-4.7c-0.8,0-1.5-0.7-1.5-1.5V4.2
	C13.3,3.4,14,2.7,14.8,2.7z"/>
<path class="st0" d="M57.9,1h4.7c0.8,0,1.5,0.7,1.5,1.5V46c0,0.8-0.7,1.5-1.5,1.5h-4.7c-0.8,0-1.5-0.7-1.5-1.5V2.5
	C56.4,1.7,57.1,1,57.9,1z"/>
</svg>
