<?xml version="1.0" encoding="utf-8"?>
<!-- Generator: Adobe Illustrator 22.0.0, SVG Export Plug-In . SVG Version: 6.00 Build 0)  -->
<svg version="1.1" id="Layer_1" xmlns="http://www.w3.org/2000/svg" xmlns:xlink="http://www.w3.org/1999/xlink" x="0px" y="0px"
	 viewBox="0 0 80 80" style="enable-background:new 0 0 80 80;" xml:space="preserve">
<style type="text/css">
	.st0{fill:none;stroke:#000000;stroke-width:2;stroke-linecap:round;stroke-linejoin:round;stroke-miterlimit:10;}
	.st1{fill:none;stroke:#E6E6E6;stroke-linecap:round;stroke-linejoin:round;stroke-miterlimit:10;}
	.st2{fill:#E6E6E6;}
	.st3{fill:none;stroke:#E6E6E6;stroke-miterlimit:10;}
	.st4{fill:none;stroke:#000000;stroke-width:2;stroke-miterlimit:10;}
	.st5{fill:none;stroke:#000000;stroke-miterlimit:10;}
	.st6{fill:#FFFFFF;stroke:#000000;stroke-miterlimit:10;}
	.st7{fill:none;stroke:#E4E4E4;stroke-width:2;stroke-miterlimit:10;}
	.st8{fill:none;stroke:#000000;stroke-width:5;stroke-miterlimit:10;}
	.st9{fill:none;}
	.st10{stroke:#020202;stroke-miterlimit:10;}
	.st11{fill:none;stroke:#020202;stroke-width:2;stroke-miterlimit:10;}
	.st12{fill:#020202;}
	.st13{fill:#393939;}
	.st14{fill:#002782;}
	.st15{fill:#00AAFF;}
</style>
<g>
	<path class="st14" d="M59.5,76.5H12c-0.6,0-1.1-0.5-1.1-1.1v-64c0-0.6,0.5-1.1,1.1-1.1h32.2c0.6,0,1.1,0.5,1.1,1.1
		s-0.5,1.1-1.1,1.1H13.1v61.8h45.2V12.4h-5.1c-0.6,0-1.1-0.5-1.1-1.1s0.5-1.1,1.1-1.1h6.3c0.6,0,1.1,0.5,1.1,1.1v64
		C60.6,76,60.1,76.5,59.5,76.5z"/>
</g>
<g>
	<path class="st14" d="M21.9,76.5c-0.6,0-1.1-0.5-1.1-1.1V11.3c0-0.6,0.5-1.1,1.1-1.1s1.1,0.5,1.1,1.1v64.1
		C23,76,22.5,76.5,21.9,76.5z"/>
</g>
<g>
	<path class="st14" d="M59.5,76.5c-0.3,0-0.7-0.1-0.9-0.4c-0.4-0.5-0.3-1.2,0.2-1.6l8-6.3V5.8H17.2c-2.3,0-4.1,1.8-4.1,4.1
		c0,0.3,0,0.6,0.1,0.8c0.1,0.6-0.3,1.2-0.9,1.3c-0.6,0.1-1.2-0.3-1.3-0.9c-0.1-0.4-0.1-0.8-0.1-1.3c0-3.5,2.9-6.4,6.4-6.4H68
		c0.6,0,1.1,0.5,1.1,1.1v64c0,0.3-0.2,0.7-0.4,0.9l-8.5,6.7C60,76.4,59.8,76.5,59.5,76.5z"/>
</g>
<g>
	<polygon class="st15" points="54.4,32.4 48.7,28.2 43.1,32.4 43.1,11.3 45.3,11.3 45.3,27.9 48.7,25.3 52.1,27.9 52.1,11.3 
		54.4,11.3 	"/>
</g>
<g>
	<polygon class="st15" points="54.2,11.9 52.3,10.6 53.3,9.2 47,9.2 45.1,11.9 43.3,10.6 45.9,6.9 57.7,6.9 	"/>
</g>
<g>
	<path class="st14" d="M59.5,12.4c-0.3,0-0.7-0.1-0.9-0.4c-0.4-0.5-0.3-1.2,0.2-1.6l8.5-6.7c0.5-0.4,1.2-0.3,1.6,0.2
		s0.3,1.2-0.2,1.6l-8.5,6.7C60,12.3,59.8,12.4,59.5,12.4z"/>
</g>
<g>
	<path class="st15" d="M54.2,12.4h-1.1c-0.6,0-1.1-0.5-1.1-1.1s0.5-1.1,1.1-1.1h1.2"/>
</g>
<g>
	<path class="st15" d="M45.3,12.4h-1.1c-0.6,0-1.1-0.5-1.1-1.1s0.5-1.1,1.1-1.1h1.2"/>
</g>
</svg>
