<?xml version="1.0" encoding="utf-8"?>
<!-- Generator: Adobe Illustrator 22.0.0, SVG Export Plug-In . SVG Version: 6.00 Build 0)  -->
<svg version="1.1" id="Layer_1" xmlns="http://www.w3.org/2000/svg" xmlns:xlink="http://www.w3.org/1999/xlink" x="0px" y="0px"
	 viewBox="0 0 80 80" style="enable-background:new 0 0 80 80;" xml:space="preserve">
<style type="text/css">
	.st0{fill:none;stroke:#002782;stroke-width:2;stroke-miterlimit:10;}
	.st1{fill:#00AAFF;}
	.st2{fill:#002782;}
</style>
<path class="st0" d="M52.3,62.3c-0.8,0.5-1.7,0.7-2.8,0.7c-3,0-5.5-2.5-5.5-5.5s2.5-5.5,5.5-5.5c0.8,0,1.5,0.2,2.1,0.4"/>
<g>
	<g>
		<path class="st1" d="M58.4,65.9L57.5,64C68.7,58.8,76,47.5,76,35.2C76,17.7,61.6,3.5,44,3.5S12,17.7,12,35.3
			c0,3.1,0.5,6.2,1.3,9.2L11.4,45c-1-3.1-1.4-6.4-1.4-9.7C10,16.6,25.3,1.5,44,1.5s34,15.1,34,33.8C78,48.3,70.3,60.3,58.4,65.9z"/>
	</g>
	<g>
		<path class="st1" d="M58.8,53.3l-1.9-0.6c1.7-5.2,2.6-11.2,2.6-17.5c0-17.5-7-31.8-15.5-31.8S28.5,17.7,28.5,35.2
			c0,2.1,0.1,4.3,0.3,6.3l-2,0.2c-0.2-2.1-0.3-4.3-0.3-6.5c0-18.9,7.7-33.8,17.5-33.8s17.5,14.8,17.5,33.8
			C61.5,41.7,60.6,47.9,58.8,53.3z"/>
	</g>
	<g>
		<rect x="61" y="34.2" class="st1" width="16" height="2"/>
	</g>
	<g>
		<rect x="11" y="34.2" class="st1" width="22" height="2"/>
	</g>
	<g>
		<rect x="58" y="50.6" class="st1" width="14.1" height="2"/>
	</g>
	<g>
		<rect x="15.9" y="17.9" class="st1" width="56.3" height="2"/>
	</g>
	<g>
		<rect x="43" y="2" class="st1" width="2" height="31"/>
	</g>
</g>
<g>
	<g>
		<polygon class="st2" points="52,49 40,49 40,47 51,47 		"/>
	</g>
	<g>
		<rect x="40.1" y="65.8" class="st2" width="11.9" height="2"/>
	</g>
	<g>
		<path class="st2" d="M21.1,71H2V43h19.1V71z M4,69h15.1V45H4V69z"/>
	</g>
	<g>
		<path d="M54.7,69c-2.3,0-4.2-1.8-4.2-4s1.8-4,4.2-4h3.2v2h-3.2c-1.2,0-2.2,0.9-2.2,2s1,2,2.2,2V69z"/>
	</g>
	<g>
		<path class="st2" d="M54.7,63c-0.6,0-1.1-0.1-1.6-0.3c-1.6-0.6-2.6-2.1-2.6-3.7c0-2.2,1.8-4,4.2-4h3.2v2h-3.2
			c-1.2,0-2.2,0.9-2.2,2c0,0.8,0.5,1.5,1.3,1.8c0.3,0.1,0.6,0.2,0.9,0.2C54.7,61,54.7,63,54.7,63z"/>
	</g>
	<g>
		<path class="st2" d="M54.7,57c-2.3,0-4.2-1.8-4.2-4s1.8-4,4.2-4h3.2v2h-3.2c-1.2,0-2.2,0.9-2.2,2s1,2,2.2,2V57z"/>
	</g>
	<g>
		<path class="st2" d="M54.7,51c-2.3,0-4.2-1.8-4.2-4s1.8-4,4.2-4h3.2v2h-3.2c-1.2,0-2.2,0.9-2.2,2s1,2,2.2,2V51z"/>
	</g>
	<g>
		<path class="st2" d="M57.9,69h-3.2c-2.3,0-4.2-1.8-4.2-4s1.8-4,4.2-4v2c-1.2,0-2.2,0.9-2.2,2s1,2,2.2,2h3.2V69z"/>
	</g>
	<g>
		<path class="st2" d="M34.7,47.6h-2c0-2.2,1.9-4,4.2-4h3.2v2h-3.2C35.7,45.6,34.7,46.5,34.7,47.6z"/>
	</g>
	<g>
		<path class="st2" d="M40.1,70.7H27.6c-2,0-3.6-1.3-4.1-3.2H22v-2h3.4v1c0,1.2,1,2.2,2.2,2.2h12.5V70.7z"/>
	</g>
	<g>
		<path class="st2" d="M25.4,46h-5.8v-2h5l7.5-7.8l0.7-3c0.1-2.3,1.9-4.2,4.2-4.2s4.1,1.6,4.1,4v4l-4,8.4l-1.8-0.9l3.9-8.1v-3.1
			c0-1.3-1-2.4-2.2-2.4s-2.2,1.1-2.2,2.4v0.2l-0.9,3.6L25.4,46z"/>
	</g>
	<g>
		<path class="st2" d="M21.1,71h-9.4V43h9.4V71z M13.6,69H19V45h-5.4V69z"/>
	</g>
	<g>
		<path class="st2" d="M45.7,42.2c-2.1,0-3.7-1.6-3.7-3.6s1.7-3.6,3.7-3.6c2.1,0,3.7,1.6,3.7,3.6S47.8,42.2,45.7,42.2z M45.7,37
			c-1,0-1.7,0.7-1.7,1.6s0.8,1.6,1.7,1.6c1,0,1.7-0.7,1.7-1.6S46.7,37,45.7,37z"/>
	</g>
	<g>
		<path class="st2" d="M16.3,68.6c-1.4,0-2.5-1.1-2.5-2.5s1.1-2.5,2.5-2.5s2.5,1.1,2.5,2.5S17.7,68.6,16.3,68.6z M16.3,65.6
			c-0.3,0-0.5,0.2-0.5,0.5s0.2,0.5,0.5,0.5c0.3,0,0.5-0.2,0.5-0.5C16.8,65.8,16.6,65.6,16.3,65.6z"/>
	</g>
	<g>
		<path class="st2" d="M58.9,78H39.1V32h19.8C58.9,32,58.9,78,58.9,78z M41.1,76h15.8V34H41.1V76z"/>
	</g>
</g>
</svg>
