<?xml version="1.0" encoding="utf-8"?>
<!-- Generator: Adobe Illustrator 22.0.0, SVG Export Plug-In . SVG Version: 6.00 Build 0)  -->
<svg version="1.1" id="Layer_1" xmlns="http://www.w3.org/2000/svg" xmlns:xlink="http://www.w3.org/1999/xlink" x="0px" y="0px"
	 viewBox="0 0 80 80" style="enable-background:new 0 0 80 80;" xml:space="preserve">
<style type="text/css">
	.st0{fill:#00AAFF;}
	.st1{fill:none;stroke:#000000;stroke-width:2;stroke-linecap:round;stroke-linejoin:round;stroke-miterlimit:10;}
	.st2{fill:none;stroke:#E6E6E6;stroke-linecap:round;stroke-linejoin:round;stroke-miterlimit:10;}
	.st3{fill:#E6E6E6;}
	.st4{fill:none;stroke:#E6E6E6;stroke-miterlimit:10;}
	.st5{fill:none;stroke:#000000;stroke-width:2;stroke-miterlimit:10;}
	.st6{fill:none;stroke:#000000;stroke-miterlimit:10;}
	.st7{fill:#FFFFFF;stroke:#000000;stroke-miterlimit:10;}
	.st8{fill:none;stroke:#E4E4E4;stroke-width:2;stroke-miterlimit:10;}
	.st9{fill:none;stroke:#000000;stroke-width:5;stroke-miterlimit:10;}
	.st10{fill:none;}
	.st11{stroke:#020202;stroke-miterlimit:10;}
	.st12{fill:none;stroke:#020202;stroke-width:2;stroke-miterlimit:10;}
	.st13{fill:#020202;}
	.st14{fill:#393939;}
	.st15{fill:#002782;}
</style>
<g>
	<polygon class="st0" points="67,63.5 65,63.5 65,33 44.3,27.5 44.8,25.6 67,31.5 	"/>
</g>
<g>
	<polygon class="st0" points="62.8,73.2 4.8,73.2 4.8,15 18.2,18.5 17.7,20.5 6.8,17.6 6.8,71.2 62.8,71.2 	"/>
</g>
<g>
	<g>
		<path class="st0" d="M62.2,21.9h-2c0-5.7-4.6-10.2-10.2-10.2c-4.6,0-8.6,3.1-9.9,7.5l-1.9-0.5c1.5-5.3,6.3-8.9,11.8-8.9
			C56.7,9.6,62.2,15.1,62.2,21.9z"/>
	</g>
	<g>
		<polygon class="st0" points="62.2,31 60.2,31 60.2,22.9 42.3,22.9 42.3,20.9 62.2,20.9 		"/>
	</g>
	<g>
		<polygon class="st0" points="53.2,10.9 51.2,10.9 51.2,8.5 48.7,8.5 48.7,10.9 46.7,10.9 46.7,6.5 53.2,6.5 		"/>
	</g>
	<g>
		<rect x="49" y="2.4" class="st0" width="2" height="5.1"/>
	</g>
	<g>
		<rect x="44" y="24.1" class="st0" width="17.2" height="2"/>
	</g>
</g>
<g>
	<polygon class="st0" points="12,33.3 8.4,33.3 8.4,24 13.7,24 13.7,26 10.4,26 10.4,31.3 12,31.3 	"/>
</g>
<g>
	<polygon class="st0" points="16.7,44.9 8.4,44.9 8.4,35.6 12.5,35.6 12.5,37.6 10.4,37.6 10.4,42.9 16.7,42.9 	"/>
</g>
<g>
	<polygon class="st0" points="52,44.9 44.4,44.9 44.4,42.9 50,42.9 50,37.6 45.1,37.6 45.1,35.6 52,35.6 	"/>
</g>
<g>
	<path class="st0" d="M17.7,56.5H8.4v-9.3h9.3V56.5z M10.4,54.5h5.3v-5.3h-5.3V54.5z"/>
</g>
<g>
	<polygon class="st0" points="29.1,56.5 19.8,56.5 19.8,47.2 23.1,47.2 23.1,49.2 21.8,49.2 21.8,54.5 27.1,54.5 27.1,49.2 
		29.1,49.2 	"/>
</g>
<g>
	<polygon class="st0" points="40.7,56.5 31.4,56.5 31.4,48.8 33.4,48.8 33.4,54.5 38.7,54.5 38.7,47.2 40.7,47.2 	"/>
</g>
<g>
	<path class="st0" d="M17.7,67.6H8.4v-9.3h9.3V67.6z M10.4,65.6h5.3v-5.3h-5.3V65.6z"/>
</g>
<g>
	<path class="st0" d="M63,44.9h-9.3v-9.3H63V44.9z M55.7,42.9H61v-5.3h-5.3V42.9z"/>
</g>
<g>
	<polygon class="st0" points="63,56.5 57.5,56.5 57.5,54.5 61,54.5 61,49.2 55.7,49.2 55.7,52.9 53.7,52.9 53.7,47.2 63,47.2 	"/>
</g>
<g>
	<path class="st0" d="M29.1,67.6h-9.3v-9.3h9.3C29.1,58.3,29.1,67.6,29.1,67.6z M21.8,65.6h5.3v-5.3h-5.3V65.6z"/>
</g>
<g>
	<path class="st0" d="M40.7,67.6h-9.3v-9.3h9.3V67.6z M33.4,65.6h5.3v-5.3h-5.3V65.6z"/>
</g>
<g>
	<path class="st0" d="M52,67.6h-9.3v-9.3h7.8v1.5H52V67.6z M44.7,65.6H50v-5.3h-5.3V65.6z"/>
</g>
<g>
	<g>
		<g>
			<path class="st15" d="M28.8,50.2c-4.8,0-9.3-1.9-12.6-5.2l0,0l0,0c-3.4-3.4-5.2-7.9-5.2-12.6s1.9-9.3,5.2-12.6
				c2.2-2.2,4.9-3.8,7.9-4.6c6.1-1.7,12.8,0.1,17.3,4.6c7,7,7,18.3,0,25.2C38.1,48.4,33.6,50.2,28.8,50.2z M28.8,16.5
				c-1.4,0-2.8,0.2-4.2,0.6c-2.6,0.7-5.1,2.1-7,4.1c-3,3-4.6,7-4.6,11.2s1.6,8.2,4.6,11.2l0,0c3,3,7,4.6,11.2,4.6S37,46.6,40,43.6
				c6.2-6.2,6.2-16.2,0-22.4C37,18.2,33,16.5,28.8,16.5z"/>
		</g>
		<g>
			<path class="st15" d="M28.8,45.6c-3.5,0-6.8-1.4-9.3-3.9s-3.9-5.8-3.9-9.3s1.4-6.8,3.9-9.3s5.8-3.9,9.3-3.9s6.8,1.4,9.3,3.9
				s3.9,5.8,3.9,9.3s-1.4,6.8-3.9,9.3C35.7,44.2,32.4,45.6,28.8,45.6z M28.8,21.2c-3,0-5.8,1.2-7.9,3.3l0,0
				c-2.1,2.1-3.3,4.9-3.3,7.9s1.2,5.8,3.3,7.9c2.1,2.1,4.9,3.3,7.9,3.3s5.8-1.2,7.9-3.3c2.1-2.1,3.3-4.9,3.3-7.9s-1.2-5.8-3.3-7.9
				S31.8,21.2,28.8,21.2z"/>
		</g>
		<g>
			<g>
				<path class="st15" d="M28.8,37.9c-5.2,0-9.2-4.7-9.4-4.8l-0.6-0.7l0.6-0.7c0.2-0.2,4.2-4.8,9.4-4.8s9.2,4.7,9.4,4.8l0.6,0.7
					L38.2,33C38.1,33.2,34,37.9,28.8,37.9z M21.6,32.4c1.2,1.2,4,3.5,7.2,3.5s6-2.3,7.2-3.5c-1.2-1.2-4-3.5-7.2-3.5
					C25.6,28.9,22.8,31.2,21.6,32.4z"/>
			</g>
			<g>
				<path class="st15" d="M28.8,35.5c-1.7,0-3.1-1.4-3.1-3.1s1.4-3.1,3.1-3.1s3.1,1.4,3.1,3.1S30.6,35.5,28.8,35.5z M28.8,31.3
					c-0.6,0-1.1,0.5-1.1,1.1s0.5,1.1,1.1,1.1s1.1-0.5,1.1-1.1S29.4,31.3,28.8,31.3z"/>
			</g>
		</g>
	</g>
	<g>
		<g>
			<path class="st15" d="M69.8,78.6C68.4,78.6,67,78,66,77L43.8,53.6l1.5-1.4l22.2,23.4c1.3,1.3,3.5,1.3,4.8,0c0.6-0.6,1-1.5,1-2.4
				s-0.4-1.8-1-2.4L48.8,48.7l1.4-1.5l23.4,22.2c1,1,1.6,2.4,1.6,3.8S74.6,76,73.6,77C72.6,78.1,71.2,78.6,69.8,78.6z"/>
		</g>
		<g>
			<path class="st15" d="M42.7,55c-0.8,0-1.4-0.2-1.9-0.7l0,0l0,0c-1.5-1.5-0.5-4.8,2.3-7.7c1.2-1.2,2.7-2.2,4-2.7
				c1.6-0.6,2.9-0.5,3.7,0.4c1.5,1.5,0.5,4.8-2.3,7.7c-1.2,1.2-2.7,2.2-4,2.7C43.9,54.8,43.3,55,42.7,55z M48.9,45.5
				c-0.3,0-0.6,0.1-1.1,0.2c-1,0.4-2.2,1.2-3.2,2.2c-2.2,2.2-2.8,4.4-2.3,4.8l0,0c0.2,0.2,0.7,0.2,1.6-0.1c1-0.4,2.2-1.2,3.2-2.2
				c2.2-2.2,2.8-4.4,2.3-4.8C49.3,45.6,49.2,45.5,48.9,45.5z"/>
		</g>
		<g>
			<rect x="43.3" y="40.6" transform="matrix(0.707 -0.7072 0.7072 0.707 -17.6857 44.0581)" class="st15" width="2" height="5.6"/>
		</g>
		<g>
			<rect x="39" y="44.8" transform="matrix(0.6834 -0.7301 0.7301 0.6834 -22.1631 44.2843)" class="st15" width="2" height="5.7"/>
		</g>
	</g>
</g>
</svg>
