<?xml version="1.0" encoding="utf-8"?>
<!-- Generator: Adobe Illustrator 22.0.0, SVG Export Plug-In . SVG Version: 6.00 Build 0)  -->
<svg version="1.1" id="Layer_1" xmlns="http://www.w3.org/2000/svg" xmlns:xlink="http://www.w3.org/1999/xlink" x="0px" y="0px"
	 viewBox="0 0 80 80" style="enable-background:new 0 0 80 80;" xml:space="preserve">
<style type="text/css">
	.st0{fill:none;stroke:#000000;stroke-width:2;stroke-linecap:round;stroke-linejoin:round;stroke-miterlimit:10;}
	.st1{fill:none;stroke:#E6E6E6;stroke-linecap:round;stroke-linejoin:round;stroke-miterlimit:10;}
	.st2{fill:#E6E6E6;}
	.st3{fill:none;stroke:#E6E6E6;stroke-miterlimit:10;}
	.st4{fill:none;stroke:#000000;stroke-width:2;stroke-miterlimit:10;}
	.st5{fill:none;stroke:#000000;stroke-miterlimit:10;}
	.st6{fill:#FFFFFF;stroke:#000000;stroke-miterlimit:10;}
	.st7{fill:none;stroke:#E4E4E4;stroke-width:2;stroke-miterlimit:10;}
	.st8{fill:none;stroke:#000000;stroke-width:5;stroke-miterlimit:10;}
	.st9{fill:none;}
	.st10{stroke:#020202;stroke-miterlimit:10;}
	.st11{fill:none;stroke:#020202;stroke-width:2;stroke-miterlimit:10;}
	.st12{fill:#002782;}
	.st13{fill:#00AAFF;}
	.st14{fill:#020202;}
</style>
<g>
	<g>
		<rect x="4" y="58" class="st12" width="2" height="7"/>
	</g>
	<g>
		<g>
			<path class="st13" d="M19.5,41h-9V21h9V41z M12.5,39h5V23h-5V39z"/>
		</g>
		<g>
			<path class="st13" d="M12.5,41h-9V21h9V41z M5.5,39h5V23h-5V39z"/>
		</g>
		<g>
			<path class="st12" d="M78,45H2v-6h76V45z M4,43h72v-2H4V43z"/>
		</g>
		<g>
			<polygon class="st12" points="26,59 4,59 4,44 6,44 6,57 24,57 24,44 26,44 			"/>
		</g>
		<g>
			<polygon class="st12" points="76,59 54,59 54,44 56,44 56,57 74,57 74,44 76,44 			"/>
		</g>
		<g>
			<rect x="5" y="49" class="st12" width="20" height="2"/>
		</g>
		<g>
			<rect x="55" y="49" class="st12" width="20" height="2"/>
		</g>
		<g>
			<circle class="st12" cx="15" cy="47" r="1"/>
		</g>
		<g>
			<circle class="st12" cx="65" cy="47" r="1"/>
		</g>
		<g>
			<path class="st12" d="M53.5,37h-27c-1.7,0-3-1.3-3-3V16c0-1.7,1.3-3,3-3h27c1.7,0,3,1.3,3,3v18C56.5,35.7,55.2,37,53.5,37z
				 M26.5,15c-0.6,0-1,0.4-1,1v18c0,0.6,0.4,1,1,1h27c0.6,0,1-0.4,1-1V16c0-0.6-0.4-1-1-1H26.5z"/>
		</g>
		<g>
			<path class="st12" d="M46,41H34v-6h12V41z M36,39h8v-2h-8V39z"/>
		</g>
		<g>
			<circle class="st12" cx="40" cy="33" r="1"/>
		</g>
		<g>
			<rect x="24.5" y="29" class="st12" width="31" height="2"/>
		</g>
		<g>
			<path class="st12" d="M68,41h-3c-1.7,0-3-1.3-3-3v-9h9v9C71,39.7,69.7,41,68,41z M64,31v7c0,0.6,0.4,1,1,1h3c0.6,0,1-0.4,1-1v-7
				H64z"/>
		</g>
		<g>
			<path class="st12" d="M71.2,37H70v-2h1.2c0.4,0,0.8-0.4,0.8-0.8c0-0.4-0.4-0.8-0.8-0.8H70v-2h1.2c1.5,0,2.8,1.3,2.8,2.8
				S72.7,37,71.2,37z"/>
		</g>
		<g>
			<path class="st13" d="M69.2,28h-2c0-1.3,0.7-1.9,1.2-2.4c0.4-0.4,0.6-0.6,0.6-0.9c0-0.4-0.1-0.5-0.6-0.9s-1.2-1.1-1.2-2.4
				s0.7-1.9,1.2-2.4c0.4-0.4,0.6-0.6,0.6-0.9h2c0,1.3-0.7,1.9-1.2,2.4c-0.4,0.4-0.6,0.6-0.6,0.9c0,0.4,0.1,0.5,0.6,0.9
				s1.2,1.1,1.2,2.4s-0.7,1.9-1.2,2.4C69.4,27.5,69.2,27.6,69.2,28z"/>
		</g>
		<g>
			<path class="st13" d="M64.5,28h-2c0-1.3,0.7-1.9,1.2-2.4c0.4-0.4,0.6-0.6,0.6-0.9c0-0.4-0.1-0.5-0.6-0.9s-1.2-1.1-1.2-2.4
				s0.7-1.9,1.2-2.4c0.4-0.4,0.6-0.6,0.6-0.9h2c0,1.3-0.7,1.9-1.2,2.4c-0.4,0.4-0.6,0.6-0.6,0.9c0,0.4,0.1,0.5,0.6,0.9
				s1.2,1.1,1.2,2.4s-0.7,1.9-1.2,2.4C64.6,27.5,64.5,27.6,64.5,28z"/>
		</g>
		<g>
			<rect x="74" y="58" class="st12" width="2" height="7"/>
		</g>
		<g>
			<rect x="24" y="58" class="st12" width="2" height="7"/>
		</g>
		<g>
			<rect x="54" y="58" class="st12" width="2" height="7"/>
		</g>
	</g>
</g>
</svg>
