<?xml version="1.0" encoding="utf-8"?>
<!-- Generator: Adobe Illustrator 22.0.0, SVG Export Plug-In . SVG Version: 6.00 Build 0)  -->
<svg version="1.1" id="Слой_1" xmlns="http://www.w3.org/2000/svg" xmlns:xlink="http://www.w3.org/1999/xlink" x="0px" y="0px"
	 viewBox="0 0 80 80" style="enable-background:new 0 0 80 80;" xml:space="preserve">
<style type="text/css">
	.st0{fill:none;stroke:#000000;stroke-width:2;stroke-linecap:round;stroke-linejoin:round;stroke-miterlimit:10;}
	.st1{fill:none;stroke:#E6E6E6;stroke-linecap:round;stroke-linejoin:round;stroke-miterlimit:10;}
	.st2{fill:#E6E6E6;}
	.st3{fill:none;stroke:#E6E6E6;stroke-miterlimit:10;}
	.st4{fill:none;stroke:#000000;stroke-width:2;stroke-miterlimit:10;}
	.st5{fill:none;stroke:#000000;stroke-miterlimit:10;}
	.st6{fill:#002782;}
	.st7{fill:#00AAFF;}
	.st8{fill:#FFFFFF;stroke:#000000;stroke-miterlimit:10;}
</style>
<g id="Layer_1">
</g>
<g>
	<g>
		<path class="st6" d="M15.3,60.2l-0.9-1.8c0.1,0,2.2-1.1,11.2-3.1c8.1-1.8,14.1-1,14.3-1l-0.3,2c-0.1,0-5.9-0.7-13.7,1
			C17.4,59.2,15.4,60.2,15.3,60.2z"/>
	</g>
	<g>
		<g>
			<path class="st6" d="M25.3,63.8c-4,0-8-1.1-11.5-3.5l0.2-0.6l-0.5-0.8c5.6-8.5,18.1-10.6,27.3-4.5l0.9,0.6l-0.6,0.8
				C37.6,61,31.5,63.8,25.3,63.8z M15.8,59.2c7.6,4.6,17.8,3,23-3.7C31,50.9,20.9,52.5,15.8,59.2z"/>
		</g>
	</g>
	<g>
		<path class="st6" d="M64.9,20.4l-1.7-1.1c1.3-1.9,2-4.1,2.2-5.2c-0.8-0.6-2.6-1.6-4.8-2.4l0.6-1.9c3.4,1.1,6.5,3.4,6.5,3.4
			S66.9,17.4,64.9,20.4z"/>
	</g>
	<g>
		<path class="st6" d="M12.5,76.5h-2c0-0.2,0.5-24.7,15.6-42.3C35.7,23,40.2,23.4,40.7,23.5l-0.3,2c0,0-4-0.2-12.7,10
			C13,52.5,12.5,76.3,12.5,76.5z"/>
	</g>
	<g>
		<path class="st7" d="M50.9,32c-5.2,0-10.2-3.3-12-8.5c-2.3-6.6,1.2-13.8,7.8-16.1l13.7-5l0.3,1c1.4,4.1,1.7,8.4,0.8,12.5
			c3,2.5,5.4,6.1,6.8,10.3l0.3,1L55,31.3C53.7,31.8,52.3,32,50.9,32z M61,18c-0.2,0.8-0.5,1.5-0.9,2.2c-1.9,4.2-5,7.6-9,9.8
			c1.1,0,2.2-0.2,3.3-0.6l11.8-3.5C65,22.7,63.2,20,61,18z M59.2,5L47.5,9.2c-5.6,1.9-8.5,8-6.6,13.6c1.1,3.2,3.7,5.6,6.7,6.6
			c4.9-1.8,8.7-5.3,10.8-10C60.4,14.9,60.7,9.8,59.2,5z"/>
	</g>
</g>
</svg>
