<?xml version="1.0" encoding="utf-8"?>
<!-- Generator: Adobe Illustrator 22.0.0, SVG Export Plug-In . SVG Version: 6.00 Build 0)  -->
<svg version="1.1" id="Layer_1" xmlns="http://www.w3.org/2000/svg" xmlns:xlink="http://www.w3.org/1999/xlink" x="0px" y="0px"
	 viewBox="0 0 80 80" style="enable-background:new 0 0 80 80;" xml:space="preserve">
<style type="text/css">
	.st0{fill:#002782;}
	.st1{fill:none;}
	.st2{fill:#00AAFF;}
</style>
<path class="st0" d="M51.5,77h-23c-3.9,0-7-3.1-7-7l-6-53.9l2-0.1l6,54c-0.1,2.8,2.1,5,4.9,5.1c0,0,0.1,0,0.1,0h23c2.8,0,5-2.2,5-5
	l6-54.1l2,0.1l-6,54C58.5,73.9,55.4,77,51.5,77C51.5,77,51.5,77,51.5,77z"/>
<rect x="12.5" y="15" class="st0" width="55" height="2"/>
<path class="st0" d="M66.5,13h-53v-2c0-3.9,3.1-8,7-8h39c3.9,0,7,4.1,7,8V13z M15.5,11h49c0-2.8-2.2-6-5-6h-39
	C17.7,5,15.5,8.2,15.5,11z"/>
<path class="st1" d="M41.5,30.6c-5.7-0.9-11.1,3.1-11.9,8.8c0,0.3-0.1,0.6-0.1,0.9l19-5.4C46.9,32.6,44.4,31.1,41.5,30.6z"/>
<path class="st1" d="M49.6,36.8l-20,5.7c0.1,1.1,0.5,2.3,1,3.3l19.8-5.6C50.3,39,50,37.8,49.6,36.8z"/>
<path class="st1" d="M38.4,51.4c5.7,0.9,11.1-3.1,11.9-8.8c0-0.1,0-0.2,0-0.4l-18.6,5.3C33.4,49.6,35.8,51,38.4,51.4z"/>
<path class="st2" d="M29.6,39.4c0.8-5.7,6.1-9.7,11.9-8.9c2.9,0.4,5.5,2,7.1,4.4l2-0.6c-3.6-5.9-11.3-7.7-17.2-4.1
	c-3.2,1.9-5.3,5.2-5.8,8.9c-0.1,0.6-0.1,1.2-0.1,1.8l2-0.6C29.5,40.1,29.6,39.8,29.6,39.4z"/>
<path class="st2" d="M50.5,40.1l2-0.5c-0.1-1.2-0.4-2.3-0.9-3.4l-1.9,0.5C50.1,37.8,50.3,39,50.5,40.1z"/>
<path class="st2" d="M29.6,42.4l-2,0.5c0.2,1.1,0.5,2.3,1,3.3l2-0.6C30.1,44.7,29.7,43.6,29.6,42.4z"/>
<path class="st2" d="M50.4,42.2c0,0.1,0,0.2,0,0.4c-0.9,5.7-6.2,9.7-11.9,8.8c-2.6-0.4-5-1.8-6.7-3.9l-2,0.6
	c3.9,5.7,11.7,7.1,17.4,3.2c2.9-2,4.8-5,5.3-8.4c0.1-0.4,0.1-0.8,0.1-1.2L50.4,42.2z"/>
<path class="st2" d="M48.6,35l-19,5.4c0,0.7,0,1.4,0.1,2.1l20-5.7C49.3,36.2,49,35.6,48.6,35z"/>
<path class="st2" d="M29.5,40.4l-2,0.6c0,0.7,0,1.3,0.1,2l2-0.5C29.6,41.7,29.5,41,29.5,40.4z"/>
<path class="st2" d="M49.6,36.8l1.9-0.5c-0.3-0.6-0.6-1.2-0.9-1.8l-2,0.6C49,35.5,49.3,36.1,49.6,36.8z"/>
<path class="st2" d="M30.6,45.7c0.3,0.6,0.7,1.2,1.1,1.8l18.7-5.3c0.1-0.7,0.1-1.4,0-2.1L30.6,45.7z"/>
<path class="st2" d="M30.6,45.7l-2,0.6c0.3,0.6,0.6,1.2,1,1.8l2-0.6C31.3,46.9,30.9,46.3,30.6,45.7z"/>
<path class="st2" d="M50.4,42.2l2-0.6c0-0.7,0-1.3-0.1-2l-2,0.5C50.5,40.8,50.5,41.5,50.4,42.2z"/>
</svg>
