<?xml version="1.0" encoding="utf-8"?>
<!-- Generator: Adobe Illustrator 22.0.0, SVG Export Plug-In . SVG Version: 6.00 Build 0)  -->
<svg version="1.1" id="Layer_1" xmlns="http://www.w3.org/2000/svg" xmlns:xlink="http://www.w3.org/1999/xlink" x="0px" y="0px"
	 viewBox="0 0 80 80" style="enable-background:new 0 0 80 80;" xml:space="preserve">
<style type="text/css">
	.st0{fill:#00AAFF;}
	.st1{fill:#002782;}
</style>
<path class="st0" d="M39.6,44.5H17v-17h22.6V44.5z M19,42.5h18.6v-13H19V42.5z"/>
<path class="st0" d="M60.8,56.2H47.2V48h13.7v8.2H60.8z M49.1,54.2h9.7V50h-9.7V54.2z"/>
<path class="st0" d="M45.8,56.2H32.2V48h13.7v8.2H45.8z M34.2,54.2h9.7V50h-9.7V54.2z"/>
<path class="st0" d="M30.7,56.2H17V48h13.7V56.2z M19,54.2h9.7V50H19V54.2z"/>
<path class="st1" d="M16.7,56.2h-9c-0.6,0-1-0.4-1-1v-39c0-1.1,0.9-2,2-2h62c1.1,0,2,0.9,2,2v39h-2v-39h-62v38h8
	C16.7,54.2,16.7,56.2,16.7,56.2z"/>
<path class="st1" d="M67.7,56.2h-56v-34c0-1.1,0.9-2,2-2h52c1.1,0,2,0.9,2,2V56.2z M50.7,54.2h15v-32h-52v32H50.7z"/>
<path class="st1" d="M39.7,19.6c-0.8,0-1.5-0.7-1.5-1.5s0.7-1.5,1.5-1.5s1.5,0.7,1.5,1.5S40.5,19.6,39.7,19.6z M39.7,17.6
	c-0.3,0-0.5,0.2-0.5,0.5s0.2,0.5,0.5,0.5s0.5-0.2,0.5-0.5S40,17.6,39.7,17.6z"/>
<polygon class="st1" points="78.7,60.2 53.7,60.2 53.7,58.2 76.7,58.2 76.7,56.2 53.7,56.2 53.7,54.2 78.7,54.2 "/>
<polygon class="st1" points="56,60.2 0.7,60.2 0.7,54.2 13.7,54.2 13.7,56.2 2.7,56.2 2.7,58.2 56,58.2 "/>
<rect x="44.2" y="27.5" class="st1" width="16.8" height="2"/>
<rect x="44.2" y="31.5" class="st1" width="16.8" height="2"/>
<rect x="44.2" y="35.5" class="st1" width="16.8" height="2"/>
<rect x="44.2" y="39.5" class="st1" width="8.4" height="2"/>
</svg>
