<?xml version="1.0" encoding="utf-8"?>
<!-- Generator: Adobe Illustrator 22.0.0, SVG Export Plug-In . SVG Version: 6.00 Build 0)  -->
<svg version="1.1" id="Слой_1" xmlns="http://www.w3.org/2000/svg" xmlns:xlink="http://www.w3.org/1999/xlink" x="0px" y="0px"
	 viewBox="0 0 80 80" style="enable-background:new 0 0 80 80;" xml:space="preserve">
<style type="text/css">
	.st0{fill:#002782;}
	.st1{fill:none;stroke:#000000;stroke-width:2;stroke-linecap:round;stroke-linejoin:round;stroke-miterlimit:10;}
	.st2{fill:none;stroke:#E6E6E6;stroke-linecap:round;stroke-linejoin:round;stroke-miterlimit:10;}
	.st3{fill:#E6E6E6;}
	.st4{fill:none;stroke:#E6E6E6;stroke-miterlimit:10;}
	.st5{fill:none;stroke:#000000;stroke-width:2;stroke-miterlimit:10;}
	.st6{fill:none;stroke:#000000;stroke-miterlimit:10;}
	.st7{fill:#00AAFF;}
	.st8{fill:#FFFFFF;stroke:#000000;stroke-miterlimit:10;}
</style>
<g>
	<path class="st0" d="M71,41h-9c-0.6,0-1-0.4-1-1s0.4-1,1-1h8V19h-8c-0.6,0-1-0.4-1-1s0.4-1,1-1h9c0.6,0,1,0.4,1,1v22
		C72,40.6,71.6,41,71,41z"/>
</g>
<g>
	<path class="st0" d="M18,63H9c-0.6,0-1-0.4-1-1V40c0-0.6,0.4-1,1-1h9c0.6,0,1,0.4,1,1s-0.4,1-1,1h-8v20h8c0.6,0,1,0.4,1,1
		S18.6,63,18,63z"/>
</g>
<g>
	<path class="st0" d="M36,41H26c-0.6,0-1-0.4-1-1s0.4-1,1-1h10c0.6,0,1,0.4,1,1S36.6,41,36,41z"/>
</g>
<g>
	<path class="st0" d="M54,41H44c-0.6,0-1-0.4-1-1s0.4-1,1-1h10c0.6,0,1,0.4,1,1S54.6,41,54,41z"/>
</g>
<g>
	<path class="st0" d="M54,19H44c-0.6,0-1-0.4-1-1s0.4-1,1-1h10c0.6,0,1,0.4,1,1S54.6,19,54,19z"/>
</g>
<g>
	<path class="st0" d="M54,63H44c-0.6,0-1-0.4-1-1s0.4-1,1-1h10c0.6,0,1,0.4,1,1S54.6,63,54,63z"/>
</g>
<g>
	<path class="st0" d="M36,63H26c-0.6,0-1-0.4-1-1s0.4-1,1-1h10c0.6,0,1,0.4,1,1S36.6,63,36,63z"/>
</g>
<g>
	<g>
		<path class="st7" d="M40,23c-2.8,0-5-2.2-5-5s2.2-5,5-5s5,2.2,5,5S42.8,23,40,23z M40,15c-1.7,0-3,1.3-3,3s1.3,3,3,3s3-1.3,3-3
			S41.7,15,40,15z"/>
	</g>
	<g>
		<path class="st7" d="M40,45c-2.8,0-5-2.2-5-5s2.2-5,5-5s5,2.2,5,5S42.8,45,40,45z M40,37c-1.7,0-3,1.3-3,3s1.3,3,3,3s3-1.3,3-3
			S41.7,37,40,37z"/>
	</g>
	<g>
		<path class="st7" d="M40,67c-2.8,0-5-2.2-5-5s2.2-5,5-5s5,2.2,5,5C45,64.8,42.8,67,40,67z M40,59c-1.7,0-3,1.3-3,3s1.3,3,3,3
			s3-1.3,3-3S41.7,59,40,59z"/>
	</g>
</g>
<g>
	<g>
		<path class="st7" d="M58,45c-2.8,0-5-2.2-5-5s2.2-5,5-5s5,2.2,5,5S60.8,45,58,45z M58,37c-1.7,0-3,1.3-3,3s1.3,3,3,3s3-1.3,3-3
			S59.7,37,58,37z"/>
	</g>
	<g>
		<path class="st7" d="M58,67c-2.8,0-5-2.2-5-5s2.2-5,5-5s5,2.2,5,5C63,64.8,60.8,67,58,67z M58,59c-1.7,0-3,1.3-3,3s1.3,3,3,3
			s3-1.3,3-3S59.7,59,58,59z"/>
	</g>
	<g>
		<path class="st7" d="M58,23c-2.8,0-5-2.2-5-5s2.2-5,5-5s5,2.2,5,5S60.8,23,58,23z M58,15c-1.7,0-3,1.3-3,3s1.3,3,3,3s3-1.3,3-3
			S59.7,15,58,15z"/>
	</g>
</g>
<g>
	<g>
		<path class="st7" d="M22,45c-2.8,0-5-2.2-5-5s2.2-5,5-5s5,2.2,5,5S24.8,45,22,45z M22,37c-1.7,0-3,1.3-3,3s1.3,3,3,3s3-1.3,3-3
			S23.7,37,22,37z"/>
	</g>
	<g>
		<path class="st7" d="M22,67c-2.8,0-5-2.2-5-5s2.2-5,5-5s5,2.2,5,5C27,64.8,24.8,67,22,67z M22,59c-1.7,0-3,1.3-3,3s1.3,3,3,3
			s3-1.3,3-3S23.7,59,22,59z"/>
	</g>
</g>
</svg>
