<?xml version="1.0" encoding="utf-8"?>
<!-- Generator: Adobe Illustrator 18.1.1, SVG Export Plug-In . SVG Version: 6.00 Build 0)  -->
<svg version="1.1" id="Layer_1" xmlns="http://www.w3.org/2000/svg" xmlns:xlink="http://www.w3.org/1999/xlink" x="0px" y="0px"
	 viewBox="0 0 91 31.4" enable-background="new 0 0 91 31.4" xml:space="preserve">
<polygon fill="#FFFFFF" points="0,0 0,7.2 4,7.2 4,24.1 0,24.1 0,30.9 21.5,30.9 21.5,24.1 17.4,24.1 17.4,7.2 21.5,7.2 21.5,0 "/>
<g>
	<defs>
		<rect id="SVGID_1_" y="0" width="91" height="31.5"/>
	</defs>
	<clipPath id="SVGID_2_">
		<use xlink:href="#SVGID_1_"  overflow="visible"/>
	</clipPath>
	<path clip-path="url(#SVGID_2_)" fill="#FFFFFF" d="M22.6,7.3V14h3v10.1h-3v6.7h16.8v-6.7h-3.2v-5.8c0-2.5,1.9-4.3,4.3-4.3
		c1.9,0,3.5,1,3.5,3.1v7h-3.1v6.7h16.4v-6.6c0,0,0-0.1,0-0.1h-2.7v-8.9c0-5.7-4.2-7.8-9.3-7.8c-3.6,0-6.4,1-8.8,3.8
		c-0.2,0.2-0.4,0.5-0.6,0.6V7.3H22.6z"/>
	<path clip-path="url(#SVGID_2_)" fill="#FFFFFF" d="M71.1,7.4c-7.5,0-14.8,3.7-14.9,12c0,1.8,0.3,3.3,0.9,4.7h0v0.1
		c2.2,5,8,7.2,13.9,7.2c4.8,0,11.4-1.1,12.9-8.5l0.1-0.8l-8.7,0l-0.3,0c0,2.5-1.8,3.7-3.8,3.7c-3.9,0-4.2-3.3-4.2-6.4v-0.1v0
		c0-3.1,0.3-6.4,4.2-6.4c3.1,0,3.6,2.7,3.7,5.2l9.1-1C83,8,73.9,7.4,71.6,7.4C71.3,7.4,71.1,7.4,71.1,7.4"/>
	<path clip-path="url(#SVGID_2_)" fill="#FFFFFF" d="M57.2,24.1c0,0,0,0.1,0,0.1L57.2,24.1L57.2,24.1z"/>
</g>
<polygon fill="#FFFFFF" points="56.3,19.4 56.3,19.4 56.3,19.4 "/>
<g>
	<defs>
		<rect id="SVGID_3_" y="0" width="91" height="31.5"/>
	</defs>
	<clipPath id="SVGID_4_">
		<use xlink:href="#SVGID_3_"  overflow="visible"/>
	</clipPath>
	<path clip-path="url(#SVGID_4_)" fill="#FFFFFF" d="M83.4,27.1c0,2.1,1.7,3.8,3.8,3.8c2.1,0,3.8-1.7,3.8-3.8c0-2.1-1.7-3.8-3.8-3.8
		C85.1,23.3,83.4,25,83.4,27.1"/>
</g>
</svg>
