<?xml version="1.0" encoding="utf-8"?>
<!-- Generator: Adobe Illustrator 22.0.0, SVG Export Plug-In . SVG Version: 6.00 Build 0)  -->
<svg version="1.1" id="Layer_1" xmlns="http://www.w3.org/2000/svg" xmlns:xlink="http://www.w3.org/1999/xlink" x="0px" y="0px"
	 viewBox="0 0 80 80" style="enable-background:new 0 0 80 80;" xml:space="preserve">
<style type="text/css">
	.st0{fill:none;stroke:#002782;stroke-width:2;stroke-miterlimit:10;}
	.st1{fill:none;stroke:#002782;stroke-width:2;stroke-linecap:round;stroke-miterlimit:10;}
	.st2{fill:none;stroke:#00AAFF;stroke-width:2;stroke-linecap:round;stroke-miterlimit:10;}
</style>
<path class="st0" d="M58.8,20.4v48.2c0,3.3-2.7,6-6,6H17.4c-3.3,0-5.9-2.7-5.9-6V20.7"/>
<path class="st0" d="M71.8,29.7v20.9c-0.1,3.4-2.6,6-5.4,5.9h-7.6V23.9h7.6C69.2,23.8,71.7,26.4,71.8,29.7z"/>
<line class="st1" x1="24" y1="42.2" x2="24" y2="61.2"/>
<line class="st1" x1="46.2" y1="29.2" x2="46.2" y2="61.2"/>
<line class="st1" x1="35.2" y1="29.2" x2="35.2" y2="61.2"/>
<path class="st0" d="M58.8,28.9h7.1c0.9,0,1.6,0.7,1.6,1.6v19.3c0,0.9-0.7,1.6-1.6,1.6h-7.1l0,0L58.8,28.9L58.8,28.9z"/>
<path class="st2" d="M58.8,19.8v0.6h-29c-0.9,3.2-3.4,5-6.8,5.9c-1.2,0.3-3.8,0.2-5.3-0.3c-3.4-1.2-6.1-3.9-6.2-7.5l0,0
	c0-4,2.7-7.5,6.6-8.4c1.9-0.4,2.8-0.3,4.1-0.1c2.1-5.3,8.1-7.9,13.4-5.8c2.9,1.1,5.1,3.5,6,6.5c1.8-1.5,4.1-2.3,6.4-2.3
	C54,8.4,58.8,13.5,58.8,19.8z"/>
<line class="st0" x1="11.5" y1="67.8" x2="58.8" y2="67.8"/>
<path class="st2" d="M25,34.7c0,1.5-1.2,2.7-2.7,2.7s-2.7-1.2-2.7-2.7s1.2-4.4,2.7-4.4S25,33.2,25,34.7z"/>
</svg>
