<?xml version="1.0" encoding="utf-8"?>
<!-- Generator: Adobe Illustrator 21.1.0, SVG Export Plug-In . SVG Version: 6.00 Build 0)  -->
<svg version="1.1" id="Layer_1" xmlns="http://www.w3.org/2000/svg" xmlns:xlink="http://www.w3.org/1999/xlink" x="0px" y="0px"
	 viewBox="0 0 1207 653" style="enable-background:new 0 0 1207 653;" xml:space="preserve">
<style type="text/css">
	.st0{fill:#FFFFFF;}
	.st1{fill:#1E2C18;}
	.st2{fill:#535B5C;}
	.st3{fill:#262B64;}
	.st4{fill:#F4EBD2;}
	.st5{fill:#F4EBD2;stroke:#1E2C18;stroke-width:3;stroke-miterlimit:10;}
	.st6{fill:#A08041;}
	.st7{fill:#6B9C95;}
	.st8{fill:#D4D8CC;}
	.st9{fill:#FFFFFF;stroke:#1E2C18;stroke-width:3.5688;stroke-miterlimit:10;}
	.st10{clip-path:url(#SVGID_2_);fill:#FFFFFF;}
	.st11{fill:#7873B3;}
	.st12{fill:#A08041;stroke:#1E2C18;stroke-width:3.1426;stroke-miterlimit:10;}
	.st13{fill:#FFFFFF;stroke:#1E2C18;stroke-width:4.0957;stroke-miterlimit:10;}
	.st14{opacity:0.1;}
	.st15{fill:#1E2C18;stroke:#7873B3;stroke-width:3.5688;stroke-miterlimit:10;}
</style>
<g id="XMLID_570_">
	<polygon class="st0" points="1145.6,575.1 1203.3,502.2 1137.2,502.2 1069.7,575.1 	"/>
	<path class="st1" d="M1146.4,576.9h-80.8l70.8-76.4h70.5L1146.4,576.9z M1073.8,573.3h70.9l54.8-69.3H1138L1073.8,573.3z"/>
</g>
<g id="XMLID_569_">
	<path class="st2" d="M1145.6,567.2l58.3-71.7c0.3-0.4,0-1-0.5-1l-66.2-0.2l-67.5,72.8H1145.6z"/>
	<path class="st3" d="M1145.6,568.9h-75.9c-0.7,0-1.3-0.4-1.6-1s-0.2-1.4,0.3-1.9l67.5-72.8c0.3-0.4,0.8-0.6,1.3-0.6c0,0,0,0,0,0
		l66.2,0.2c0.9,0,1.7,0.5,2.1,1.3c0.4,0.8,0.3,1.8-0.3,2.5l-58.3,71.7C1146.6,568.7,1146.1,568.9,1145.6,568.9z M1073.7,565.4h71
		l56.2-69.1l-63-0.2L1073.7,565.4z M1203.4,496.3C1203.4,496.3,1203.4,496.3,1203.4,496.3L1203.4,496.3z"/>
</g>
<g id="XMLID_568_">
	<path class="st0" d="M1085.6,195.2l-7-4.5l-29-63.3c-2.5-4.1-13.5-7.5-18.4-7.3l-24.8,0l-13.7,70.6"/>
	<path class="st3" d="M1084.6,196.7l-7.5-4.8l-29.1-63.6c-2.1-3.1-12-6.6-16.7-6.4l-23.4,0L994.5,191l-3.5-0.7l13.9-72l26.3,0
		c4.8-0.2,16.8,3.2,19.9,8.2l0.1,0.2l28.7,62.8l6.6,4.2L1084.6,196.7z"/>
</g>
<g id="XMLID_567_">
	<path class="st4" d="M993,128.1c0,0,2.5-7.8-0.8-12.5s2.7-15.6,3.4-17.2c0.7-1.6,1.7,9.3,4.5,12c2.8,2.7,6.8,5.4,6.8,5.4l-1.6,13.6
		L993,128.1z"/>
	<path class="st3" d="M1006.7,131.1l-15.7-1.7l0.6-1.8c0-0.1,2.2-7.1-0.6-11.2c-3-4.3-0.1-11.7,2.8-17.7c0.2-0.4,0.4-0.8,0.4-1
		c0.4-0.9,1.1-1.1,1.7-1.1c1.3,0.1,1.6,1.1,2.3,4.2c0.6,2.7,1.7,7.1,3,8.4c2.7,2.6,6.6,5.3,6.6,5.3l0.7,0.5L1006.7,131.1z
		 M994.9,126.8l9.2,1l1.3-11.2c-1.3-0.9-4.1-3-6.2-5.1c-1.7-1.7-2.7-5.2-3.7-9.1c-2.7,6.2-3.4,10.4-2,12.4
		C996.1,118.6,995.4,124,994.9,126.8z"/>
</g>
<g id="XMLID_566_">
	<path class="st4" d="M1017.3,102.6l13.9,17.5c0,0-9.6,5-13.8,4.9c-4.3-0.1-8.2-2.4-8.2-2.4l-4.8-11.7L1017.3,102.6z"/>
	<path class="st3" d="M1017.5,126.5c-0.1,0-0.1,0-0.2,0c-4.6-0.1-8.7-2.5-8.9-2.6l-0.4-0.3l-5.4-13.3l15.1-9.8l15.9,20l-1.6,0.8
		C1030.9,122,1022.1,126.5,1017.5,126.5z M1010.4,121.6c1.1,0.5,4,1.9,7,2c0,0,0.1,0,0.1,0c2.7,0,8.2-2.4,11.4-3.9l-11.9-15
		l-10.7,6.9L1010.4,121.6z"/>
</g>
<g id="XMLID_565_">
	<path class="st4" d="M998.7,110.5c0,0-4.4-4.5-4.7-10.7s0-15.6,0-15.6s4.8-8.1,10.1-8.5c5.3-0.5,14,3.2,17.3,6s3.7,12,2.8,16.8
		c-1,4.8-2.2,11.5-5.2,12.7c-3,1.2-11.7,4.8-11.7,4.8L998.7,110.5z"/>
	<path class="st3" d="M1007.1,117.6l-9.5-6.1c-0.2-0.2-4.8-5-5.2-11.7c-0.4-6.2,0-15.3,0-15.7l0-0.4l0.2-0.3
		c0.2-0.4,5.3-8.7,11.3-9.3c5.9-0.5,15,3.5,18.4,6.3c3.9,3.3,4.2,13.5,3.3,18.3l-0.1,0.3c-1.1,5.4-2.4,12-6.1,13.5
		c-2.9,1.1-11.6,4.7-11.6,4.8L1007.1,117.6z M999.7,109.4l7.7,4.9c2.2-0.9,8.5-3.5,11-4.5c2.2-0.8,3.5-7.6,4.2-11.3l0.1-0.3
		c0.9-4.5,0.3-13.2-2.3-15.4c-3-2.5-11.4-6-16.2-5.6c-3.5,0.3-7.3,5.2-8.7,7.5c-0.1,1.8-0.3,9.7,0,15
		C995.8,104.7,999.1,108.6,999.7,109.4z"/>
</g>
<g id="XMLID_564_">
	<ellipse class="st3" cx="998.7" cy="100.2" rx="1.7" ry="1.6"/>
</g>
<g id="XMLID_563_">
	<ellipse class="st3" cx="1010.5" cy="98.6" rx="1.7" ry="1.6"/>
</g>
<g id="XMLID_562_">
	<path class="st0" d="M991.2,127.9c-1.6-0.3-3.1,0.8-3.3,2.2l-4.7,48.4c-0.6,6.2,4.5,11.6,11.5,12.2h0c7.1,0.6,10.4-4.5,11-10.8
		l-1.3-49.9L991.2,127.9z"/>
	<path class="st3" d="M995.9,192.6c-0.4,0-0.9,0-1.3-0.1c-4.1-0.4-7.8-2.3-10.3-5.2c-2.1-2.6-3.2-5.8-2.8-9l4.7-48.4
		c0.1-1.1,0.7-2.2,1.6-2.9c1-0.8,2.4-1.1,3.7-0.9l14.7,2.4l1.3,51.5l0,0.1C1006.7,188.1,1002.4,192.6,995.9,192.6z M990.7,129.7
		c-0.3,0-0.5,0.1-0.7,0.2c-0.1,0.1-0.2,0.2-0.3,0.4l-4.7,48.4c-0.2,2.3,0.5,4.5,2,6.4c1.8,2.2,4.7,3.6,7.8,3.9
		c7,0.6,8.7-5.4,9.1-9.1l-1.3-48.3l-11.8-1.9C990.8,129.7,990.8,129.7,990.7,129.7z"/>
</g>
<g id="XMLID_561_">
	<path class="st0" d="M1052.3,126.9c-1.4-0.9-3-1.5-4.5-1.7c-6-1-11.8,2.8-13.3,8.3l-7,25.2c-0.4,0.6-1.4,0.6-1.8-0.1l-10.7-28.1
		c-0.4-1.2-1.8-1.8-3.1-1.4l-11.3,3.8c-1.3,0.4-2,1.8-1.5,3l18.4,49c0.1,0.2,0.2,0.5,0.3,0.7c1.4,3.2,6.6,5.2,10.3,5.1
		c5.6-0.2,8.6-4.5,10.8-9.4L1056,142C1059.2,136.8,1057.6,130.2,1052.3,126.9z"/>
	<path class="st3" d="M1027.7,192.6c-4.3,0-9.9-2.4-11.6-6.2c-0.1-0.3-0.2-0.5-0.3-0.8l-18.4-49c-0.4-1-0.3-2.1,0.1-3.1
		c0.5-1,1.4-1.8,2.5-2.2l11.3-3.8c2.2-0.7,4.5,0.4,5.3,2.4l9.8,25.8l6.3-22.7c1.8-6.5,8.6-10.7,15.3-9.6c1.9,0.3,3.6,1,5.2,2
		c6.1,3.8,8,11.4,4.4,17.4l-17.3,39.4c-1.9,4.4-5.3,10.2-12.4,10.4C1027.9,192.6,1027.8,192.6,1027.7,192.6z M1012.6,130.8
		c-0.1,0-0.2,0-0.2,0l-11.3,3.8c-0.3,0.1-0.4,0.2-0.4,0.3c-0.1,0.1-0.1,0.2,0,0.3l18.4,49c0.1,0.2,0.2,0.4,0.2,0.6
		c1.1,2.4,5.6,4.2,8.6,4.1c3.9-0.1,6.7-2.6,9.2-8.3l17.4-39.7c2.7-4.3,1.3-9.9-3.2-12.6v0c-1.2-0.7-2.5-1.2-3.9-1.5
		c-5-0.9-9.9,2.2-11.3,7l-7.1,25.5l-0.2,0.2c-0.5,0.8-1.5,1.3-2.5,1.3c-1-0.1-1.9-0.6-2.4-1.5l-0.1-0.2l-10.7-28.1
		C1013.2,131,1012.9,130.8,1012.6,130.8z"/>
</g>
<g id="XMLID_560_">
	<path class="st5" d="M1030.7,94.3"/>
</g>
<g id="XMLID_559_">
	<path class="st6" d="M991.1,84.6c0,0,2.7-8.3,12.5-11.1s22.6,5,26.1,6.5c3.4,1.4,5.9,11.2,11,15.8c5.1,4.6,5.6,4.3,12.9,9.2
		c7.2,4.9,9.4,8.4,9.3,15.7s8.1,9.3,10.6,13.9c0.3,0.5,0.5,1,0.6,1.7c2,9.3-8.4,20.9-14,13.6c-1.6-2-3-6.2-3.2-6.7
		c-2.1-8.4-5.6-15.6-10.9-19.3s-13.3-0.8-15.4-5.2c-2.1-4.3-8.7-8.7-9.1-10.7s-0.1-6.3-2.2-11.3s-8.3-10.1-15.1-9.7
		c-2.8,0.2-6.1,1.7-8.9,1.7C993,88.7,991.1,86.9,991.1,84.6L991.1,84.6z"/>
	<path class="st3" d="M1064.3,153.9c-2.1,0-4.1-1-5.6-3c-1.8-2.3-3.3-6.6-3.5-7.3c-2.2-8.8-5.7-15.1-10.2-18.3
		c-2.1-1.5-4.8-1.7-7.4-2c-3.4-0.3-6.9-0.7-8.5-3.8c-1-2.1-3.4-4.4-5.3-6.2c-2.1-2-3.6-3.5-3.9-4.9c-0.1-0.6-0.2-1.4-0.3-2.2
		c-0.2-2.2-0.4-5.3-1.9-8.7c-1.9-4.4-7.5-9-13.4-8.7c-1.2,0.1-2.5,0.4-3.9,0.8c-1.7,0.4-3.4,0.9-5.1,0.9c-1.6,0-3.2-0.6-4.4-1.7
		c-1.1-1.1-1.7-2.5-1.7-4.1v-0.3l0.1-0.3c0.1-0.4,3.1-9.2,13.7-12.2c8.9-2.5,19.7,2.9,25,5.5c0.9,0.5,1.7,0.9,2.2,1.1
		c2.3,0.9,3.9,4,5.8,7.5c1.6,3,3.4,6.5,5.8,8.6c3.3,3,4.6,3.8,7.4,5.6c1.3,0.8,3,1.9,5.3,3.5c7.8,5.3,10.2,9.3,10.1,17.2
		c0,3.7,2.7,5.9,5.5,8.1c1.8,1.4,3.8,2.9,4.9,4.9c0.4,0.6,0.6,1.4,0.8,2.2c1.5,7-3.1,14.9-8.2,17.2
		C1066.5,153.6,1065.4,153.9,1064.3,153.9z M1005,85.2c7.2,0,13.7,5.4,16,10.8c1.7,3.9,2,7.5,2.2,9.8c0.1,0.8,0.1,1.4,0.2,1.9
		c0.2,0.5,1.8,2,2.9,3.1c2.1,2,4.8,4.6,6.1,7.2c0.7,1.4,2.6,1.6,5.7,1.9c3,0.3,6.3,0.6,9.1,2.6c5.1,3.6,9.1,10.7,11.6,20.3
		c0.1,0.5,1.5,4.3,2.8,6c1.3,1.6,2.8,2,4.6,1.2c3.7-1.7,7.4-8,6.2-13.3c-0.1-0.5-0.2-0.9-0.4-1.2c-0.8-1.4-2.3-2.6-4-3.9
		c-3.1-2.4-6.9-5.4-6.9-10.9c0.1-6.6-1.7-9.6-8.6-14.2c-2.3-1.6-3.9-2.6-5.2-3.4c-2.8-1.8-4.3-2.7-7.8-6c-2.8-2.5-4.7-6.2-6.5-9.5
		c-1.4-2.6-2.9-5.5-4-5.9c-0.6-0.3-1.4-0.7-2.5-1.2c-4.8-2.4-14.9-7.4-22.5-5.2c-7.8,2.2-10.7,8.2-11.2,9.6c0.1,0.5,0.3,0.9,0.7,1.3
		c0.5,0.5,1.1,0.7,1.8,0.7c1.3,0,2.7-0.4,4.2-0.8c1.5-0.4,3.1-0.8,4.6-0.9C1004.4,85.2,1004.7,85.2,1005,85.2z"/>
</g>
<g id="XMLID_558_">
	<path class="st4" d="M1003.2,132.3c0,0-6.3-7.9-3.3-12.9s3.4-2.1,9.3-6s5.8-9.7,8.2-9s2.9,4.8,0,7.8c-2.9,3.1-5.9,11.9-3.3,16.2
		L1003.2,132.3z"/>
	<path class="st3" d="M1002.6,134.1l-0.7-0.8c-0.3-0.4-7-8.7-3.4-14.6c2-3.3,3.2-3.7,5.1-4.3c1.1-0.3,2.4-0.7,4.7-2.2
		c2.9-1.9,4.2-4.3,5.2-6.1c0.9-1.7,2-3.7,4.2-3c1.4,0.4,2.4,1.6,2.9,3.2c0.6,2.3-0.2,5.1-2.2,7.1c-2.7,2.8-5.2,10.9-3.1,14.3l1,1.6
		L1002.6,134.1z M1017.1,106c-0.2,0.3-0.6,1-0.9,1.5c-1,2-2.6,4.9-6.2,7.2c-2.7,1.7-4.3,2.2-5.5,2.5c-1.4,0.4-1.9,0.5-3.3,2.9
		c-1.8,3,0.8,7.9,2.5,10.3l8.4-2.9c-1.7-5.3,1.4-13.4,4.2-16.3c1.5-1.6,1.7-3.3,1.5-4.3C1017.7,106.7,1017.5,106.2,1017.1,106z"/>
</g>
<g id="XMLID_557_">
	<path class="st4" d="M1005.8,95.3c0,0,3-3.7,7.2-1"/>
	<path class="st3" d="M1006.9,96.3l-2.3-1.9c1.3-1.7,4.9-4.1,9.2-1.4l-1.6,2.5C1009.2,93.7,1007.3,95.8,1006.9,96.3z"/>
</g>
<g id="XMLID_556_">
	<path class="st4" d="M993.8,96.6c0,0,3-3.7,7.2-1"/>
	<path class="st3" d="M995,97.5l-2.4-1.9c1.3-1.7,4.9-4.1,9.2-1.4l-1.6,2.5C997.2,94.8,995.1,97.4,995,97.5z"/>
</g>
<g id="XMLID_555_">
	<line class="st7" x1="1001.1" y1="141.3" x2="1016.7" y2="135.4"/>
	<path class="st3" d="M1001.1,143c-0.7,0-1.4-0.4-1.6-1.1c-0.3-0.9,0.1-1.9,1-2.3l15.7-5.9c0.9-0.3,1.9,0.1,2.3,1
		c0.3,0.9-0.1,1.9-1,2.3l-15.7,5.9C1001.5,143,1001.3,143,1001.1,143z"/>
</g>
<g id="XMLID_554_">
	<line class="st7" x1="987.3" y1="136.9" x2="1000.1" y2="138.9"/>
	<path class="st3" d="M1000.1,140.6c-0.1,0-0.2,0-0.3,0l-12.8-1.9c-1-0.1-1.6-1-1.5-2c0.1-1,1-1.6,2-1.5l12.8,1.9c1,0.1,1.6,1,1.5,2
		C1001.7,140,1000.9,140.6,1000.1,140.6z"/>
</g>
<g id="XMLID_553_">
	<path class="st4" d="M813.6,127.7c0,0,3.2-4.6,2.7-9.5c-0.5-4.9-9.5-9.5-9.8-18.2c-0.3-8.7-0.5-3.5,0.2-7c0.6-3.5,3.2-12.2,7-14.4
		c3.8-2.2,17.6-2.3,21.2,1.8c3.5,4,5.7,13.2,4,19.3s-1.1,10.5-3.5,12.8c-2.4,2.3,0.5,9.6,0.5,9.6l-9.3,12.6L813.6,127.7z"/>
	<path class="st3" d="M826.9,136.7l-15.6-8.5l1-1.4c0,0,2.9-4.2,2.5-8.4c-0.2-1.6-1.7-3.4-3.5-5.5c-2.7-3.2-6.1-7.2-6.3-12.8
		c-0.1-3.1-0.2-4.4-0.2-5c0-0.5-0.1-1,0.2-1.4c0-0.1,0.1-0.4,0.2-0.9c0-0.1,2.4-12.3,7.8-15.4c2.6-1.5,7.8-1.8,11.5-1.6
		c3.2,0.2,9,0.8,11.5,3.7c4,4.6,6.1,14.5,4.3,20.7c-0.6,2.2-0.9,4.2-1.2,6c-0.5,3.2-0.9,5.7-2.7,7.4c-1,0.9-0.3,4.9,0.9,8l0.3,0.8
		L826.9,136.7z M815.7,127.1l10.4,5.7l8.1-10.9c-0.8-2.3-2.4-8,0.2-10.5c1.1-1,1.4-3,1.8-5.7c0.3-1.9,0.6-4,1.3-6.4
		c1.6-5.9-0.6-14.4-3.7-17.9c-2.9-3.3-15.8-3.4-19.3-1.5c-3.1,1.7-5.6,9.5-6.3,13.3c-0.1,0.8-0.3,1.3-0.4,1.6c0,0,0,0,0,0
		c0,0.6,0.1,2,0.3,5.1c0.2,4.5,3.1,7.9,5.6,11c2,2.4,3.9,4.6,4.2,7.1C818.2,121.8,816.7,125.2,815.7,127.1z"/>
</g>
<g id="XMLID_552_">
	<path class="st0" d="M885.2,156.8c0,0-21.9-28.4-30.8-30.1c-8.9-1.8-24.1,6.2-27.9,8.1s-24.3,0.5-32.6,6.6
		c-8.3,6.1-15.5,50-15.5,50h103.2L885.2,156.8z"/>
	<path class="st3" d="M883.2,193.1H776.3l0.3-2.1c0.8-4.6,7.6-44.8,16.2-51.1c5.8-4.2,16.6-5,24.5-5.6c3.6-0.3,7.4-0.6,8.4-1.1
		l0.3-0.2c4.8-2.5,19.5-9.9,28.8-8.1c9.2,1.8,29.5,27.8,31.8,30.8l0.4,0.6L883.2,193.1z M780.5,189.5h99.5l3.4-32.2
		c-8.7-11.2-23.4-27.7-29.3-28.9c-5.3-1.1-14.2,1.6-26.4,7.8l-0.3,0.2c-1.6,0.8-4.6,1.1-9.7,1.5c-7.5,0.6-17.7,1.3-22.6,4.9
		C789.5,146.7,783.5,172.1,780.5,189.5z"/>
</g>
<g id="XMLID_551_">
	<path class="st8" d="M659.3,599.6l40.1-51.2V173.2c0-0.2-0.2-0.3-0.3-0.2l-41.9,18.5v407.4C657.2,599.9,658.6,600.4,659.3,599.6z"
		/>
	<path class="st3" d="M658.4,601.8c-0.3,0-0.7-0.1-1-0.2c-1.2-0.4-2-1.5-2-2.8V190.3l42.9-18.9c0.6-0.3,1.3-0.2,1.9,0.2
		c0.6,0.4,0.9,1,0.9,1.7V549l-40.5,51.7C660.1,601.4,659.2,601.8,658.4,601.8z M659,192.6V597l38.6-49.3V175.6L659,192.6z"/>
</g>
<g id="XMLID_550_">
	<path class="st8" d="M1130.3,583.6H46.1v-379c0-0.5,0.4-0.9,0.9-0.9h1086.6l-2,378.6C1131.6,583,1131,583.6,1130.3,583.6z"/>
	<path class="st3" d="M1130.3,585.4H44.3V204.6c0-1.5,1.2-2.7,2.7-2.7h1088.4l0,1.8l-2,378.6C1133.3,584,1132,585.4,1130.3,585.4z
		 M47.9,581.8h1081.9l2-376.3H47.9V581.8z"/>
</g>
<g id="XMLID_549_">
	<path class="st0" d="M639.4,190.6l47.8-18.9h12.2c0.5,0,0.7,0.7,0.2,0.9l-42.4,18.3l-17.8,0C639.2,190.9,639.2,190.7,639.4,190.6z"
		/>
	<path class="st3" d="M657.6,192.7l-18.2,0c-1,0-1.7-0.7-1.9-1.6c-0.2-0.9,0.3-1.8,1.2-2.1l0,0l48.1-19h12.5c1.1,0,2,0.7,2.2,1.8
		c0.2,1-0.3,2.1-1.3,2.5L657.6,192.7z M640,192.3L640,192.3L640,192.3z M648,189.1l8.9,0l36.2-15.7h-5.5L648,189.1z"/>
</g>
<g id="XMLID_548_">
	<polygon class="st2" points="2.2,636.7 1086.8,636.7 1134.6,577.9 47.5,577.7 	"/>
	<path class="st3" d="M1086.8,638.5H2.2c-0.7,0-1.3-0.4-1.6-1s-0.2-1.3,0.2-1.8l45.3-59c0.3-0.4,0.8-0.7,1.4-0.7c0,0,0,0,0,0
		l1087.1,0.2c0.7,0,1.3,0.4,1.6,1s0.2,1.3-0.2,1.9l-47.8,58.8C1087.9,638.2,1087.4,638.5,1086.8,638.5z M5.8,635H1086l45-55.3
		L48.4,579.5L5.8,635z"/>
</g>
<g id="XMLID_547_">
	<path class="st0" d="M1133.6,203.7H46.1c-0.7,0,22.8-12,22.8-12c0.6-0.3,1.3-0.4,2-0.4h1074.2
		C1145.4,191.3,1133.6,203.7,1133.6,203.7z"/>
	<path class="st3" d="M1134.3,205.5H44.7l-0.3-1.4c-0.4-1.6-0.4-1.6,12.3-8.1c5.7-3,11.5-5.9,11.5-5.9l0.1,0
		c0.9-0.4,1.8-0.6,2.7-0.6h1075.4l0.5,1.1c0.5,1.2,0.5,1.2-6.1,8.2c-2.9,3.1-5.8,6.2-5.8,6.2L1134.3,205.5z M53,201.9h1079.8
		c2.6-2.7,6-6.4,8.4-8.9H71c-0.4,0-0.9,0.1-1.3,0.3C64.7,195.8,57.9,199.4,53,201.9z"/>
</g>
<g id="XMLID_546_">
	<path class="st9" d="M431.9,446"/>
</g>
<g id="XMLID_545_">
	<path class="st8" d="M1086.8,650.6H3.9c-0.9,0-1.7-0.8-1.7-1.7V639c0-1.3,1-2.3,2.3-2.3h1082.3V650.6z"/>
	<path class="st3" d="M1088.6,652.4H3.9c-1.9,0-3.5-1.6-3.5-3.5V639c0-2.2,1.8-4.1,4.1-4.1h1084.1V652.4z M4,648.8h1081v-10.3H4.5
		c-0.3,0-0.5,0.2-0.5,0.5V648.8z"/>
</g>
<g id="XMLID_544_">
	<g>
		<defs>
			<path id="SVGID_1_" d="M893.9,282.7"/>
		</defs>
		<clipPath id="SVGID_2_">
			<use xlink:href="#SVGID_1_"  style="overflow:visible;"/>
		</clipPath>
		<path class="st10" d="M893.9,282.7L893.9,282.7L893.9,282.7z"/>
		<path class="st10" d="M893.9,282.7L893.9,282.7z"/>
		<path class="st10" d="M893.9,282.7L893.9,282.7z"/>
		<path class="st10" d="M893.9,282.7L893.9,282.7z"/>
		<path class="st10" d="M893.9,282.7L893.9,282.7z"/>
	</g>
</g>
<g id="XMLID_543_">
	<path class="st4" d="M887.6,279.1c0,0,3.9,3.7,6.2,3.6"/>
	<path class="st1" d="M893.8,284.2c-2.8,0-6.4-3.3-7.2-4l2.1-2.2c1.7,1.6,4.1,3.2,5.1,3.2l0.2,3
		C893.9,284.2,893.8,284.2,893.8,284.2z"/>
</g>
<g id="XMLID_542_">
	<path class="st1" d="M893.1,283.7c0,0-6.3-1.7-7.4-2.8"/>
</g>
<g id="XMLID_541_">
	<rect x="1017.4" y="534" class="st0" width="50.1" height="25.4"/>
</g>
<g id="XMLID_540_">
	<circle class="st8" cx="1030.2" cy="546.7" r="8.6"/>
</g>
<g id="XMLID_539_">
	<circle class="st11" cx="1053.3" cy="546.7" r="8.6"/>
</g>
<g id="XMLID_536_">
	<g id="XMLID_538_">
		<circle class="st0" cx="1026.1" cy="546.5" r="2.1"/>
	</g>
	<g id="XMLID_537_">
		<circle class="st0" cx="1034.4" cy="546.5" r="2.1"/>
	</g>
</g>
<g id="XMLID_535_">
	<path class="st11" d="M1052,544c-0.4,0-0.7-0.1-1.1-0.4c-0.7-0.6-17.8-14-18.9-39.9c-0.8-19.3-24.6-36.1-43.7-49.7
		c-4.9-3.5-9.5-6.8-13.3-9.8c-9.9-7.9-12.4-16.8-12.7-22.9c-0.4-6.6,1.6-11.3,1.7-11.5c0.4-0.9,1.4-1.3,2.3-0.9
		c0.9,0.4,1.3,1.4,0.9,2.3c-0.3,0.7-6.9,16.8,10,30.2c3.7,2.9,8.3,6.2,13.1,9.6c19.7,14,44.3,31.4,45.2,52.4
		c1,24.2,17.4,37.1,17.6,37.3c0.8,0.6,0.9,1.7,0.3,2.5C1053,543.8,1052.5,544,1052,544z"/>
</g>
<g id="XMLID_534_">
	<rect x="201.4" y="531.7" class="st0" width="50.1" height="25.4"/>
</g>
<g id="XMLID_533_">
	<circle class="st8" cx="214.3" cy="544.4" r="8.6"/>
</g>
<g id="XMLID_532_">
	<circle class="st11" cx="237.4" cy="544.4" r="8.6"/>
</g>
<g id="XMLID_529_">
	<g id="XMLID_531_">
		<circle class="st0" cx="210.1" cy="544.2" r="2.1"/>
	</g>
	<g id="XMLID_530_">
		<circle class="st0" cx="218.4" cy="544.2" r="2.1"/>
	</g>
</g>
<g id="XMLID_528_">
	<path class="st11" d="M243.2,546.3c-1.3,0-2.6-0.1-3.8-0.2c-1-0.1-1.7-1-1.6-1.9c0.1-1,1-1.7,1.9-1.6c11.7,1.2,27.6-4.2,36.3-12.3
		c3.6-3.3,6.1-12.5,7.3-26c0.9-11.2,0.6-22.8-0.3-27.6c-4.7-26.1,1.7-46.3,18.5-58.5c0.8-0.6,1.9-0.4,2.4,0.4
		c0.6,0.8,0.4,1.9-0.4,2.4c-15.8,11.5-21.6,30-17.1,55c1.6,9,1.9,47.5-8.1,56.8C269.9,541,255.4,546.3,243.2,546.3z"/>
</g>
<g id="XMLID_527_">
	<rect x="628.4" y="567.2" class="st0" width="501.2" height="11.2"/>
</g>
<g id="XMLID_526_">
	<rect x="47.8" y="565.5" class="st0" width="518.3" height="11.2"/>
</g>
<g id="XMLID_525_">
	<path class="st4" d="M901.8,142.2c0,0,3.5-4.9,3.5-7.3c0-2.3-3.4-8-3.5-11.7c0-0.2-0.3-0.4-0.5-0.2c-0.9,0.7-1.5,0.5-2.9-0.9
		c-2.1-2.2-1.5-11.6,2.4-11.2c0.3,0,0.6-0.2,0.6-0.5c0.1-1.8,0.4-7,2.3-10.2c2.4-3.9,10.4-8.9,18-6.7c7.6,2.2,13.7,5.9,13.7,16v3.1
		c0,0.4,0.4,0.7,0.8,0.7c1.5-0.2,3.4-0.3,2.5,4.9c-1,5.7-2.3,8.4-5.3,5.4c0,0-0.1,0-0.1,0c-0.4,1.1-3,9.2-5.6,11.8
		c0,0-2,3.5,0.2,6.8l-13,9L901.8,142.2z"/>
	<path class="st3" d="M914.8,153l-15.1-10.4l0.9-1.2c1.3-1.9,3.2-5.1,3.2-6.4c0-0.7-0.7-2.5-1.3-4.1c-0.8-1.9-1.6-4-2-5.9
		c-1.4,0.1-2.6-1.2-3.2-1.8c-2.1-2.2-2-8-0.5-11.1c0.9-1.8,2.1-2.4,3.1-2.6c0.1-2.5,0.7-7,2.5-10c2.8-4.5,11.4-9.7,19.7-7.4
		c13.1,3.7,14.8,11.3,14.8,17.5v2.2c0.8,0,1.7,0.1,2.5,0.9c1.1,1.1,1.3,2.9,0.8,5.8c-0.8,4.3-1.7,7.1-3.8,7.7
		c-0.9,0.3-1.7,0.1-2.4-0.3c-1.1,3.1-3,8-5.2,10.3c-0.3,0.6-1.2,2.9,0.2,5.1l0.8,1.2L914.8,153z M903.9,141.8l10.9,7.5l11.1-7.6
		c-1.5-3.6,0.4-6.9,0.5-7.1l0.2-0.3c1.9-1.9,4.2-7.9,5.2-11.2l0.3-0.8l0.9-0.3c0.5-0.1,1.1,0,1.5,0.4c0.8,0.8,1.1,0.8,1.1,0.8
		c0.1-0.1,0.8-0.7,1.7-5.4c0.5-2.7,0-3.2,0-3.2c0,0-0.2,0-0.8,0.1c-0.6,0.1-1.3-0.1-1.7-0.5c-0.5-0.4-0.8-1-0.8-1.6v-3.1
		c0-9.7-6-12.7-12.6-14.6c-7-2-14.4,2.9-16.3,6.1c-1.8,2.9-2.1,7.9-2.1,9.4c0,0.6-0.3,1.1-0.7,1.5c-0.4,0.4-1,0.6-1.6,0.5
		c-0.4,0-0.7,0.3-1.1,1c-1.2,2.4-0.9,6.7,0,7.7c0.4,0.5,0.7,0.7,0.8,0.8c0,0,0,0,0,0c0.5-0.4,1.2-0.5,1.9-0.2c0.6,0.3,1,0.9,1,1.6
		c0.1,1.8,1.1,4.3,2,6.6c0.9,2.2,1.6,3.9,1.6,5.2C906.8,137,905.1,140.1,903.9,141.8z M934.7,124C934.7,124,934.7,124,934.7,124
		C934.7,124,934.7,124,934.7,124z"/>
</g>
<g id="XMLID_524_">
	<polygon class="st3" points="956.3,574.6 918,574.6 909.6,490.7 947.9,490.7 	"/>
</g>
<g id="XMLID_523_">
	<path class="st0" d="M559.6,140.7c-0.1-0.1-0.1-0.3,0.1-0.4l11.6-2.8c2.4-0.7,4.9-0.1,6.7,1.5l14.2,15.8c1.8,1.5,2.4,4,1.5,6.2
		l-3,7.5c-0.2,0.5-0.8,0.7-1.3,0.4C586.2,166.4,573.9,156.7,559.6,140.7z"/>
	<path class="st3" d="M590,170.9c-0.6,0-1.1-0.2-1.6-0.5c-3.4-2.6-15.8-12.4-30.1-28.5l0,0c-0.5-0.5-0.6-1.3-0.4-1.9
		c0.2-0.7,0.8-1.2,1.4-1.3l11.6-2.8c2.9-0.8,6-0.1,8.3,1.9l0.2,0.2l14.1,15.8c2.3,2,3.1,5.3,1.9,8.1l-3,7.5
		c-0.3,0.8-0.9,1.3-1.7,1.6C590.5,170.9,590.3,170.9,590,170.9z M562.7,141.4c12.2,13.5,22.7,22.1,26.9,25.3l2.5-6.3
		c0.6-1.5,0.2-3.2-1-4.2l-0.2-0.2l-14.1-15.7c-1.4-1.2-3.3-1.6-5-1.1L562.7,141.4z"/>
</g>
<g id="XMLID_522_">
	<path class="st4" d="M625.8,136.2l1.2-1.4c5.6-6.2,5.3-15.7-0.6-21.6l0,0c-6-6-15.7-6.1-21.9-0.3l-21.6,20.4l-6,5l14.3,15l6-5.3
		c0.8-0.8,2-0.9,2.9-0.2l0,0c4,2.9,9.5,2.7,13.4-0.4l1.6-1.2c0.8-0.6,1.9-0.7,2.8-0.1l2.1,1.5L625.8,136.2z"/>
	<path class="st3" d="M591.1,156.1L573.8,138l7.7-6.4l21.5-20.3c7.1-6.7,18-6.5,24.9,0.3c6.7,6.7,7,17.5,0.7,24.5l-1.1,1.2
		l-6.8,13.2l-4-2.9c-0.1,0-0.2,0-0.2,0l-1.6,1.2c-4.6,3.7-11.1,3.9-15.9,0.4c-0.1,0-0.1,0-0.2,0l-0.1,0.1L591.1,156.1z M580,138.4
		l11.4,11.9l4.5-3.9c1.5-1.5,3.9-1.7,5.6-0.4c3.3,2.3,7.7,2.2,10.8-0.3l1.6-1.2c1.5-1.2,3.7-1.3,5.3-0.1l0.1,0.1l4.8-9.3l1.4-1.6
		c4.8-5.4,4.6-13.6-0.5-18.7c-5.3-5.2-13.6-5.4-19-0.3l-21.7,20.5L580,138.4z"/>
</g>
<g id="XMLID_521_">
	<path class="st4" d="M621.3,134.1c0,0-0.8-7.3-8.5-7.6"/>
	<path class="st3" d="M619.2,134.3c-0.1-0.6-0.8-5.5-6.5-5.7l0.2-4.2c7.6,0.3,10.2,6.4,10.5,9.5L619.2,134.3z"/>
</g>
<g id="XMLID_520_">
	
		<ellipse transform="matrix(0.5816 -0.8135 0.8135 0.5816 149.0046 555.9138)" class="st3" cx="614.9" cy="133.1" rx="1.8" ry="1.8"/>
</g>
<g id="XMLID_519_">
	<path class="st6" d="M634.2,123.4c0.3,4.3-4.5,7.1-8.2,5l-11.1-6.3c-2.1-1-4.7-0.7-6.5,0.9l-4.5,3.9c-2.2,2-10.7-0.8-10.7-0.8
		c-1.4-0.3-2-1.9-1.3-3c4-6.1,15.1-21.2,26-17.9C628.1,108.2,633.6,114.9,634.2,123.4z"/>
	<path class="st3" d="M628.7,130.7c-1.2,0-2.4-0.3-3.5-0.9l-11.1-6.3c-1.5-0.7-3.3-0.5-4.7,0.7l-4.5,3.9c-2.7,2.3-9.9,0.3-12.1-0.5
		c-1.1-0.3-2-1-2.5-2.1c-0.5-1.1-0.3-2.3,0.3-3.3c4.4-6.8,15.9-22.1,27.7-18.5c10.6,3.2,16.8,10.2,17.4,19.7l0,0
		c0.2,2.6-1.1,4.9-3.3,6.3C631.3,130.3,630,130.7,628.7,130.7z M612.2,119.9c1.1,0,2.2,0.3,3.3,0.8l11.2,6.4
		c1.3,0.7,2.8,0.7,4.1-0.1c1.2-0.8,1.9-2,1.8-3.4c-0.5-8.1-5.9-14.1-15.1-16.9c-10-3-21.1,12.4-24.2,17.2c-0.1,0.2-0.1,0.3,0,0.4
		c0,0.1,0.1,0.2,0.3,0.3l0.2,0c4,1.3,8.3,1.8,9.1,1.1l4.5-3.9C608.7,120.5,610.4,119.9,612.2,119.9z"/>
</g>
<g id="XMLID_518_">
	<path class="st8" d="M1145.5,191.1l-13.9,14.3c0,0-0.4,346.9-0.2,372.5c0,0.5,0.6,0.7,0.9,0.3l-45.4,58.6v12.8
		c0,0.3,0.4,0.5,0.6,0.2l58.3-74.7v-14.2V193.1C1145.7,192.9,1145.6,191,1145.5,191.1z"/>
	<path class="st3" d="M1087.2,651.7c-0.2,0-0.5,0-0.7-0.1c-0.9-0.3-1.4-1.1-1.4-2v-13.4l44.6-57.5c-0.1-0.2-0.1-0.5-0.1-0.7
		c-0.2-25.3,0.2-369,0.2-372.5l0-0.7l14.5-14.9l0.9-0.8l1.1,0.5c0.5,0.2,1.3,0.6,1.3,3.6v382.7l-58.6,75.1
		C1088.5,651.4,1087.8,651.7,1087.2,651.7z M1088.6,637.3v8.1l55.3-70.9V195.2l-10.6,10.9c0,17.8-0.4,347-0.2,371.7
		c0-0.5-0.4-1-0.9-1.2c-0.5-0.2-1.1,0-1.4,0.4l2.8,2.2l0,0h0L1088.6,637.3z"/>
</g>
<g id="XMLID_517_">
	<polygon class="st4" points="973.3,573 976,584.5 1002.4,584.5 998.8,573 	"/>
	<path class="st3" d="M1005.2,586.6h-30.9l-3.7-15.7h29.7L1005.2,586.6z M977.7,582.4h21.8l-2.2-7.3H976L977.7,582.4z"/>
</g>
<g id="XMLID_516_">
	<path class="st11" d="M1043.4,357.7H896.5c-15.1,0-27.3-12.2-27.3-27.3v-53.8c0-15.1,12.2-27.3,27.3-27.3h146.9
		c15.1,0,27.3,12.2,27.3,27.3v53.8C1070.7,345.5,1058.5,357.7,1043.4,357.7z"/>
	<path class="st3" d="M1043.4,359.5H896.5c-16,0-29.1-13-29.1-29.1v-53.8c0-16,13-29.1,29.1-29.1h146.9c16,0,29.1,13,29.1,29.1v53.8
		C1072.4,346.4,1059.4,359.5,1043.4,359.5z M896.5,251.1c-14.1,0-25.6,11.5-25.6,25.6v53.8c0,14.1,11.5,25.6,25.6,25.6h146.9
		c14.1,0,25.6-11.5,25.6-25.6v-53.8c0-14.1-11.5-25.6-25.6-25.6H896.5z"/>
</g>
<g id="XMLID_515_">
	<path class="st0" d="M879.9,331.1V276c0-9.6,7.7-17.3,17.3-17.3h148.2c9.6,0,17.3,7.7,17.3,17.3v55.1c0,9.6-7.7,17.3-17.3,17.3
		H897.2C887.6,348.4,879.9,340.6,879.9,331.1z"/>
	<path class="st3" d="M1045.4,350.2H897.2c-10.5,0-19.1-8.6-19.1-19.1V276c0-10.5,8.6-19.1,19.1-19.1h148.2
		c10.5,0,19.1,8.6,19.1,19.1v55.1C1064.5,341.6,1055.9,350.2,1045.4,350.2z M897.2,260.4c-8.6,0-15.5,7-15.5,15.5v55.1
		c0,8.6,7,15.5,15.5,15.5h148.2c8.6,0,15.5-7,15.5-15.5V276c0-8.6-7-15.5-15.5-15.5H897.2z"/>
</g>
<g id="XMLID_514_">
	<rect x="1078.8" y="420" class="st3" width="16.1" height="168.8"/>
</g>
<g id="XMLID_513_">
	<rect x="683.4" y="420" class="st3" width="16.1" height="168.8"/>
</g>
<g id="XMLID_512_">
	<rect x="656.5" y="394.9" class="st3" width="466.2" height="25.2"/>
</g>
<g id="XMLID_511_">
	<circle class="st6" cx="764.1" cy="600.6" r="11.7"/>
	<path class="st3" d="M764.1,614c-7.4,0-13.5-6-13.5-13.5c0-7.4,6-13.5,13.5-13.5s13.5,6,13.5,13.5C777.5,608,771.5,614,764.1,614z
		 M764.1,590.6c-5.5,0-10,4.5-10,10c0,5.5,4.5,10,10,10s10-4.5,10-10C774,595.1,769.6,590.6,764.1,590.6z"/>
</g>
<g id="XMLID_510_">
	<circle class="st6" cx="905" cy="600.6" r="11.7"/>
	<path class="st3" d="M905,614c-7.4,0-13.5-6-13.5-13.5c0-7.4,6-13.5,13.5-13.5s13.5,6,13.5,13.5C918.4,608,912.4,614,905,614z
		 M905,590.6c-5.5,0-10,4.5-10,10c0,5.5,4.5,10,10,10s10-4.5,10-10C914.9,595.1,910.4,590.6,905,590.6z"/>
</g>
<g id="XMLID_509_">
	<polygon class="st6" points="768.1,588 768.1,571.9 827,554.3 827,573.3 	"/>
	<path class="st3" d="M766.3,590.2v-19.6l62.4-18.7v22.7L766.3,590.2z M769.8,573.2v12.5l55.4-13.8v-15.2L769.8,573.2z"/>
</g>
<g id="XMLID_508_">
	<polygon class="st6" points="898.6,588 898.6,571.9 839.7,554.3 839.7,573.3 	"/>
	<path class="st3" d="M900.4,590.2L838,574.6v-22.7l62.4,18.7V590.2z M841.5,571.9l55.4,13.8v-12.5l-55.4-16.6V571.9z"/>
</g>
<g id="XMLID_507_">
	<rect x="827" y="503.7" class="st6" width="12.8" height="70"/>
	<path class="st3" d="M841.5,575.4h-16.3v-73.5h16.3V575.4z M828.7,571.9h9.3v-66.5h-9.3V571.9z"/>
</g>
<g id="XMLID_506_">
	<path class="st6" d="M896.7,503.7l-126.6,0c-7.2,0-13-5.8-13-13v0c0-7.2,5.8-13,13-13h126.6c7.2,0,13,5.8,13,13v0
		C909.6,497.9,903.8,503.7,896.7,503.7z"/>
	<path class="st3" d="M896.7,505.2H770c-8,0-14.5-6.5-14.5-14.5s6.5-14.5,14.5-14.5h126.6c8,0,14.5,6.5,14.5,14.5
		S904.7,505.2,896.7,505.2z M770,479.3c-6.3,0-11.4,5.1-11.4,11.4s5.1,11.4,11.4,11.4h126.6c6.3,0,11.4-5.1,11.4-11.4
		s-5.1-11.4-11.4-11.4H770z"/>
</g>
<g id="XMLID_505_">
	<path class="st12" d="M990.8,357.7"/>
</g>
<g id="XMLID_504_">
	<rect x="958.3" y="357.7" class="st11" width="26" height="37.2"/>
	<path class="st3" d="M984.3,396.6h-26c-1,0-1.8-0.8-1.8-1.8v-37.2c0-1,0.8-1.8,1.8-1.8h26c1,0,1.8,0.8,1.8,1.8v37.2
		C986,395.8,985.3,396.6,984.3,396.6z M960,393.1h22.5v-33.7H960V393.1z"/>
</g>
<g id="XMLID_503_">
	<path class="st11" d="M1010.9,394.9h-77.4l0,0c0-5.2,4.2-9.4,9.4-9.4h58.7C1006.7,385.5,1010.9,389.7,1010.9,394.9L1010.9,394.9z"
		/>
	<path class="st3" d="M1010.9,396.6h-77.4c-1,0-1.8-0.8-1.8-1.8c0-6.1,5-11.1,11.1-11.1h58.7c6.1,0,11.1,5,11.1,11.1
		C1012.6,395.8,1011.8,396.6,1010.9,396.6z M935.4,393.1h73.5c-0.8-3.4-3.8-5.9-7.4-5.9h-58.7C939.2,387.3,936.2,389.8,935.4,393.1z
		"/>
</g>
<g id="XMLID_500_">
	<g id="XMLID_502_">
		<rect x="682.7" y="317.5" class="st11" width="19.7" height="77.4"/>
		<path class="st3" d="M702.4,396.6h-19.7c-1,0-1.8-0.8-1.8-1.8v-77.4c0-1,0.8-1.8,1.8-1.8h19.7c1,0,1.8,0.8,1.8,1.8v77.4
			C704.1,395.8,703.3,396.6,702.4,396.6z M684.5,393.1h16.2v-73.9h-16.2V393.1z"/>
	</g>
	<g id="XMLID_501_">
		<path class="st11" d="M683.3,317.5c0,0,3.2,12.8,9.2,12.8c6,0,9.2-12.8,9.2-12.8H683.3z"/>
		<path class="st3" d="M692.5,332.1c-7.2,0-10.6-12.7-10.9-14.1c-0.1-0.5,0-1.1,0.3-1.5c0.3-0.4,0.8-0.7,1.4-0.7h18.5
			c0.5,0,1,0.2,1.4,0.7c0.3,0.4,0.4,1,0.3,1.5C703.1,319.4,699.7,332.1,692.5,332.1z M685.6,319.3c1.3,4,4,9.3,6.9,9.3
			s5.5-5.4,6.9-9.3H685.6z"/>
	</g>
</g>
<g id="XMLID_497_">
	<g id="XMLID_499_">
		<rect x="701.8" y="317.5" class="st11" width="19.7" height="77.4"/>
		<path class="st3" d="M721.4,396.6h-19.7c-1,0-1.8-0.8-1.8-1.8v-77.4c0-1,0.8-1.8,1.8-1.8h19.7c1,0,1.8,0.8,1.8,1.8v77.4
			C723.2,395.8,722.4,396.6,721.4,396.6z M703.5,393.1h16.2v-73.9h-16.2V393.1z"/>
	</g>
	<g id="XMLID_498_">
		<path class="st11" d="M702.3,317.5c0,0,3.2,12.8,9.2,12.8s9.2-12.8,9.2-12.8H702.3z"/>
		<path class="st3" d="M711.6,332.1c-7.2,0-10.6-12.7-10.9-14.1c-0.1-0.5,0-1.1,0.3-1.5c0.3-0.4,0.8-0.7,1.4-0.7h18.5
			c0.5,0,1,0.2,1.4,0.7c0.3,0.4,0.4,1,0.3,1.5C722.1,319.4,718.7,332.1,711.6,332.1z M704.7,319.3c1.3,4,4,9.3,6.9,9.3
			s5.5-5.4,6.9-9.3H704.7z"/>
	</g>
</g>
<g id="XMLID_496_">
	<path class="st3" d="M826.8,328.8l-31,127.1c-0.2,1,0.5,1.9,1.4,2h84.4L901.2,335c0-14.7-11.3-27-26-28.1l-16.8-1.3
		C843.5,304.4,830.1,314.3,826.8,328.8z"/>
</g>
<g id="XMLID_495_">
	<path class="st3" d="M795.3,457.7v5.1c0,15.4,12.5,27.9,27.9,27.9h104.3c3.6,0,6.7,2.2,8,5.5l29.7,78.9l42.8-0.5l-37.8-96.9
		c-4.4-12-15.8-19.9-28.6-19.9H795.3z"/>
</g>
<g id="XMLID_494_">
	<rect x="818.4" y="440.4" class="st6" width="29.8" height="50.3"/>
	<path class="st3" d="M849.7,492.2h-32.8V439h32.8V492.2z M819.9,489.2h26.9v-47.3h-26.9V489.2z"/>
</g>
<g id="XMLID_493_">
	<path class="st3" d="M893.2,315.4l72.9,53l48.7,3.4v22.5l-51.2,0.6c-5.2,0-10.2-1.7-14.4-4.8l-43.8-27.2
		c-6.8-5.1-11.3-12.7-12.5-21.1L893.2,315.4z"/>
</g>
<g id="XMLID_492_">
	<path class="st4" d="M1014.8,379.7l15.8-4.9c5-1.5,10.5-0.1,14.1,3.7l9,9.3c0,0-13.2-4.1-22.6,6.5h-16.2V379.7z"/>
	<path class="st3" d="M1031.8,396h-18.7v-17.6l16.9-5.2c5.7-1.7,11.7-0.2,15.8,4.1l13.4,14l-6.1-1.9c-0.5-0.1-12.3-3.6-20.9,6
		L1031.8,396z M1016.4,392.7h13.8c6.2-6.6,13.8-7.5,18.7-7.3l-5.6-5.8c-3.2-3.4-8-4.6-12.4-3.2l-14.6,4.5V392.7z"/>
</g>
<g id="XMLID_491_">
	<polygon class="st0" points="999.7,371.8 999.7,394.9 1014.8,394.4 1014.9,371.8 	"/>
	<path class="st3" d="M997.9,396.7V370h18.8l-0.1,26.1L997.9,396.7z M1001.5,373.6V393l11.5-0.4l0.1-19H1001.5z"/>
</g>
<g id="XMLID_490_">
	<path class="st0" d="M843.9,307.8l6.1-7.2c1.7-2.1,5-3.6,7.6-3.3l19.5,1.7c2.5,0.2,4.7,2.1,5.3,4.5l5.3,8.2
		C887.8,311.7,870.9,314,843.9,307.8z"/>
	<path class="st3" d="M879.1,313.9c-7.6,0-19.9-0.8-35.5-4.4l-2.8-0.7l8-9.5c2.1-2.5,6-4.2,9.2-4l19.5,1.7c3.2,0.3,5.9,2.5,6.8,5.6
		l6.7,10.3l-2.8,0.4C887.7,313.5,884.6,313.9,879.1,313.9z M847.2,306.7c18.5,3.9,31.8,3.8,37.4,3.5l-3.9-5.9l-0.1-0.3
		c-0.4-1.7-1.9-3-3.7-3.2l-19.5-1.7c-2-0.2-4.8,1-6.1,2.7L847.2,306.7z"/>
</g>
<g id="XMLID_489_">
	<path class="st4" d="M899.2,261.7l0.2-2c1-9-5.3-17.3-14.2-18.7l0,0c-9.1-1.5-17.8,4.5-19.6,13.6l-6.2,31.7l-3.6,10.8l24.1,2.2
		l1.5-9.2c0.2-1.2,1.2-2.1,2.4-2.1l0,0c5.4,0,10.1-3.6,11.6-8.8l1.1-3.9h4.6L899.2,261.7z"/>
	<path class="st3" d="M881.2,300.9l-27.4-2.5l4.1-12.5l6.2-31.6c1.9-9.9,11.3-16.4,21.3-14.8c9.7,1.6,16.5,10.6,15.5,20.4l-0.2,1.8
		l2.2,15.2h-5.2l-0.8,2.8c-1.6,5.8-7,9.9-13.1,9.9c-0.5,0-0.9,0.3-0.9,0.8L881.2,300.9z M857.9,295.8l20.8,1.9l1.3-7.8
		c0.3-1.9,2-3.3,3.9-3.3c4.7,0,8.9-3.2,10.2-7.7l1.4-5h4l-1.7-12.1l0.2-2.2c0.9-8.2-4.8-15.7-13-17.1c-8.4-1.4-16.2,4.1-17.9,12.4
		l-6.2,31.9L857.9,295.8z"/>
</g>
<g id="XMLID_488_">
	<path class="st4" d="M893.9,262.7c0,0-5.3-6-12.3-1.4"/>
	<path class="st3" d="M892.4,264.1c-0.4-0.5-4.3-4.5-9.6-1l-2.3-3.5c6.8-4.4,12.8-0.8,15.1,1.7L892.4,264.1l1.6-1.4L892.4,264.1z"/>
</g>
<g id="XMLID_487_">
	<path class="st4" d="M893.1,283.7c0,0-0.7-0.5-4.1-2.8"/>
	<path class="st3" d="M891.9,285.5c0,0-0.7-0.5-4.2-2.9l2.4-3.5c3.3,2.3,4.1,2.8,4.1,2.8L891.9,285.5z"/>
</g>
<g id="XMLID_486_">
	<circle class="st3" cx="887.6" cy="265.9" r="2"/>
</g>
<g id="XMLID_485_">
	<path class="st3" d="M898.5,245.1c3,3.6,0.6,9.1-4.1,9.6l-13.8,1.5c-2.5,0.4-4.6,2.3-5.2,4.9l-1.5,6.3c-0.7,3.2-3.8,5.2-7,4.7
		l-7,1.8c0,0-1.9-29.7,12.7-34.6C883.5,235.5,892.7,237.9,898.5,245.1z"/>
</g>
<g id="XMLID_484_">
	<path class="st8" d="M1013.7,585.9"/>
</g>
<g id="XMLID_483_">
	<path class="st8" d="M1008.1,590.7"/>
</g>
<g id="XMLID_482_">
	<path class="st8" d="M961.8,566"/>
</g>
<g id="XMLID_481_">
	<line class="st7" x1="760.1" y1="499.1" x2="906.5" y2="499.1"/>
	<path class="st3" d="M906.5,500.9H760.1c-1,0-1.8-0.8-1.8-1.8s0.8-1.8,1.8-1.8h146.4c1,0,1.8,0.8,1.8,1.8S907.5,500.9,906.5,500.9z
		"/>
</g>
<g id="XMLID_480_">
	<path class="st6" d="M907.3,429.5H761.8c-5.2,0-9.4-4.2-9.4-9.4v0c0-5.2,4.2-9.4,9.4-9.4h145.5c5.2,0,9.4,4.2,9.4,9.4v0
		C916.7,425.2,912.5,429.5,907.3,429.5z"/>
	<path class="st3" d="M907.3,431.1H761.8c-6.1,0-11.1-5-11.1-11.1s5-11.1,11.1-11.1h145.5c6.1,0,11.1,5,11.1,11.1
		S913.4,431.1,907.3,431.1z M761.8,412.3c-4.3,0-7.8,3.5-7.8,7.8s3.5,7.8,7.8,7.8h145.5c4.3,0,7.8-3.5,7.8-7.8s-3.5-7.8-7.8-7.8
		H761.8z"/>
</g>
<g id="XMLID_479_">
	<path class="st6" d="M888.9,448H778c-6.3,0-11.1-5.6-10.2-11.8l11.6-81.9c1-7.2,7.2-12.6,14.5-12.6h80.4c7.4,0,13.6,5.5,14.5,12.8
		l10.4,81.8C899.9,442.5,895.1,448,888.9,448z"/>
	<path class="st3" d="M888.9,449.7H778c-3.5,0-6.8-1.5-9.1-4.2s-3.3-6.1-2.8-9.6l11.6-81.9c1.1-8,8.1-14.1,16.2-14.1h80.4
		c8.2,0,15.2,6.2,16.3,14.3l10.4,81.8c0.4,3.4-0.6,6.9-2.9,9.5C895.7,448.3,892.4,449.7,888.9,449.7z M793.9,343.5
		c-6.4,0-11.9,4.8-12.8,11.1l-11.6,81.9c-0.3,2.5,0.4,4.9,2,6.8c1.6,1.9,4,3,6.5,3h110.9c2.5,0,4.8-1.1,6.4-2.9
		c1.6-1.8,2.4-4.3,2.1-6.7L887,354.8c-0.8-6.4-6.3-11.3-12.8-11.3H793.9z"/>
</g>
<g id="XMLID_478_">
	<path class="st0" d="M1028.2,393.7c0,0,7.7-10.6,19.9-10.6c10.7,0,18.4,10.6,18.4,10.6H1028.2z"/>
	<path class="st3" d="M1070.5,395.8h-46.4l2.3-3.2c0.3-0.5,8.4-11.4,21.5-11.4c11.6,0,19.7,11,20.1,11.4L1070.5,395.8z
		 M1032.8,391.7h29c-3-2.8-8-6.5-13.8-6.5C1041.2,385.2,1035.9,388.8,1032.8,391.7z"/>
</g>
<g id="XMLID_477_">
	<path class="st0" d="M741.2,396c0,0-9.4-7.2-3.3-20.3c1.2-2.6,2.3-4.9,4.5-6.7l0,0c1.5-1.5,1.9-3.7,1.1-5.6
		c-1.4-3.3-3.7-8.4-5.4-11.6h24.7c0,0-3.2,6.5-5.9,12.2c-0.8,1.7-0.5,3.7,0.9,5.1v0c2.8,2.8,5,6.3,6,10.2c1.4,5.1,1.2,11.7-5.7,16.9
		H741.2z"/>
	<path class="st3" d="M758.7,397.8h-18.1l-0.5-0.4c-0.1-0.1-10.4-8.2-3.8-22.5c1.3-2.7,2.4-5.2,4.9-7.3c0.9-1,1.2-2.4,0.6-3.6
		c-1.5-3.5-3.7-8.4-5.3-11.5l-1.3-2.6h30.5l-1.3,2.6c0,0.1-3.2,6.5-5.9,12.2c-0.5,1-0.3,2.2,0.5,3c3.2,3.2,5.4,7,6.5,11
		c1.4,5.3,1.5,12.9-6.4,18.8L758.7,397.8z M741.9,394.2h15.6c4.7-3.7,6.2-8.7,4.6-14.7c-0.9-3.4-2.8-6.7-5.6-9.4
		c-1.9-1.9-2.3-4.7-1.2-7.1c1.6-3.4,3.5-7.2,4.6-9.6h-19c1.4,2.9,3,6.4,4.1,9.1c1.1,2.6,0.6,5.6-1.4,7.6l-0.1,0.1
		c-1.9,1.6-2.8,3.6-4,6.1C734.8,386.6,740.2,392.7,741.9,394.2z"/>
</g>
<g id="XMLID_476_">
	<path class="st3" d="M756.7,350.7l-3.5-0.4c0.1-0.9,2.7-22.6,29-36.2l1.6,3.2c-12.8,6.6-19.5,15.3-22.9,21.5
		C757.3,345.5,756.7,350.7,756.7,350.7z"/>
</g>
<g id="XMLID_475_">
	<path class="st3" d="M745.4,351.8c0-0.3-2.6-30.7-25.6-46.8l2-2.9c24.4,17.1,27,48.1,27.1,49.4L745.4,351.8z"/>
</g>
<g id="XMLID_474_">
	<path class="st3" d="M752,351.7l-3.6-0.1c0.1-1.5,1.4-36.7,10.2-51l3,1.9C753.3,316,752,351.3,752,351.7z"/>
</g>
<g id="XMLID_473_">
	<path class="st11" d="M925.3,583.6v15.9l62.6,3.4l-2.3-8.2c-1.9-3.9-5.5-6.6-9.5-7.2l-29.5-3.9H925.3z"/>
	<path class="st3" d="M987.8,604.6C987.8,604.6,987.8,604.6,987.8,604.6l-62.7-3.4c-0.9-0.1-1.7-0.8-1.7-1.7v-15.9
		c0-1,0.8-1.8,1.8-1.8h21.2c0.1,0,0.2,0,0.2,0l29.5,3.9c4.6,0.6,8.7,3.7,10.9,8.1c0,0.1,0.1,0.2,0.1,0.3l2.3,8.2
		c0.2,0.5,0,1.1-0.3,1.6C988.9,604.4,988.4,604.6,987.8,604.6z M927,597.8l58.5,3.2l-1.6-5.7c-1.7-3.3-4.7-5.6-8.1-6.1l-29.4-3.9
		H927V597.8z"/>
</g>
<g id="XMLID_472_">
	<polygon class="st11" points="943,606.3 925.3,606.3 925.3,599.5 943,600.4 	"/>
	<path class="st3" d="M943,608.1h-17.8c-1,0-1.8-0.8-1.8-1.8v-6.9c0-0.5,0.2-0.9,0.5-1.3s0.8-0.5,1.3-0.5l17.8,1
		c0.9,0.1,1.7,0.8,1.7,1.7v5.9C944.8,607.3,944,608.1,943,608.1z M927,604.6h14.3v-2.5l-14.3-0.8V604.6z"/>
</g>
<g id="XMLID_471_">
	<path class="st11" d="M324.6,357.7H177.8c-15.1,0-27.3-12.2-27.3-27.3v-53.8c0-15.1,12.2-27.3,27.3-27.3h146.9
		c15.1,0,27.3,12.2,27.3,27.3v53.8C352,345.5,339.7,357.7,324.6,357.7z"/>
	<path class="st3" d="M324.6,359.5H177.8c-16,0-29.1-13-29.1-29.1v-53.8c0-16,13-29.1,29.1-29.1h146.9c16,0,29.1,13,29.1,29.1v53.8
		C353.7,346.4,340.7,359.5,324.6,359.5z M177.8,251.1c-14.1,0-25.6,11.5-25.6,25.6v53.8c0,14.1,11.5,25.6,25.6,25.6h146.9
		c14.1,0,25.6-11.5,25.6-25.6v-53.8c0-14.1-11.5-25.6-25.6-25.6H177.8z"/>
</g>
<g id="XMLID_470_">
	<path class="st2" d="M159.8,331.1V276c0-9.6,7.7-17.3,17.3-17.3h148.2c9.6,0,17.3,7.7,17.3,17.3v55.1c0,9.6-7.7,17.3-17.3,17.3
		H177.1C167.5,348.4,159.8,340.6,159.8,331.1z"/>
	<path class="st3" d="M325.3,350.1H177.1c-10.5,0-19.1-8.5-19.1-19.1V276c0-10.5,8.5-19.1,19.1-19.1h148.2
		c10.5,0,19.1,8.5,19.1,19.1v55.1C344.4,341.6,335.8,350.1,325.3,350.1z M177.1,260.4c-8.6,0-15.6,7-15.6,15.6v55.1
		c0,8.6,7,15.6,15.6,15.6h148.2c8.6,0,15.6-7,15.6-15.6V276c0-8.6-7-15.6-15.6-15.6H177.1z"/>
</g>
<g id="XMLID_469_">
	<rect x="489.6" y="420" class="st3" width="16.1" height="168.8"/>
</g>
<g id="XMLID_468_">
	<rect x="94.2" y="420" class="st3" width="16.1" height="168.8"/>
</g>
<g id="XMLID_467_">
	<rect x="64.8" y="394.9" class="st3" width="466.2" height="25.2"/>
</g>
<g id="XMLID_466_">
	<path class="st12" d="M401.6,357.7"/>
</g>
<g id="XMLID_465_">
	<rect x="239.6" y="357.7" class="st11" width="26" height="37.2"/>
	<path class="st3" d="M265.6,396.6h-26c-1,0-1.8-0.8-1.8-1.8v-37.2c0-1,0.8-1.8,1.8-1.8h26c1,0,1.8,0.8,1.8,1.8v37.2
		C267.3,395.8,266.5,396.6,265.6,396.6z M241.3,393.1h22.5v-33.7h-22.5V393.1z"/>
</g>
<g id="XMLID_464_">
	<path class="st11" d="M292.2,394.9h-77.4l0,0c0-5.2,4.2-9.4,9.4-9.4h58.7C288,385.5,292.2,389.7,292.2,394.9L292.2,394.9z"/>
	<path class="st3" d="M292.2,396.6h-77.4c-1,0-1.8-0.8-1.8-1.8c0-6.1,5-11.1,11.1-11.1h58.7c6.1,0,11.1,5,11.1,11.1
		C293.9,395.8,293.1,396.6,292.2,396.6z M216.7,393.1h73.5c-0.8-3.4-3.8-5.9-7.4-5.9h-58.7C220.5,387.3,217.5,389.8,216.7,393.1z"/>
</g>
<g id="XMLID_463_">
	<path class="st13" d="M393.6,156.8"/>
</g>
<g id="XMLID_462_">
	<path class="st11" d="M489.6,259.6c1,0.1-60.1,194.1-60.1,194.1l42.7,1.2l64.9-193.8L489.6,259.6z"/>
	<path class="st3" d="M472.1,456.7C472.1,456.7,472.1,456.7,472.1,456.7l-42.7-1.2c-0.5,0-1.1-0.3-1.4-0.7c-0.3-0.4-0.4-1-0.2-1.5
		c20.3-64.5,58.8-187.3,60-193.6c0,0,0-0.1,0-0.1c0.1-0.9,0.9-1.7,1.8-1.6l47.5,1.6c0.6,0,1.1,0.3,1.4,0.8s0.4,1,0.2,1.6
		l-64.9,193.8C473.6,456.2,472.9,456.7,472.1,456.7z M431.8,452l39.1,1.1l63.8-190.3l-43.7-1.4c-0.8,3.2-3,10.7-8.8,29.5
		c-5,16.1-11.9,38.6-20.7,66.7C448.3,399.6,435,442,431.8,452z"/>
</g>
<g id="XMLID_461_">
	<path class="st11" d="M467.4,440.4l34.9,17.3l47.4-98.8c2.3-4.8,3.1-10.1,2.2-15.3l-14.8-82.5l-47.5-1.6l18.5,86.9
		c0.4,3.4-0.2,6.8-1.6,9.8L467.4,440.4z"/>
	<path class="st3" d="M502.3,459.5c-0.3,0-0.5-0.1-0.8-0.2L466.7,442c-0.9-0.4-1.2-1.4-0.8-2.3l39.1-84.1c1.3-2.8,1.8-5.8,1.4-8.8
		L487.9,260c-0.1-0.5,0-1.1,0.4-1.5c0.3-0.4,0.9-0.6,1.4-0.6l47.5,1.6c0.8,0,1.5,0.6,1.7,1.4l14.8,82.5c0.9,5.6,0.1,11.3-2.4,16.4
		l-47.4,98.8c-0.2,0.4-0.6,0.7-1,0.9C502.7,459.4,502.5,459.5,502.3,459.5z M469.7,439.6l31.8,15.7l46.6-97.2
		c2.1-4.5,2.9-9.4,2.1-14.3l-14.6-81l-43.8-1.4l18.1,84.7c0,0.1,0,0.1,0,0.2c0.4,3.7-0.2,7.4-1.7,10.8L469.7,439.6z"/>
</g>
<g id="XMLID_450_">
	<g id="XMLID_460_">
		<circle class="st6" cx="367.8" cy="593.1" r="11.7"/>
		<path class="st3" d="M367.8,606.6c-7.4,0-13.5-6-13.5-13.5c0-7.4,6-13.5,13.5-13.5s13.5,6,13.5,13.5
			C381.3,600.5,375.2,606.6,367.8,606.6z M367.8,583.2c-5.5,0-10,4.5-10,10c0,5.5,4.5,10,10,10s10-4.5,10-10
			C377.8,587.6,373.3,583.2,367.8,583.2z"/>
	</g>
	<g id="XMLID_459_">
		<circle class="st6" cx="508.7" cy="593.1" r="11.7"/>
		<path class="st3" d="M508.7,606.6c-7.4,0-13.5-6-13.5-13.5c0-7.4,6-13.5,13.5-13.5s13.5,6,13.5,13.5
			C522.2,600.5,516.1,606.6,508.7,606.6z M508.7,583.2c-5.5,0-10,4.5-10,10c0,5.5,4.5,10,10,10s10-4.5,10-10
			C518.6,587.6,514.2,583.2,508.7,583.2z"/>
	</g>
	<g id="XMLID_458_">
		<polygon class="st6" points="371.8,580.5 371.8,564.5 430.7,546.8 430.7,565.8 		"/>
		<path class="st3" d="M370,582.8v-19.6l62.4-18.7v22.7L370,582.8z M373.6,565.8v12.5l55.4-13.8v-15.2L373.6,565.8z"/>
	</g>
	<g id="XMLID_457_">
		<polygon class="st6" points="502.3,580.5 502.3,564.5 443.5,546.8 443.5,565.8 		"/>
		<path class="st3" d="M504.1,582.8l-62.4-15.6v-22.7l62.4,18.7V582.8z M445.2,564.4l55.4,13.8v-12.5l-55.4-16.6V564.4z"/>
	</g>
	<g id="XMLID_456_">
		<rect x="430.7" y="496.2" class="st6" width="12.8" height="70"/>
		<path class="st3" d="M445.2,567.9h-16.3v-73.5h16.3V567.9z M432.4,564.4h9.3V498h-9.3V564.4z"/>
	</g>
	<g id="XMLID_455_">
		<path class="st6" d="M500.4,496.2H373.8c-7.2,0-13-5.8-13-13v0c0-7.2,5.8-13,13-13h126.6c7.2,0,13,5.8,13,13v0
			C513.4,490.4,507.6,496.2,500.4,496.2z"/>
		<path class="st3" d="M500.4,497.8H373.8c-8,0-14.5-6.5-14.5-14.5s6.5-14.5,14.5-14.5h126.6c8,0,14.5,6.5,14.5,14.5
			S508.4,497.8,500.4,497.8z M373.8,471.8c-6.3,0-11.4,5.1-11.4,11.4s5.1,11.4,11.4,11.4h126.6c6.3,0,11.4-5.1,11.4-11.4
			s-5.1-11.4-11.4-11.4H373.8z"/>
	</g>
	<g id="XMLID_454_">
		<path class="st6" d="M377.4,480.1L377.4,480.1c-4.1,0-7.5-3.3-7.5-7.5v-42.8h14.9v42.8C384.9,476.7,381.5,480.1,377.4,480.1z"/>
		<path class="st3" d="M377.4,481.5c-4.9,0-8.9-4-8.9-8.9v-44.3h17.9v44.3C386.3,477.5,382.3,481.5,377.4,481.5z M371.4,431.3v41.3
			c0,3.3,2.7,6,6,6s6-2.7,6-6v-41.3H371.4z"/>
	</g>
	<g id="XMLID_453_">
		<line class="st7" x1="363.9" y1="491.7" x2="510.3" y2="491.7"/>
		<path class="st3" d="M510.3,493.4H363.9c-1,0-1.8-0.8-1.8-1.8s0.8-1.8,1.8-1.8h146.4c1,0,1.8,0.8,1.8,1.8S511.2,493.4,510.3,493.4
			z"/>
	</g>
	<g id="XMLID_452_">
		<path class="st6" d="M392.6,442.9l-28.8-0.8c-1.7,0-4.8-4.8-4.5-11l3.2-81.9c0.3-7.2,2-12.6,4-12.6h22.1c2,0,3.7,5.5,4,12.8
			l2.8,81.8C395.7,437.5,394.3,442.9,392.6,442.9z"/>
		<path class="st3" d="M392.6,444.4L392.6,444.4l-28.8-0.8c0,0,0,0,0,0c-0.8,0-1.7-0.4-2.5-1.3c-1.9-1.9-3.7-6.2-3.5-11.2l3.2-81.9
			c0.1-2.3,0.8-14,5.5-14h22.1c4.7,0,5.4,11.8,5.5,14.2l2.8,81.8c0.2,4.7-0.5,10.3-2.4,12.3C393.8,444.3,393.1,444.4,392.6,444.4z
			 M364,440.7l28.5,0.8c0.7-0.8,1.7-4.7,1.6-10.1l-2.8-81.8c-0.2-7.1-1.8-10.9-2.6-11.4h-21.9c-0.8,0.5-2.3,4.2-2.6,11.2l-3.2,81.9
			C360.6,436.6,363,440.3,364,440.7z M363.9,440.7L363.9,440.7C363.9,440.7,363.9,440.7,363.9,440.7z"/>
	</g>
	<g id="XMLID_451_">
		<path class="st6" d="M445.7,443.2h-80.1c-5.2,0-9.4-4.2-9.4-9.4v0c0-5.2,4.2-9.4,9.4-9.4h80.1c5.2,0,9.4,4.2,9.4,9.4v0
			C455.1,439,450.8,443.2,445.7,443.2z"/>
		<path class="st3" d="M445.7,444.7h-80.1c-6,0-10.9-4.9-10.9-10.9c0-6,4.9-10.9,10.9-10.9h80.1c6,0,10.9,4.9,10.9,10.9
			C456.5,439.8,451.6,444.7,445.7,444.7z M365.5,425.9c-4.4,0-7.9,3.6-7.9,7.9s3.6,7.9,7.9,7.9h80.1c4.4,0,7.9-3.6,7.9-7.9
			s-3.6-7.9-7.9-7.9H365.5z"/>
	</g>
</g>
<g id="XMLID_447_">
	<g id="XMLID_449_">
		<path class="st11" d="M434,453.7v16.6l71.3,3.6l-2.7-8.6c-2.2-4.1-6.2-6.9-10.9-7.5l-33.6-4.1H434z"/>
		<path class="st3" d="M505.2,475.6C505.2,475.6,505.2,475.6,505.2,475.6l-71.3-3.6c-0.9,0-1.7-0.8-1.7-1.7v-16.6
			c0-1,0.8-1.8,1.8-1.8h24.1c0.1,0,0.1,0,0.2,0l33.6,4.1c5.2,0.6,9.8,3.8,12.2,8.4c0.1,0.1,0.1,0.2,0.1,0.3l2.7,8.6
			c0.2,0.5,0.1,1.1-0.3,1.6C506.3,475.4,505.8,475.6,505.2,475.6z M435.7,468.6l67.1,3.4L501,466c-1.9-3.5-5.5-5.9-9.5-6.4
			l-33.5-4.1h-22.3V468.6z"/>
	</g>
	<g id="XMLID_448_">
		<polygon class="st11" points="448.4,477.5 434,477.5 434,470.3 448.4,471 		"/>
		<path class="st3" d="M448.4,479.2H434c-1,0-1.8-0.8-1.8-1.8v-7.2c0-0.5,0.2-0.9,0.5-1.3c0.3-0.3,0.8-0.5,1.3-0.5l14.4,0.7
			c0.9,0,1.7,0.8,1.7,1.7v6.5C450.2,478.4,449.4,479.2,448.4,479.2z M435.7,475.7h10.9v-3l-10.9-0.5V475.7z"/>
	</g>
</g>
<g id="XMLID_446_">
	<path class="st11" d="M516.3,483.2h-34l-27.2-17.7l9.5-15.8l29.7,16.7l12.2,2.8C512.8,470.7,517,476.8,516.3,483.2L516.3,483.2z"/>
	<path class="st3" d="M516.3,485h-34c-0.3,0-0.7-0.1-1-0.3L454.1,467c-0.8-0.5-1-1.6-0.5-2.4l9.5-15.8c0.5-0.8,1.5-1.1,2.4-0.6
		l29.5,16.6l11.9,2.7c7.3,1.7,12.1,8.5,11.2,15.9C517.9,484.3,517.1,485,516.3,485z M482.7,481.5h31.9c-0.1-5-3.6-9.4-8.6-10.5
		l-12.2-2.8c-0.2,0-0.3-0.1-0.5-0.2l-28.2-15.9l-7.7,12.9L482.7,481.5z"/>
</g>
<g id="XMLID_445_">
	<polyline class="st7" points="455.1,465.6 450.6,472.1 460.6,478.4 464.9,472 455.1,465.6 	"/>
	<path class="st3" d="M460.6,480.2c-0.3,0-0.6-0.1-0.9-0.3l-10.1-6.3c-0.4-0.3-0.7-0.7-0.8-1.1c-0.1-0.5,0-1,0.3-1.3l4.5-6.6
		c0.5-0.8,1.6-1,2.4-0.5l9.9,6.4c0.4,0.3,0.7,0.7,0.8,1.1c0.1,0.5,0,0.9-0.3,1.3l-4.3,6.4C461.8,479.9,461.2,480.2,460.6,480.2z
		 M453,471.6l7.1,4.4l2.4-3.5l-7-4.5L453,471.6z"/>
</g>
<g id="XMLID_444_">
	<polyline class="st4" points="468.3,441.5 464.1,450.5 487,462.5 492.1,453.3 468.3,441.5 	"/>
	<path class="st3" d="M487.6,464.5l-25.5-13.4l5.6-11.6l26.6,13.2L487.6,464.5z M466,449.8l20.4,10.7l3.7-6.5l-21-10.4L466,449.8z"
		/>
</g>
<g id="XMLID_443_">
	<path class="st11" d="M538.5,270c0,0-6.8,13.1-21.2,15.3"/>
	<path class="st3" d="M517.3,287c-0.9,0-1.6-0.6-1.7-1.5c-0.1-1,0.5-1.8,1.5-2c13.3-2,19.9-14.2,19.9-14.3c0.5-0.9,1.5-1.2,2.4-0.7
		c0.9,0.4,1.2,1.5,0.7,2.4c-0.3,0.6-7.4,13.9-22.5,16.2C517.4,287,517.3,287,517.3,287z"/>
</g>
<g id="XMLID_442_">
	<path class="st8" d="M586.2,636.7h-18.5V223.3c0-0.2,0.2-0.4,0.4-0.4h18.1V636.7z"/>
	<path class="st3" d="M588,638.5h-22V223.3c0-1.2,1-2.1,2.1-2.1H588V638.5z M569.5,634.9h14.9V224.7h-14.9V634.9z"/>
</g>
<g id="XMLID_441_">
	<path class="st8" d="M588.3,634.2l40.1-52.5V205.2c0-0.2-0.2-0.3-0.3-0.2l-41.9,18.5v410C586.2,634.5,587.6,635,588.3,634.2z"/>
	<path class="st3" d="M587.4,636.4c-0.3,0-0.7-0.1-1-0.2c-1.2-0.4-2-1.5-2-2.8V222.3l42.9-18.9c0.6-0.3,1.3-0.2,1.9,0.2
		c0.6,0.4,0.9,1,0.9,1.7v377.1l-40.5,53C589.1,636,588.3,636.4,587.4,636.4z M588,224.6v406.9l38.6-50.5V207.6L588,224.6z"/>
</g>
<g id="XMLID_440_">
	<path class="st0" d="M568.4,222.6l47.8-18.9h12.2c0.5,0,0.7,0.7,0.2,0.9l-42.4,18.3l-17.8,0C568.3,222.9,568.2,222.7,568.4,222.6z"
		/>
	<path class="st3" d="M586.6,224.7l-18.2,0c-1,0-1.7-0.7-1.9-1.6c-0.2-0.9,0.3-1.8,1.2-2.1l0,0l48.1-19h12.5c1.1,0,2,0.7,2.2,1.8
		c0.2,1-0.3,2.1-1.3,2.5L586.6,224.7z M577,221.1l8.9,0l36.2-15.7h-5.5L577,221.1z"/>
</g>
<g id="XMLID_436_">
	<g id="XMLID_439_">
		<ellipse class="st3" cx="740.4" cy="384" rx="4.5" ry="4.4"/>
	</g>
	<g id="XMLID_438_">
		<ellipse class="st3" cx="752.6" cy="384" rx="4.5" ry="4.4"/>
	</g>
	<g id="XMLID_437_">
		<path class="st3" d="M764.5,388.4c-2.5,0-4.5-2-4.5-4.4c0-2.4,2-4.4,4.5-4.4"/>
	</g>
</g>
<g id="XMLID_435_">
	<rect x="378.3" y="231.6" class="st0" width="44.2" height="53.6"/>
</g>
<g id="XMLID_434_">
	<circle class="st11" cx="400.4" cy="238.2" r="3.8"/>
</g>
<g id="XMLID_433_">
	<rect x="85.9" y="235.9" class="st0" width="32.6" height="39.6"/>
</g>
<g id="XMLID_432_">
	<circle class="st11" cx="101.7" cy="242.1" r="3.8"/>
</g>
<g id="XMLID_431_">
	<rect x="759.3" y="226.9" class="st0" width="47.3" height="57.5"/>
</g>
<g id="XMLID_430_">
	<circle class="st11" cx="782.4" cy="235.2" r="4"/>
</g>
<g id="XMLID_425_">
	<g id="XMLID_429_">
		<rect x="83.3" y="388.1" class="st0" width="73.5" height="6.5"/>
		<path class="st3" d="M158.6,396.4H81.5v-10.1h77.1V396.4z M85.1,392.8H155v-3H85.1V392.8z"/>
	</g>
	<g id="XMLID_428_">
		<rect x="83.3" y="381.1" class="st0" width="73.5" height="6.5"/>
		<path class="st3" d="M158.6,389.4H81.5v-10.1h77.1V389.4z M85.1,385.8H155v-3H85.1V385.8z"/>
	</g>
	<g id="XMLID_427_">
		<rect x="83.3" y="374.5" class="st0" width="73.5" height="6.5"/>
		<path class="st3" d="M158.6,382.8H81.5v-10.1h77.1V382.8z M85.1,379.3H155v-3H85.1V379.3z"/>
	</g>
	<g id="XMLID_426_">
		<rect x="83.3" y="367.9" class="st0" width="73.5" height="6.5"/>
		<path class="st3" d="M158.6,376.2H81.5v-10.1h77.1V376.2z M85.1,372.7H155v-3H85.1V372.7z"/>
	</g>
</g>
<g id="XMLID_424_">
	<path class="st0" d="M631.8,126.7c-1-0.2-4.6,2.6-5.5,6.7c-0.9,4.1-0.8,7.6,0.2,7.8l42.5,10.6c0.4,0.1,0.7-0.1,0.8-0.5l2.8-12.5
		c0.2-0.9-0.4-1.8-1.3-2L631.8,126.7z"/>
	<path class="st3" d="M669.1,153.5c-0.2,0-0.4,0-0.5-0.1l-42.5-10.6c-1.4-0.3-2.1-1.7-2.2-4.1c0-1.6,0.2-3.7,0.7-5.8
		c1-4.7,5.3-8.5,7.7-8l0.1,0l39.4,10c0.8,0.2,1.6,0.7,2.1,1.5c0.5,0.8,0.7,1.7,0.5,2.6l-2.8,12.5c-0.1,0.6-0.6,1.2-1.1,1.6
		C670,153.4,669.6,153.5,669.1,153.5z M627.5,139.5l40.8,10.1l2.5-11.2l-39.1-10c-0.8,0.4-3,2.3-3.7,5.2
		C627.4,136.6,627.4,138.7,627.5,139.5z M626.9,139.4L626.9,139.4C626.9,139.4,626.9,139.4,626.9,139.4z M631.8,128.4L631.8,128.4z"
		/>
</g>
<g id="XMLID_423_">
	<path class="st11" d="M675.2,145.9c-0.8,3.8-3.5,5.9-6,5.4c-2.5-0.5-3.8-3.6-3-7.4c0.8-3.8,3.4-5.8,5.9-5.3
		S676.1,142.1,675.2,145.9z"/>
</g>
<g id="XMLID_422_">
	<path class="st0" d="M625.2,133.6c-1-0.2-3.3,2.9-4.2,6.9c-0.9,4.1-0.1,7.6,0.9,7.8l36.3,10.1c0.4,0.1,0.7-0.1,0.8-0.5l2.8-12.5
		c0.2-0.9-0.4-1.8-1.3-2L625.2,133.6z"/>
	<path class="st3" d="M658.4,160.3c-0.2,0-0.4,0-0.5-0.1L621.5,150c-0.8-0.2-2-1-2.5-3.9c-0.3-1.8-0.2-3.9,0.3-6
		c0.8-3.7,3.4-9,6.3-8.3l0.1,0l35.3,9.9c0.8,0.2,1.6,0.7,2.1,1.5c0.5,0.8,0.7,1.7,0.5,2.6l-2.8,12.5c-0.1,0.6-0.6,1.2-1.1,1.6
		C659.3,160.1,658.9,160.3,658.4,160.3z M622.8,146.7l34.8,9.7l2.5-11.2l0,0l-34.7-9.8c-0.6,0.6-1.9,2.6-2.5,5.5
		C622.2,143.8,622.5,146,622.8,146.7z M622.4,146.6l0.1,0C622.4,146.6,622.4,146.6,622.4,146.6z"/>
</g>
<g id="XMLID_421_">
	<path class="st11" d="M664.4,152.6c-0.9,4-3.6,6.3-6.1,5.7c-2.5-0.5-3.8-3.8-2.9-7.7c0.9-4,3.5-6.1,6-5.6
		C663.9,145.6,665.2,148.7,664.4,152.6z"/>
</g>
<g id="XMLID_420_">
	<path class="st0" d="M481.5,272l62.7,3.3l10.6-47.6l14.6-29.7l20.8-28.3c0.4-0.6,0.4-1.4-0.1-1.9l-23.1-24.8
		c-2.4-2.7-6.3-3.4-9.5-1.8C540.5,150,495.4,180.7,481.5,272z"/>
	<path class="st3" d="M545.6,277.1l-66.2-3.4l0.3-1.9c6-39.6,18.5-72.3,37.2-97.1c14.5-19.4,29.6-29.8,39.7-35
		c3.9-2.1,8.7-1.2,11.7,2.2l23,24.8c1.1,1.1,1.2,2.9,0.2,4.2l-20.7,28.2l-14.4,29.4L545.6,277.1z M483.5,270.3l59.2,3.1L553,227
		l14.8-30.2l20.6-28.1l-22.9-24.6c-1.9-2.1-4.9-2.7-7.4-1.4C505.2,170.5,488.4,239.7,483.5,270.3z"/>
</g>
<g id="XMLID_416_">
	<g id="XMLID_419_">
		<path class="st4" d="M635.5,148.1c0,0,4.2-13,8-15.8c1.4-1,3.7-1.2,6-1c1.6,0.1,3,0.9,4.3,2.1c3.6,3.4,4,9.1,1.2,13.3l-6.4,9.8
			L635.5,148.1z"/>
		<path class="st3" d="M649.1,158.8l-15.5-10l0.4-1.2c0.4-1.4,4.5-13.6,8.6-16.6c1.6-1.1,3.9-1.6,7.1-1.3c1.9,0.2,3.7,1.1,5.3,2.6
			c4.1,3.9,4.7,10.5,1.5,15.4L649.1,158.8z M637.5,147.4l10.6,6.8l5.5-8.4c2.4-3.6,1.9-8.4-1-11.1c-1-1-2.1-1.6-3.3-1.7
			c-2.3-0.2-4,0-4.9,0.6C642.2,135.3,639.2,142.5,637.5,147.4z"/>
	</g>
	<g id="XMLID_418_">
		<path class="st0" d="M556.1,184l45.2,26.1c4.6,2.6,10.3,1.4,13.5-3l33.5-46.5c1.1-1.5,0.7-3.5-0.8-4.5l-11.2-7.2
			c-1.7-1.1-4-0.8-5.3,0.9l-27.4,32.9l-33.7-22.4c-6.4-4.2-14.8-2.1-18.6,4.7v0C547.4,171.7,549.6,180.2,556.1,184z"/>
		<path class="st3" d="M606.3,213.3c-2,0-4.1-0.5-5.9-1.6l-45.2-26.1c-7.3-4.2-9.9-13.8-5.6-21.4c2.1-3.7,5.6-6.4,9.7-7.4
			c4-1,8.1-0.2,11.5,2.1l32.4,21.5l26.4-31.7c1.9-2.3,5.2-2.8,7.7-1.2l11.2,7.2c1.1,0.7,1.9,1.9,2.1,3.2c0.3,1.3-0.1,2.7-0.8,3.8
			l-33.5,46.5C613.8,211.5,610.1,213.3,606.3,213.3z M557,182.4l45.2,26.1c3.7,2.2,8.5,1.1,11.1-2.5l33.5-46.5
			c0.2-0.3,0.3-0.7,0.2-1.1c0-0.2-0.2-0.6-0.6-0.9l-11.2-7.2c-1-0.6-2.2-0.4-3,0.5L603.9,185l-35.1-23.3c-2.6-1.7-5.7-2.3-8.7-1.6
			c-3.1,0.8-5.8,2.8-7.4,5.7C549.4,171.7,551.3,179.2,557,182.4L557,182.4z"/>
	</g>
	<g id="XMLID_417_">
		<line class="st6" x1="626.6" y1="154.8" x2="643.7" y2="166.9"/>
		
			<rect x="633.4" y="150.5" transform="matrix(0.5791 -0.8153 0.8153 0.5791 136.1756 585.5444)" class="st3" width="3.5" height="20.9"/>
	</g>
</g>
<g id="XMLID_415_">
	<line class="st0" x1="515" y1="243.9" x2="537.5" y2="244.7"/>
	
		<rect x="524.5" y="233" transform="matrix(3.878447e-02 -0.9992 0.9992 3.878447e-02 261.733 760.6793)" class="st3" width="3.6" height="22.5"/>
</g>
<g id="XMLID_414_">
	<rect x="674" y="258.6" class="st0" width="55.5" height="33.3"/>
</g>
<g id="XMLID_413_">
	<rect x="924.6" y="572.3" class="st4" width="25.9" height="11.1"/>
	<path class="st3" d="M952.6,585.5h-30.1v-15.3h30.1V585.5z M926.7,581.3h21.7v-6.9h-21.7V581.3z"/>
</g>
<g id="XMLID_412_">
	<path class="st11" d="M977.5,582.8v15.9l56.9,3.1c2.8,0.2,4.8-2.7,4-5.6l-0.6-2.3c-1.9-3.9-5.5-6.6-9.5-7.2l-29.5-3.9H977.5z"/>
	<path class="st3" d="M1034.6,603.5c-0.1,0-0.2,0-0.3,0l-56.9-3.1c-0.9-0.1-1.7-0.8-1.7-1.7v-15.9c0-1,0.8-1.8,1.8-1.8h21.2
		c0.1,0,0.2,0,0.2,0l29.5,3.9c4.6,0.6,8.7,3.7,10.9,8.1c0,0.1,0.1,0.2,0.1,0.3l0.6,2.3c0.6,2,0.1,4.1-1.1,5.7
		C1037.9,602.7,1036.3,603.5,1034.6,603.5z M979.3,597l55.2,3c0.9,0.1,1.5-0.5,1.7-0.8c0.6-0.7,0.7-1.7,0.5-2.6l-0.6-2.1
		c-1.7-3.3-4.7-5.6-8.1-6l-29.4-3.9h-19.3V597z"/>
</g>
<g id="XMLID_411_">
	<polygon class="st11" points="995.3,605.5 977.5,605.5 977.5,598.6 995.3,599.6 	"/>
	<path class="st3" d="M995.3,607.3h-17.8c-1,0-1.8-0.8-1.8-1.8v-6.9c0-0.5,0.2-0.9,0.5-1.3c0.3-0.3,0.8-0.5,1.3-0.5l17.8,1
		c0.9,0.1,1.7,0.8,1.7,1.7v5.9C997,606.5,996.3,607.3,995.3,607.3z M979.3,603.8h14.3v-2.5l-14.3-0.8V603.8z"/>
</g>
<g id="XMLID_410_">
	<path class="st0" d="M840.2,190.9l33.9-31.9c5.4-5.1,12.5-7.9,19.9-7.9h39c7.8,0,15.2,3.1,20.7,8.6l30.7,31.1H840.2z"/>
	<path class="st3" d="M988.6,192.7H835.7l37.2-35c5.7-5.4,13.2-8.4,21.1-8.4h39c8.2,0,16.2,3.3,21.9,9.2L988.6,192.7z M844.7,189.2
		h135.3l-27.7-28.1c-5.1-5.2-12.1-8.1-19.4-8.1h-39c-7,0-13.6,2.6-18.6,7.4L844.7,189.2z"/>
</g>
<g id="XMLID_409_">
	<path class="st0" d="M891.9,152.3l7.3-9.9c0.6-1.1,2-1.4,3-0.7l12.2,10.3l-3.6,9.7c-0.8,2.2-3.5,2.9-5.3,1.5L891.9,152.3z"/>
	<path class="st3" d="M907.5,165.7c-1.2,0-2.3-0.4-3.2-1.1l-14.9-11.9l8.3-11.2c0.5-0.9,1.4-1.6,2.5-1.8c1.1-0.2,2.2,0,3.1,0.6
		l0.1,0.1l13.2,11.1l-4.1,10.9c-0.6,1.6-1.9,2.7-3.5,3.2C908.5,165.6,908,165.7,907.5,165.7z M894.4,152l12.2,9.8
		c0.4,0.3,0.9,0.4,1.4,0.3c0.5-0.1,0.9-0.5,1.1-1l3.2-8.5l-11.2-9.4c0,0-0.1,0-0.1,0c-0.1,0-0.1,0.1-0.2,0.2l-0.1,0.2L894.4,152z"/>
</g>
<g id="XMLID_408_">
	<path class="st0" d="M938.8,151.8l-7.9-9.3c-0.7-1.2-2.2-1.6-3.4-0.8l-13.1,9.5l4.2,11.5c0.6,1.6,2.6,2.3,4,1.2L938.8,151.8z"/>
	<path class="st3" d="M921.1,166.2c-0.4,0-0.8-0.1-1.3-0.2c-1.3-0.4-2.4-1.4-2.9-2.7l-4.6-12.8l14.1-10.3c1-0.7,2.2-0.9,3.3-0.6
		c1.1,0.2,2,0.9,2.6,1.8l9,10.6l-17.6,13.3C922.9,165.9,922,166.2,921.1,166.2z M916.6,151.8l3.7,10.3c0.1,0.3,0.4,0.5,0.5,0.5
		c0.1,0,0.4,0.1,0.7-0.1l14.6-11l-6.9-8.1c-0.1-0.2-0.3-0.2-0.4-0.3c-0.1,0-0.3,0-0.4,0.1L916.6,151.8z"/>
</g>
<g id="XMLID_407_">
	<line class="st0" x1="914.4" y1="151.2" x2="912.3" y2="190.9"/>
	
		<rect x="893.5" y="169.3" transform="matrix(5.445457e-02 -0.9985 0.9985 5.445457e-02 692.8179 1073.7595)" class="st3" width="39.8" height="3.6"/>
</g>
<g id="XMLID_403_">
	<circle class="st4" cx="909.2" cy="119.5" r="5.2"/>
	<path class="st3" d="M909.2,126.2c-3.7,0-6.7-3-6.7-6.7s3-6.7,6.7-6.7s6.7,3,6.7,6.7S912.9,126.2,909.2,126.2z M909.2,115.9
		c-2,0-3.7,1.6-3.7,3.7s1.6,3.7,3.7,3.7s3.7-1.6,3.7-3.7S911.2,115.9,909.2,115.9z"/>
</g>
<g id="XMLID_402_">
	<circle class="st4" cx="926.4" cy="119.5" r="5.2"/>
	<path class="st3" d="M926.4,126.2c-3.7,0-6.7-3-6.7-6.7s3-6.7,6.7-6.7s6.7,3,6.7,6.7S930,126.2,926.4,126.2z M926.4,115.9
		c-2,0-3.7,1.6-3.7,3.7s1.6,3.7,3.7,3.7s3.7-1.6,3.7-3.7S928.4,115.9,926.4,115.9z"/>
</g>
<g id="XMLID_401_">
	<line class="st4" x1="905.1" y1="116.5" x2="901.4" y2="110.4"/>
	<rect x="901.8" y="109.9" transform="matrix(0.8585 -0.5128 0.5128 0.8585 69.642 479.2792)" class="st3" width="3" height="7.1"/>
</g>
<g id="XMLID_400_">
	<line class="st4" x1="930.5" y1="116.5" x2="935.5" y2="112.7"/>
	<rect x="929.9" y="113.1" transform="matrix(0.7916 -0.611 0.611 0.7916 124.3975 593.9213)" class="st3" width="6.3" height="3"/>
</g>
<g id="XMLID_399_">
	<line class="st4" x1="914.2" y1="118.2" x2="920.8" y2="118.2"/>
	<rect x="914.2" y="116.7" class="st3" width="6.7" height="3"/>
</g>
<g id="XMLID_398_">
	<path class="st5" d="M901.4,101.2"/>
</g>
<g id="XMLID_346_">
	<path class="st2" d="M941.1,108.7c0,0-5.4-7-6.8-9.7c-2.2-4.6-20-18-31.9,1.9c0,0,0.3,0.2,0.8,0.5c-0.7,1.7-1.9,4.8-1.8,8.3
		c0,0,6.4-0.2,10.1-4C918.6,108.6,929.1,111.2,941.1,108.7z"/>
	<path class="st3" d="M901.4,111.5c-0.9,0-1.7-0.7-1.7-1.7c-0.1-3,0.7-5.9,1.4-7.8c-0.5-0.6-0.5-1.4-0.1-2c5.9-9.8,13-11.6,18-11.4
		c8.2,0.4,15.4,6.5,17,9.6c1,2.1,5.1,7.5,6.6,9.4c0.4,0.5,0.5,1.1,0.3,1.7c-0.2,0.6-0.7,1-1.3,1.1c-12,2.5-22.5,0-29.5-2.7
		C907.7,111.3,901.8,111.5,901.4,111.5C901.5,111.5,901.5,111.5,901.4,111.5z M911.6,104c0.2,0,0.4,0,0.7,0.1
		c6,2.5,15.2,4.9,25.8,3.4c-1.8-2.3-4.3-5.9-5.2-7.7c-1.1-2.2-7.1-7.4-14-7.7c-5.5-0.2-10.2,2.6-14.1,8.5c0.3,0.5,0.3,1.1,0.1,1.6
		c-0.5,1.2-1.3,3.3-1.6,5.6c2-0.3,5-1.2,7.1-3.3C910.6,104.2,911.1,104,911.6,104z"/>
</g>
<g id="XMLID_345_">
	<circle class="st3" cx="926.5" cy="119.5" r="1.3"/>
</g>
<g id="XMLID_344_">
	<circle class="st3" cx="909.4" cy="119.5" r="1.3"/>
</g>
<g id="XMLID_343_">
	<rect x="970.2" y="282.7" class="st8" width="73.9" height="41.7"/>
</g>
<g id="XMLID_342_">
	<rect x="970.2" y="292.3" class="st0" width="73.9" height="2"/>
</g>
<g id="XMLID_341_">
	<rect x="1004.8" y="303.5" class="st0" width="28.9" height="12.2"/>
</g>
<g id="XMLID_340_">
	<rect x="913.4" y="303" class="st8" width="44.9" height="21.1"/>
</g>
<g id="XMLID_335_">
	<g id="XMLID_339_">
		<path class="st8" d="M938.9,293.7c-0.6,0.5-0.2,1.2-0.3,1.8c0,0.6-0.2,0.8-0.8,0.8c-1.9,0-3.8,0-5.8,0c-0.5,0-0.8-0.1-0.8-0.7
			c0-0.6,0-1.1,0-1.7c0-0.3,0-0.6,0.4-0.6c1.3,0.1,1-0.8,1-1.4c0-0.4,0-0.9,0-1.3c0-0.9-0.2-1.6-1.2-1.7c-1-0.1-1.9,0.3-2.1,1.4
			c-0.1,0.8-0.1,1.6-0.1,2.5c0,0.4,0.2,0.5,0.6,0.5c1.8,0.2,0.7,1.5,0.8,2.3c0.2,1-0.7,0.7-1.1,0.7c-1.7,0-3.4,0-5.1,0
			c-0.8,0-1.2-0.1-1-1c0.2-0.8-0.6-2.1,1.1-2.2c0.1,0,0.1-0.4,0.1-0.6c0-1,0-2,0-3c0-0.3,0-0.5-0.3-0.7c-0.3-0.1-0.9,0.2-0.9-0.4
			c-0.1-0.8,0-1.6,0-2.3c0-0.4,0.5-0.3,0.8-0.3c1.1,0,2.2,0,3.3,0c1.2-0.1,2.2-0.1,1.4,2.1c1.8-1.7,3.5-2.2,5.4-1.9
			c1.9,0.3,3,1.4,3,3.3c0,1.1,0,2.2,0,3.3c0,0.5,0.2,0.7,0.7,0.6c0.6-0.1,0.3-0.5,0.3-0.8c-0.3-1.4-0.3-2.7,0.6-3.8
			C939.9,289.8,939.9,292.5,938.9,293.7z"/>
	</g>
	<g id="XMLID_338_">
		<path class="st8" d="M918.3,282.7c1.2,0,2.4,0.1,3.7,0c0.8,0,1.1,0.2,1,1c-0.1,0.4,0,0.9,0,1.3c0.1,0.7-0.2,1-0.9,0.9
			c-0.7-0.1-1,0.1-1,0.9c0.1,1.9,0,3.7,0,5.6c0,0.7,0.2,1,0.9,0.9c0.9-0.1,1,0.3,1,1.1c0,1.9,0,1.9-1.9,1.9c-2.1,0-4.3,0-6.4,0
			c-0.8,0-1.2-0.2-1.1-1.1c0.1-0.4,0-0.9,0-1.3c0-0.4,0-0.7,0.5-0.7c1.3,0.2,1.2-0.6,1.1-1.4c0-1.7,0-3.4,0-5.1c0-0.5,0-1-0.7-0.9
			c-0.9,0.2-1-0.3-1-1c0-2.2,0-2.2,2.2-2.2C916.6,282.7,917.4,282.7,918.3,282.7z"/>
	</g>
	<g id="XMLID_337_">
		<path class="st8" d="M938.9,293.7c0.4-1.7,0.4-3.4,0-5.1c1.6-2.5,4.1-2.8,6.8-2.6c2.1,0.2,3.7,1.1,4.4,3.2
			c0.2,0.6,0.2,1.1-0.7,1.1c-0.5,0-0.9,0.1-1.4,0.2c-0.9,0.1-1.9,0.4-2-1.1c0-0.7-0.7-1-1.4-0.9c-0.7,0-1.3,0.2-1.5,1
			c-0.4,1.2-0.4,2.5,0,3.7c0.2,0.6,0.8,0.9,1.5,0.9c0.7,0,1.4-0.1,1.5-0.8c0.2-0.9,0.8-0.8,1.5-0.8c0.6,0,1.2,0.1,1.8,0
			c0.9-0.1,0.9,0.4,0.7,1c0.3,0.4,0.3,0.8-0.3,1c-2.3,2.4-5.2,2.3-8.1,1.6C940.7,295.7,939.5,295,938.9,293.7z"/>
	</g>
	<g id="XMLID_336_">
		<path class="st8" d="M950,294.4c0.2-0.3,0.3-0.7,0.3-1c0.2-0.1,0.4-0.1,0.6-0.2c1.1-0.5,2-0.2,2.4,0.7c0.4,0.9,0.1,1.9-0.9,2.3
			c-1,0.4-1.8,0-2.2-1.1C950.1,294.8,950,294.6,950,294.4z"/>
	</g>
</g>
<g id="XMLID_334_">
	<path class="st0" d="M761.4,538.5c0-0.1-0.1-0.3-0.2-0.3h-55.5l7.9,48.6h0c0,0.1,0,0.1,0,0.2c0,1.8,8.4,3.3,18.9,3.3
		c10.4,0,18.9-1.5,18.9-3.3c0-0.1,0-0.2-0.1-0.3L761.4,538.5z"/>
	<path class="st3" d="M732.4,592.2c-6.7,0-17.2-0.5-20-3.5h-0.4l-0.1-0.8c-0.1-0.2-0.1-0.5-0.1-0.8c0,0,0,0,0,0l-8.2-50.6h57.6
		c0.6,0,1.2,0.3,1.6,0.7s0.5,1.1,0.4,1.7l0,0l-10,47.8c0,0.1,0,0.2,0,0.4C753.1,591.5,740.2,592.2,732.4,592.2z M715.5,586.6
		c1.7,0.8,7.4,2,16.9,2c9.6,0,15.4-1.2,17-2l9.8-46.5h-51.5l7.3,45.1h0.8L715.5,586.6z M715.3,587.3L715.3,587.3
		C715.3,587.3,715.3,587.3,715.3,587.3z"/>
</g>
<g id="XMLID_333_">
	<ellipse class="st3" cx="733.5" cy="537.5" rx="29.2" ry="4.8"/>
</g>
<g id="XMLID_332_">
	<path class="st0" d="M707.2,546.8c0,0,21.2,9.1,52.7,0"/>
	<path class="st3" d="M732.2,552.7c-15.5,0-25-4-25.6-4.2l1.4-3.3l-0.7,1.6l0.7-1.6c0.2,0.1,21.1,8.7,51.5-0.1l1,3.4
		C749.6,551.7,740.1,552.7,732.2,552.7z"/>
</g>
<g id="XMLID_331_">
	<path class="st0" d="M178.3,540.7c0-0.1-0.1-0.3-0.2-0.3h-55.5l7.9,48.6h0c0,0.1,0,0.1,0,0.2c0,1.8,8.4,3.3,18.9,3.3
		c10.4,0,18.9-1.5,18.9-3.3c0-0.1,0-0.2-0.1-0.3L178.3,540.7z"/>
	<path class="st3" d="M149.3,594.3c-6.7,0-17.2-0.5-20-3.5H129l-0.1-0.8c-0.1-0.2-0.1-0.5-0.1-0.8c0,0,0,0,0,0l-8.2-50.6H178
		c0.6,0,1.2,0.3,1.6,0.7c0.4,0.5,0.5,1.1,0.4,1.7l0,0l-10,47.8c0,0.1,0,0.2,0,0.4C170,593.7,157.1,594.3,149.3,594.3z M132.4,588.8
		c1.7,0.8,7.4,2,16.9,2c9.6,0,15.4-1.2,17-2l9.8-46.5h-51.5l7.3,45.1h0.8L132.4,588.8z M132.2,589.5L132.2,589.5
		C132.2,589.5,132.2,589.5,132.2,589.5z"/>
</g>
<g id="XMLID_330_">
	<ellipse class="st3" cx="150.4" cy="539.6" rx="29.2" ry="4.8"/>
</g>
<g id="XMLID_329_">
	<path class="st0" d="M124.1,549c0,0,21.2,9.1,52.7,0"/>
	<path class="st3" d="M149.1,554.9c-15.5,0-25-4-25.6-4.2l1.4-3.3l-0.7,1.6l0.7-1.6c0.2,0.1,21.1,8.7,51.5-0.1l1,3.4
		C166.5,553.8,157,554.9,149.1,554.9z"/>
</g>
<g id="XMLID_313_" class="st14">
	<polygon class="st0" points="213.5,258.7 305,348.4 322.6,348.4 230.3,258.7 	"/>
</g>
<g id="XMLID_312_" class="st14">
	<polygon class="st0" points="279.2,258.7 342.6,326.6 342.6,319.1 285.6,258.7 	"/>
</g>
<g id="XMLID_311_">
	<path class="st0" d="M416.7,187.8l54.3-83.5c2.8-4.6,7.8-7.2,13.1-7l26.8,10.6c5,3.2,3.7,8.3,3.9,12.8l-6.1,67.5L416.7,187.8z"/>
	<path class="st3" d="M510.4,190l-97-0.5l56.1-86.3c3.1-5.1,8.7-8.1,14.7-7.8l0.3,0l27.4,10.9c4.9,3.2,4.8,7.9,4.7,11.8
		c0,0.9,0,1.7,0,2.5l0,0.1L510.4,190z M419.9,186l87.2,0.4l5.9-65.8c0-0.9,0-1.7,0-2.6c0.1-4,0-6.7-2.9-8.6L483.8,99
		c-4.6-0.1-8.9,2.3-11.3,6.2L419.9,186z"/>
</g>
<g id="XMLID_310_">
	<path class="st4" d="M492.6,90.8c0,0,5.3-8.7,6.1-10.8c0.9-2.1-2-12.5,2.4-18.5s13.5-11.5,21.6-9.4c8.1,2.2,15,11.8,11.1,20.2
		l-3.1,4.3l-0.4,9.6c0,0.1-0.1,0.2-0.2,0.1l-3.6-0.9c-1.4-0.4-2.8,0.2-3.6,1.4l-3.3,4.7c-0.7,1-1.9,1.5-3.1,1.2l-3.6-0.8
		c-0.8-0.2-1.7,0.2-2.2,0.9l-3.1,4.2L492.6,90.8z"/>
	<path class="st3" d="M508.1,99l-17.7-7.5l0.9-1.5c1.4-2.4,5.3-8.9,6-10.6c0.1-0.4,0-2-0.1-3.3c-0.3-4.4-0.7-10.9,2.7-15.4
		c4.9-6.5,14.7-12.2,23.2-9.9c5,1.4,9.5,5.2,11.8,10.1c1.9,4.1,2,8.4,0.2,12.2l-0.1,0.2l-2.8,4l-0.4,9.2c0,0.5-0.3,1-0.7,1.2
		c-0.4,0.3-0.9,0.4-1.4,0.3l-3.6-0.9c-0.8-0.2-1.6,0.1-2,0.8l-3.3,4.7c-1,1.5-2.8,2.2-4.6,1.8l-3.6-0.8c-0.3-0.1-0.6,0-0.7,0.3
		L508.1,99z M494.7,90.1l12.3,5.2l2.4-3.2c0.9-1.2,2.3-1.7,3.8-1.4l3.6,0.8c0.6,0.1,1.2-0.1,1.5-0.6l3.3-4.7
		c1.2-1.7,3.3-2.5,5.2-1.9l2,0.5l0.4-8.4l3.2-4.6c1.7-3.8,0.8-7.3-0.3-9.5c-1.9-4-5.8-7.4-9.9-8.5c-7.3-2-15.7,3.1-20,8.8
		c-2.7,3.6-2.3,9.5-2.1,13.4c0.1,2.2,0.2,3.7-0.2,4.7C499.4,82.3,496.3,87.5,494.7,90.1z"/>
</g>
<g id="XMLID_309_">
	<polygon class="st0" points="483.5,97.2 492.6,89.5 510.8,97.2 510.9,107.9 	"/>
	<path class="st3" d="M512.7,110.5L480,97.7l12.2-10.3l20.3,8.6L512.7,110.5z M486.9,96.6l22.2,8.7l-0.1-6.9l-16.2-6.8L486.9,96.6z"
		/>
</g>
<g id="XMLID_308_">
	<path class="st4" d="M517.8,70.8c0,0,6.6-3.2,9.3,3.5"/>
	<path class="st3" d="M525.2,75.1c-0.6-1.4-1.4-2.3-2.4-2.7c-1.9-0.7-4,0.3-4,0.3l-1.9-3.8c0.4-0.2,3.8-1.8,7.4-0.5
		c2.2,0.8,3.8,2.5,4.9,5.1L525.2,75.1z"/>
</g>
<g id="XMLID_307_">
	<path class="st4" d="M811.4,96.5c0,0,3.9-6.2,9.8-1.8"/>
	<path class="st3" d="M812.7,97.3l-2.5-1.6c0.1-0.1,2.1-3.3,5.6-4c2.1-0.4,4.2,0.2,6.3,1.7l-1.8,2.4c-1.4-1-2.7-1.4-4-1.2
		C814.1,95.1,812.7,97.3,812.7,97.3z"/>
</g>
<g id="XMLID_306_">
	<path class="st4" d="M827,94.8c0,0,3.9-6.2,9.8-1.8"/>
	<path class="st3" d="M828.2,95.6l-2.5-1.6c0.1-0.1,2.1-3.3,5.6-4c2.1-0.4,4.2,0.2,6.3,1.7l-1.8,2.4c-1.4-1-2.7-1.4-4-1.2
		C829.7,93.4,828.2,95.6,828.2,95.6z"/>
</g>
<g id="XMLID_305_">
	<ellipse transform="matrix(0.243 -0.97 0.97 0.243 321.4359 562.4675)" class="st3" cx="521.1" cy="75.3" rx="1.7" ry="1.7"/>
</g>
<g id="XMLID_304_">
	<path class="st2" d="M515,61.1c3.6,3,15.5,12.1,27.5,12.5c0,0-6-8.3-6.8-11.4c-0.8-3.2-10.1-20-28.4-11.4c0,0-7.3,0.5-9.8,5.4
		c-2.5,4.9-3.7,14.1,1.2,20.9l3.4,0.8c1.4,0.4,2.9-0.5,3.3-1.9l0.6-2.1c0.2-0.8,0.2-1.7-0.1-2.4c-0.8-2.1-1.7-6.7,3.9-8.2
		c0.6-0.2,1.1-0.5,1.6-0.9l1.4-1.3C513.4,60.5,514.4,60.5,515,61.1z"/>
	<path class="st3" d="M502.8,79.8c-0.4,0-0.7,0-1.1-0.1l-3.4-0.8c-0.4-0.1-0.8-0.3-1-0.7c-5.6-7.8-3.9-17.9-1.4-22.8
		c2.6-5.1,9.3-6.1,10.9-6.3c6.7-3.1,12.9-3.3,18.6-0.7c7.4,3.5,11.4,11,12,13.3c0.5,2.1,4.3,7.8,6.5,10.9c0.4,0.5,0.4,1.3,0.1,1.9
		c-0.3,0.6-0.9,0.9-1.6,0.9c-12.5-0.5-24.9-9.9-28.5-12.9l-1.3,1.2c-0.7,0.6-1.5,1.1-2.3,1.3c-1.5,0.4-2.4,1-2.9,1.9
		c-0.7,1.3-0.2,3,0.2,4c0.4,1.1,0.5,2.3,0.2,3.5l-0.6,2.1C506.6,78.4,504.8,79.8,502.8,79.8z M499.9,75.6l2.7,0.7
		c0.5,0.1,1-0.2,1.2-0.7l0.6-2.1c0.1-0.5,0.1-0.9-0.1-1.4c-0.7-1.8-1.2-4.4,0-6.8c0.9-1.8,2.6-3,5.1-3.7c0.3-0.1,0.6-0.2,0.9-0.5
		l1.4-1.3c1.3-1.2,3.2-1.2,4.5-0.1l0,0c2.9,2.4,12.6,9.8,22.8,11.7c-1.9-2.8-4.3-6.7-4.8-8.8c-0.4-1.6-3.8-8.1-10.1-11
		c-4.7-2.2-10.1-2-15.9,0.8c-0.2,0.1-0.4,0.1-0.6,0.2c-0.1,0-6.3,0.5-8.4,4.5C497.1,60.8,495.6,69.2,499.9,75.6z"/>
</g>
<g id="XMLID_303_">
	<path class="st4" d="M542.4,139.9c0,0,6.3-10,10.5-13.1c3.1-2.3,14.9,1.2,20.8,3.1c1.8,0.6,2.7,2.7,1.8,4.4l-2.9,5.5
		c-0.6,1.1-1.6,1.8-2.8,2c-3.9,0.6-12.6,2.1-15.2,3.9c-3.3,2.4-9.3,7.3-9.3,7.3L542.4,139.9"/>
	<path class="st3" d="M544.4,156.1l-3.8-16.4l0.4-0.6c0.3-0.4,6.5-10.3,10.9-13.6c1-0.8,4.2-3.1,22.3,2.9c1.3,0.4,2.4,1.4,2.9,2.7
		c0.5,1.3,0.5,2.8-0.2,4l-2.9,5.5c-0.8,1.5-2.3,2.6-4,2.9c-7.4,1.1-12.9,2.5-14.4,3.6c-3.2,2.3-9.1,7.2-9.2,7.2L544.4,156.1z
		 M544.1,140.2l2.3,9.9c2.1-1.7,5.2-4.1,7.3-5.7c2.6-1.9,10.1-3.4,15.9-4.3c0.7-0.1,1.3-0.5,1.6-1.1l2.9-5.5c0.3-0.5,0.2-1,0.1-1.2
		c-0.1-0.2-0.3-0.6-0.9-0.8c-11.4-3.8-17.9-4.4-19.3-3.4C550.8,130.4,546.1,137.2,544.1,140.2z"/>
</g>
<g id="XMLID_302_">
	<path class="st0" d="M460.2,125.4l-9.8,39.8c-1.1,2.9,2,13.1,6.3,16c10.1,6.8,20.8,11.6,31.8,6.3c0,0,52.2-25.9,60.8-31.2
		c0.6-0.4,0.8-1.2,0.4-1.8c-1.5-2.6-5.5-10.1-6.8-18.4c-0.2-1.3-1.6-2-2.8-1.4l-54.6,27.6c-6.5,2.8-2.2-7.9-2.2-8.1l5.7-18.1
		c3.6-9.8-3.4-20.2-13.8-20.7h0C468.6,115.2,462.6,119.2,460.2,125.4z"/>
	<path class="st3" d="M478.7,191.5c-8.6,0-16.6-4.5-23.1-8.8c-3.2-2.2-5.1-6.9-5.8-8.9c-1.1-3-1.9-6.9-1.1-9.1l9.9-39.9
		c2.6-7,9.3-11.4,16.8-11.1c5.5,0.2,10.5,3,13.6,7.6c3.1,4.6,3.7,10.2,1.8,15.4l-5.8,18.1c-1.2,3-1.5,5.3-1.2,6.1
		c0.2,0,0.5-0.1,1-0.3l54.5-27.6c1-0.5,2.3-0.6,3.3-0.1c1.1,0.5,1.8,1.6,2,2.8c1.3,8,5.1,15.1,6.6,17.8c0.9,1.5,0.4,3.3-1.1,4.2
		c-8.6,5.2-58.8,30.2-60.9,31.2C485.7,190.8,482.2,191.5,478.7,191.5z M462,126l-9.9,39.8c-0.8,2.1,2,11.4,5.6,13.9
		c8.8,6,19.3,11.3,30,6.2c0.5-0.2,50.7-25.2,60.3-30.9c-1.8-3.1-5.5-10.5-6.8-18.6c0,0,0-0.1-0.1-0.1c0,0-0.1,0-0.1,0l-54.7,27.7
		c-2.6,1.1-4.1,0.4-4.9-0.3c-2.1-2-1-6.6,0.4-10l5.7-18c1.5-4.2,1-8.7-1.4-12.3c-2.4-3.7-6.4-5.9-10.7-6
		C469.4,117,464,120.5,462,126z"/>
</g>
<g id="XMLID_301_">
	<path class="st3" d="M495.4,102.9l6.2,17.8l4.9-0.1c0,0,3.5-8,1.6-12.7c-1.3-3.3-6.3-3.9-12.6-3.5"/>
</g>
<g id="XMLID_300_">
	<polygon class="st3" points="508.6,151.5 499.6,156.7 501.6,120.7 506.5,120.6 	"/>
</g>
<g id="XMLID_299_">
	<line class="st0" x1="529.5" y1="140" x2="538.2" y2="162.3"/>
	
		<rect x="532.1" y="139.2" transform="matrix(0.9318 -0.363 0.363 0.9318 -18.4607 204.0763)" class="st3" width="3.6" height="23.9"/>
</g>
<g id="XMLID_293_">
	<path class="st0" d="M924.9,181L924.9,181c0.1,1.5,1,2.7,2.1,2.6l13.1-0.3c1.2,0,2.1-1.5,1.9-3.2l0,0c-0.1-1.4-1-2.4-1.9-2.4H927
		C925.8,177.7,924.8,179.2,924.9,181z"/>
	<path class="st3" d="M927,185.4c-2,0-3.6-1.8-3.8-4.3v0c-0.1-1.5,0.4-3,1.3-4c0.7-0.7,1.6-1.2,2.5-1.2h13.1c1.9,0,3.5,1.7,3.7,4.1
		c0.1,1.5-0.3,3-1.2,4c-0.7,0.7-1.5,1.2-2.5,1.2L927,185.4C927,185.4,927,185.4,927,185.4z M927.1,179.5c-0.1,0.1-0.4,0.6-0.4,1.3v0
		c0,0.5,0.2,0.9,0.4,1l12.9-0.3c0.1-0.1,0.3-0.6,0.3-1.2c0-0.4-0.2-0.7-0.3-0.8H927.1z"/>
</g>
<g id="XMLID_292_">
	<path class="st9" d="M808.9,171.1"/>
</g>
<g id="XMLID_291_">
	<path class="st0" d="M816.3,168.3l31,10.9c2.4,0.8,5.1,0.3,6.9-1.4l17.6-16.1c2.5-2.2,6.4-0.4,6.2,2.9l-0.3,4.3
		c-0.6,7-3.1,22.3-3.1,22.3s-3.8-0.3-8-0.4c-1.4,0-3.3,0-4.3,0l-37.3,0L816.3,168.3"/>
	<path class="st3" d="M876.1,193.2l-1.6-0.1c0,0-3.8-0.3-7.9-0.4c-0.9,0-2.2,0-3.2,0l-1.2,0l-38.5,0l-10.5-27.3l34.7,12.2
		c1.8,0.6,3.7,0.2,5.1-1l17.6-16.1c1.7-1.5,4-1.9,6.1-0.9c2.1,1,3.3,3,3.2,5.3l-0.4,4.3c-0.6,7-3,21.8-3.1,22.4L876.1,193.2z
		 M865.1,189.1c0.5,0,1.1,0,1.5,0c2.6,0,5,0.2,6.5,0.3c0.7-4.1,2.4-15,2.8-20.5l0.3-4.3c0.1-1.2-0.8-1.7-1.1-1.8
		c-0.3-0.1-1.2-0.5-2.1,0.3l-17.6,16.1c-2.4,2.2-5.7,2.8-8.7,1.8l-27.4-9.7l6.9,17.8l36,0l1.1,0
		C863.9,189.1,864.5,189.1,865.1,189.1z"/>
</g>
<g id="XMLID_287_">
	<path class="st0" d="M825,171.5c0,0,8.2,1,9.9,6c1.5,4.3-0.1,12.9-9.9,13.4c-8.9,0.4,0-5,0-5s4.4,0.7,4.8-4.3c0,0,0.3-4-4.8-4.5
		c-5.3-0.5,0-0.9,0-0.9v-3.7"/>
	<path class="st3" d="M823.9,192.7c-1.7,0-4-0.3-4.6-2.2c-0.4-1.3,0.1-3.4,4.7-6.2l0.6-0.4l0.7,0.1l0,0c0,0,1.1,0.1,1.8-0.5
		c0.5-0.4,0.8-1.2,0.9-2.3c0-0.5-0.2-2.3-3.2-2.5c-2.1-0.2-4-0.4-4-2.3c0-1.4,1.1-1.8,2.4-2.1v-2.1h1.7l0.3-2.7
		c0.4,0,9.3,1.2,11.4,7.2c1,2.8,0.9,7.1-1.5,10.6c-1.5,2.2-4.4,4.8-10,5.1C824.8,192.7,824.4,192.7,823.9,192.7z M823.5,189.1
		c0.3,0,0.8,0,1.3,0c3.3-0.2,5.8-1.4,7.2-3.5c1.6-2.4,1.7-5.6,1.1-7.4c-0.8-2.4-4.1-3.8-6.4-4.4v1.8c4.2,1.1,4.9,4.7,4.8,6.1
		c-0.2,2.1-1,3.8-2.3,4.8c-1.4,1.1-2.9,1.2-3.8,1.2C824.7,188.1,824,188.6,823.5,189.1z"/>
</g>
<g id="XMLID_278_">
	<path class="st0" d="M801.8,168.3v26.8c0,1.7,5.3,3,11.9,3c6.6,0,11.9-1.4,11.9-3v-26.8H801.8z"/>
	<path class="st3" d="M813.7,200c-3.2,0-13.7-0.3-13.7-4.8v-28.6h27.3v28.6C827.3,199.6,816.9,200,813.7,200z M803.6,194.8
		c0.9,0.6,4.5,1.6,10.1,1.6s9.2-1,10.1-1.6v-24.7h-20.2V194.8z"/>
</g>
<g id="XMLID_277_">
	<ellipse class="st3" cx="813.7" cy="167.1" rx="13.5" ry="4"/>
</g>
<g id="XMLID_276_">
	<path class="st0" d="M194.5,371.2c0,0,8.2,1,9.9,6c1.5,4.3-0.1,12.9-9.9,13.4c-8.9,0.4,0-5,0-5s4.4,0.7,4.8-4.3c0,0,0.3-4-4.8-4.5
		c-5.3-0.5,0-0.9,0-0.9v-3.7"/>
	<path class="st3" d="M193.4,392.4c-1.7,0-4-0.3-4.6-2.2c-0.4-1.3,0.1-3.4,4.7-6.2l0.6-0.4l0.7,0.1l0,0c0,0,1.1,0.1,1.8-0.5
		c0.5-0.4,0.8-1.2,0.9-2.3c0-0.5-0.2-2.3-3.2-2.5c-2.1-0.2-4-0.4-4-2.3c0-1.4,1.1-1.8,2.4-2.1v-2.1h1.7l0.3-2.7
		c0.4,0,9.3,1.2,11.4,7.2c1,2.8,0.9,7.1-1.5,10.6c-1.5,2.2-4.4,4.8-10,5.1C194.2,392.4,193.8,392.4,193.4,392.4z M193,388.8
		c0.3,0,0.8,0,1.3,0c3.3-0.2,5.8-1.4,7.2-3.5c1.6-2.4,1.7-5.6,1.1-7.4c-0.8-2.4-4.1-3.8-6.4-4.4v1.8c4.2,1.1,4.9,4.7,4.8,6.1
		c-0.2,2.1-1,3.8-2.3,4.8c-1.4,1.1-2.9,1.2-3.8,1.2C194.2,387.8,193.5,388.3,193,388.8z"/>
</g>
<g id="XMLID_275_">
	<path class="st0" d="M171.3,366.1v28.7c0,1.7,5.3,3,11.9,3c6.6,0,11.9-1.4,11.9-3v-28.7"/>
	<path class="st3" d="M183.2,399.7c-3.2,0-13.7-0.3-13.7-4.8v-28.7h3.6v28.3c0.9,0.6,4.5,1.6,10.1,1.6c5.6,0,9.2-1,10.1-1.6v-28.3
		h3.6v28.7C196.8,399.3,186.4,399.7,183.2,399.7z"/>
</g>
<g id="XMLID_274_">
	<ellipse class="st3" cx="183.2" cy="366.3" rx="13.5" ry="2"/>
</g>
<g id="XMLID_273_">
	<path class="st9" d="M186.1,368"/>
</g>
<g id="XMLID_272_">
	<path class="st9" d="M175.8,368"/>
</g>
<g id="XMLID_271_">
	<path class="st4" d="M799,176.3c1.5-2.1,4.1-3.1,6.7-2.7c4.9,0.8,12.9,2.3,13.5,4.2c0.9,2.8,1.9,10.7-5.5,13.2
		c-7.4,2.5-12,2.2-12,2.2s-6.4-2.8-6.3-8.3C795.4,181.8,797.3,178.6,799,176.3z"/>
	<path class="st3" d="M802.2,194.6c-0.4,0-0.6,0-0.6,0l-0.3,0l-0.2-0.1c-0.3-0.1-7.3-3.3-7.2-9.7c0.1-2.8,1.4-5.9,4-9.4l0,0
		c1.9-2.5,5-3.8,8.1-3.3c13.7,2.1,14.4,4.2,14.7,5.2c1.5,4.6,1.1,12.5-6.5,15.1C808,194.4,803.7,194.6,802.2,194.6z M802,191.6
		c1,0,5.2-0.1,11.2-2.2c7-2.4,4.9-10.3,4.6-11.2c-0.2-0.2-2.1-1.7-12.3-3.2c-2-0.3-4.1,0.5-5.3,2.1l0,0c-1.5,2-3.3,5-3.4,7.7
		C796.8,188.8,800.9,191.1,802,191.6z"/>
</g>
<g id="XMLID_270_">
	<polyline class="st0" points="950.4,157 950.4,191.3 984.3,190.9 950.4,157 	"/>
	<path class="st3" d="M948.6,193.1v-40.4l40,40L948.6,193.1z M952.2,161.3v28.2l27.9-0.3L952.2,161.3z"/>
</g>
<g id="XMLID_269_">
	<path class="st3" d="M874.4,234.9c-1.9,0.4-4.1,1.8-4.8,5.8c0,0-9-1.1-5.8,7.4c0,0-6.2,1.2-3.2,7.5c0,0-6.1,3.5-1.7,8.3
		c0,0-3.8,3,0.1,6.1c0,0-2,2.5,1,3.8l9.5-1.9l13.5-25.4l15.4,6.2c0,0,4.4-2,2.9-6.9c-1.5-4.9-5.7-3.8-5.7-3.8s0.9-3.4-1.6-4.5
		c-2.5-1.2-5.6,1.3-5.6,1.3s-0.7-3.7-3.4-4.1s-5.1,3.3-5.1,3.3l-0.4-1.6C878.1,235.2,876.2,234.6,874.4,234.9z"/>
</g>
<g id="XMLID_268_">
	<circle class="st6" cx="802.1" cy="380.9" r="4.6"/>
	<path class="st3" d="M802.1,387.2c-3.5,0-6.3-2.8-6.3-6.3c0-3.5,2.8-6.3,6.3-6.3s6.3,2.8,6.3,6.3
		C808.4,384.3,805.6,387.2,802.1,387.2z M802.1,378c-1.5,0-2.8,1.3-2.8,2.8s1.3,2.8,2.8,2.8s2.8-1.3,2.8-2.8S803.6,378,802.1,378z"
		/>
</g>
<g id="XMLID_267_">
	<circle class="st6" cx="864.3" cy="379.6" r="4.6"/>
	<path class="st3" d="M864.3,385.9c-3.5,0-6.3-2.8-6.3-6.3c0-3.5,2.8-6.3,6.3-6.3s6.3,2.8,6.3,6.3
		C870.7,383,867.8,385.9,864.3,385.9z M864.3,376.8c-1.5,0-2.8,1.3-2.8,2.8c0,1.5,1.3,2.8,2.8,2.8s2.8-1.3,2.8-2.8
		C867.1,378,865.9,376.8,864.3,376.8z"/>
</g>
<g id="XMLID_262_">
	<g id="XMLID_266_">
		<line class="st1" x1="765.3" y1="249.3" x2="800.6" y2="249.3"/>
		<rect x="765.3" y="247.5" class="st11" width="35.4" height="3.6"/>
	</g>
	<g id="XMLID_265_">
		<line class="st1" x1="765.3" y1="256.4" x2="800.6" y2="256.4"/>
		<rect x="765.3" y="254.6" class="st11" width="35.4" height="3.6"/>
	</g>
	<g id="XMLID_264_">
		<line class="st1" x1="765.3" y1="263.5" x2="800.6" y2="263.5"/>
		<rect x="765.3" y="261.7" class="st11" width="35.4" height="3.6"/>
	</g>
	<g id="XMLID_263_">
		<line class="st1" x1="765.3" y1="270.7" x2="800.6" y2="270.7"/>
		<rect x="765.3" y="268.9" class="st11" width="35.4" height="3.6"/>
	</g>
</g>
<g id="XMLID_257_">
	<g id="XMLID_261_">
		<line class="st1" x1="382.8" y1="253.1" x2="418.1" y2="253.1"/>
		<rect x="382.8" y="251.3" class="st11" width="35.4" height="3.6"/>
	</g>
	<g id="XMLID_260_">
		<line class="st1" x1="382.8" y1="260.1" x2="418.1" y2="260.1"/>
		<rect x="382.8" y="258.3" class="st11" width="35.4" height="3.6"/>
	</g>
	<g id="XMLID_259_">
		<line class="st1" x1="382.8" y1="267.3" x2="418.1" y2="267.3"/>
		<rect x="382.8" y="265.5" class="st11" width="35.4" height="3.6"/>
	</g>
	<g id="XMLID_258_">
		<line class="st1" x1="382.8" y1="274.4" x2="418.1" y2="274.4"/>
		<rect x="382.8" y="272.6" class="st11" width="35.4" height="3.6"/>
	</g>
</g>
<g id="XMLID_250_">
	<g id="XMLID_256_">
		<line class="st1" x1="684.1" y1="272.1" x2="719.4" y2="272.1"/>
		<rect x="684.1" y="270.3" class="st11" width="35.4" height="3.6"/>
	</g>
	<g id="XMLID_255_">
		<line class="st1" x1="684.1" y1="279.1" x2="719.4" y2="279.1"/>
		<rect x="684.1" y="277.4" class="st11" width="35.4" height="3.6"/>
	</g>
	<g id="XMLID_254_">
		<path class="st15" d="M719.4,286.3"/>
	</g>
	<g id="XMLID_253_">
		<path class="st15" d="M684.1,286.3"/>
	</g>
	<g id="XMLID_252_">
		<path class="st15" d="M719.4,293.5"/>
	</g>
	<g id="XMLID_251_">
		<path class="st15" d="M684.1,293.5"/>
	</g>
</g>
<g id="XMLID_243_">
	<g id="XMLID_249_">
		<line class="st6" x1="818.4" y1="454.4" x2="848.3" y2="454.4"/>
		<rect x="818.4" y="452.6" class="st3" width="29.8" height="3.5"/>
	</g>
	<g id="XMLID_248_">
		<line class="st6" x1="818.4" y1="460.4" x2="848.3" y2="460.4"/>
		<rect x="818.4" y="458.7" class="st3" width="29.8" height="3.5"/>
	</g>
	<g id="XMLID_247_">
		<line class="st6" x1="818.4" y1="466.5" x2="848.3" y2="466.5"/>
		<rect x="818.4" y="464.7" class="st3" width="29.8" height="3.5"/>
	</g>
	<g id="XMLID_246_">
		<line class="st6" x1="818.4" y1="472.5" x2="848.3" y2="472.5"/>
		<rect x="818.4" y="470.8" class="st3" width="29.8" height="3.5"/>
	</g>
	<g id="XMLID_245_">
		<line class="st6" x1="818.4" y1="478.6" x2="848.3" y2="478.6"/>
		<rect x="818.4" y="476.9" class="st3" width="29.8" height="3.5"/>
	</g>
	<g id="XMLID_244_">
		<line class="st6" x1="818.4" y1="484.7" x2="848.3" y2="484.7"/>
		<rect x="818.4" y="482.9" class="st3" width="29.8" height="3.5"/>
	</g>
</g>
<g id="XMLID_236_">
	<g id="XMLID_242_">
		<line class="st6" x1="369.9" y1="443.6" x2="384.9" y2="443.6"/>
		<rect x="369.9" y="441.8" class="st3" width="14.9" height="3.5"/>
	</g>
	<g id="XMLID_241_">
		<line class="st6" x1="369.9" y1="449.6" x2="384.9" y2="449.6"/>
		<rect x="369.9" y="447.9" class="st3" width="14.9" height="3.5"/>
	</g>
	<g id="XMLID_240_">
		<line class="st6" x1="369.9" y1="455.7" x2="384.9" y2="455.7"/>
		<rect x="369.9" y="453.9" class="st3" width="14.9" height="3.5"/>
	</g>
	<g id="XMLID_239_">
		<line class="st6" x1="369.9" y1="461.8" x2="384.9" y2="461.8"/>
		<rect x="369.9" y="460" class="st3" width="14.9" height="3.5"/>
	</g>
	<g id="XMLID_238_">
		<line class="st6" x1="369.9" y1="467.8" x2="384.9" y2="467.8"/>
		<rect x="369.9" y="466.1" class="st3" width="14.9" height="3.5"/>
	</g>
	<g id="XMLID_237_">
		<line class="st6" x1="369.9" y1="473.9" x2="384.9" y2="473.9"/>
		<rect x="369.9" y="472.1" class="st3" width="14.9" height="3.5"/>
	</g>
</g>
<g id="XMLID_235_">
	<path class="st9" d="M478.5,119.5"/>
</g>
<g id="XMLID_234_">
	<path class="st9" d="M557.2,142.9"/>
</g>
<g id="XMLID_233_">
	<path class="st9" d="M541.5,139.7"/>
</g>
<g id="XMLID_232_">
	<path class="st4" d="M405.7,118.4l15.5,39.8c0.3,0.8,0.8,1.5,1.4,2l38.1,31.7c0.8,0.7,1.9,1.1,3,1.1l31,0.4c2.6,0,4.1-3,2.4-5.1
		c-2.4-3-6.6-6.2-13.1-6.6c-6.7-0.4-10.5-0.4-12.6-0.2c-1.6,0.1-3.1-0.5-4.1-1.7l-24.9-29.2c-0.4-0.5-0.7-1-0.9-1.6l-16.1-44.9
		L405.7,118.4z"/>
	<path class="st3" d="M494.7,194.9C494.7,194.9,494.7,194.9,494.7,194.9l-31.1-0.4c-1.4,0-2.8-0.5-3.9-1.4l-38.1-31.7
		c-0.8-0.7-1.5-1.6-1.9-2.6l-15.9-40.9l22.3-16.2l16.7,46.8c0.1,0.4,0.4,0.8,0.6,1.1l24.9,29.2c0.7,0.8,1.8,1.3,2.8,1.2
		c2-0.2,5.9-0.2,12.8,0.2c7.2,0.5,11.7,4.1,14.1,7.1c1.2,1.4,1.4,3.3,0.6,4.9C498.1,193.9,496.5,194.9,494.7,194.9z M407.5,119
		l15,38.7c0.2,0.5,0.6,1,1,1.4l38.1,31.7c0.6,0.5,1.3,0.7,2,0.8l31,0.4c0.7,0,1.2-0.3,1.4-0.9c0.3-0.6,0.2-1.2-0.2-1.7
		c-3.1-3.7-7.1-5.7-12-6.1c-6.7-0.5-10.4-0.4-12.4-0.2c-2,0.2-4-0.7-5.4-2.2l-24.9-29.2c-0.5-0.6-0.9-1.3-1.2-2.1l-15.4-43.1
		L407.5,119z"/>
</g>
<g id="XMLID_231_">
	<path class="st4" d="M412.1,53c0,0,3.3-3.4,4-8.2c0.7-4.8,1.8-18.3,4.9-22.8s25.5-7.2,27.9,4.8s-1.3,9.2-1,12.4
		c0.2,1.8,0.5,5.5,1.6,7.3c0.5,0.9-0.1,2-1.2,1.9l-3.8,0.5c-0.7,0.1-1.4,0.6-1.6,1.3c-0.8,2.2-2.7,6.9-5.1,8.5
		c-2.3,1.6-6.8,0.8-8.9,0.3c-0.7-0.2-1.5,0-2.2,0.4l-5.8,3.6L412.1,53"/>
	<path class="st3" d="M420.6,64.8L410,52.9l1-1c0.1-0.1,3-3.1,3.6-7.4c0.1-0.8,0.2-1.9,0.4-3.1c0.8-6.5,1.9-16.2,4.7-20.3
		c2.4-3.5,12.2-5.5,19.8-3.9c6,1.2,9.9,4.5,10.8,9.3c1.6,8.2,0.6,10.2-0.7,11.7c-0.3,0.4-0.3,0.4-0.3,0.7l0.1,0.5
		c0.2,1.7,0.5,4.8,1.4,6.1c0.6,0.9,0.6,2,0,2.9c-0.5,0.8-1.4,1.3-2.4,1.3l-3.7,0.5c-0.2,0-0.3,0.1-0.4,0.3c-1.2,3.3-3.1,7.5-5.6,9.2
		c-2.6,1.7-6.9,1.2-10,0.5c-0.4-0.1-0.7,0-1.1,0.2L420.6,64.8z M414.1,52.9l7.1,8l4.7-3c1-0.6,2.2-0.8,3.3-0.6
		c3.5,0.8,6.4,0.8,7.7-0.1c1.4-0.9,3.1-3.8,4.5-7.7c0.5-1.2,1.5-2.1,2.9-2.3l3.7-0.5c-0.9-1.8-1.3-4.4-1.6-7l-0.1-0.5
		c-0.2-1.7,0.5-2.4,1-3c0.6-0.7,1.5-1.8,0-9.2c-0.9-4.5-5.1-6.3-8.5-7c-6.9-1.4-15.3,0.7-16.7,2.7c-2.3,3.4-3.6,13.5-4.2,18.9
		c-0.2,1.3-0.3,2.4-0.4,3.2C417,48.6,415.2,51.5,414.1,52.9z"/>
</g>
<g id="XMLID_230_">
	<path class="st6" d="M433.7,11.6c0.3-0.8,0.4-1.6,0.4-2.5c0-4.2-3.4-7.6-7.6-7.6s-7.6,3.4-7.6,7.6c0,2.6,1.3,4.9,3.3,6.3
		c-10,6.3-6.3,22.1-6.3,22.1c24.2,4,35.6-10.5,35.6-10.5C449.7,18.8,443.7,11,433.7,11.6z"/>
	<path class="st3" d="M424.3,39.8c-2.7,0-5.6-0.2-8.7-0.7l-1-0.2l-0.2-1c-0.2-0.7-3.5-15.2,5.3-22.6c-1.5-1.7-2.4-3.9-2.4-6.2
		c0-5.1,4.1-9.2,9.2-9.2s9.2,4.1,9.2,9.2c0,0.3,0,0.6,0,0.9c6.9,0.4,14.9,4.9,17.4,16.6l0.2,0.7l-0.5,0.6
		C452.3,28.5,443.2,39.8,424.3,39.8z M417.2,36.1c11.4,1.7,19.7-1,24.7-3.6c4.3-2.2,6.9-4.8,7.9-5.9c-1.7-6.7-6.7-13.9-16-13.4
		l-2.3,0.1l0.8-2.2c0.2-0.6,0.3-1.3,0.3-2c0-3.3-2.7-6.1-6.1-6.1s-6.1,2.7-6.1,6.1c0,2,1,3.8,2.6,5l2,1.4l-2,1.3
		C415.4,21.5,416.6,32.7,417.2,36.1z"/>
</g>
<g id="XMLID_228_">
	<circle class="st3" cx="440.6" cy="40.1" r="2.4"/>
</g>
<g id="XMLID_227_">
	<path class="st11" d="M332.8,136c0,0-47.8,48.8-10.5,63.8s88.3-6.3,88.3-6.3l34.2-3.4c0,0-6.1-25.2-23.2-33.7
		c-17-8.5-35.4-0.6-35.4-0.6l-9.9-18L332.8,136z"/>
	<path class="st3" d="M353.2,206.8c-10.5,0-21.4-1.4-31.5-5.4c-8.4-3.4-13.4-8.6-14.9-15.7c-4.4-20.8,23.6-49.7,24.8-50.9
		c0.3-0.4,0.8-0.5,1.3-0.5l43.5,1.8c0.6,0,1.2,0.4,1.5,0.9l9.1,16.6c4.8-1.7,20.5-6.2,35.4,1.2c7.3,3.6,13.8,10.8,18.8,20.8
		c3.7,7.5,5.3,13.8,5.3,14c0.1,0.5,0,1-0.3,1.4c-0.3,0.4-0.8,0.7-1.3,0.7l-34,3.4c-1.9,0.8-14.2,5.6-30.2,8.7
		C372.9,205.5,363.3,206.8,353.2,206.8z M333.6,137.8c-3.8,4.1-27,29.7-23.3,47.2c1.2,5.9,5.5,10.3,12.7,13.2
		c36.2,14.5,86.5-6.1,87-6.3c0.2-0.1,0.3-0.1,0.5-0.1l32.1-3.2c-1.8-6-8.3-23.9-21.7-30.6c-16.1-8-33.8-0.6-34-0.5
		c-0.8,0.4-1.8,0-2.2-0.8l-9.4-17.1L333.6,137.8z"/>
</g>
<g id="XMLID_226_">
	<path class="st0" d="M334.7,136c0,0,20.5-54,44.3-73.2c30.7-24.7,44.5,15.6,38.7,28.6c-5.8,13.1-43.8,46.4-43.8,46.4L334.7,136z"/>
	<path class="st3" d="M374.5,139.7l-42.4-2l0.9-2.3c0.1-0.1,5.3-13.8,13.3-29.6c10.9-21.3,21.5-36.3,31.5-44.3
		c6.7-5.4,19.5-13,31-4.2c10.3,7.9,14.4,26.1,10.4,34.9c-5.9,13.3-42.7,45.6-44.2,47L374.5,139.7z M337.2,134.4l36,1.7
		c4.6-4.1,37.5-33.5,42.8-45.3c3.1-6.9,0.1-23.4-9.4-30.7c-7.2-5.5-16.3-4.1-26.6,4.1C359.7,80.6,341.4,123.9,337.2,134.4z"/>
</g>
<g id="XMLID_225_">
	<path class="st0" d="M420.9,69.5l-3.3,7.1l-16.4-21.8l10.9-1.9l7.7,8.6C421.7,63.7,422.1,66.9,420.9,69.5z"/>
	<path class="st3" d="M418,80.1l-20-26.5l14.7-2.6l8.3,9.3c2.4,2.7,3,6.6,1.5,9.9L418,80.1z M404.4,56.1l12.9,17.1l2-4.4
		c0.9-2,0.6-4.4-0.9-6.1l-7-7.8L404.4,56.1z"/>
</g>
<g id="XMLID_224_">
	<path class="st0" d="M407,123.1l23.8-11.3c1.4-0.6,2-2.3,1.4-3.7l-9.2-20.6c-3.7-8.9-14.5-12.1-22.5-6.8l0,0
		c-6.1,4.1-8.4,11.9-5.5,18.6l9.5,22.7C404.9,123.1,406,123.5,407,123.1z"/>
	<path class="st3" d="M406.2,125c-0.4,0-0.9-0.1-1.3-0.2c-0.9-0.4-1.7-1.1-2.1-2l-9.5-22.7c-3.2-7.5-0.6-16.2,6.1-20.7
		c4.2-2.8,9.5-3.6,14.4-2.2c4.9,1.5,8.8,5,10.8,9.8l9.2,20.5c1,2.3,0,5-2.2,6l-23.8,11.3C407.3,124.9,406.7,125,406.2,125z
		 M408.9,80c-2.6,0-5.2,0.8-7.5,2.3c-5.3,3.6-7.4,10.5-4.8,16.4l9.5,22.8l0.9,1.7l-0.8-1.6l23.8-11.3c0.5-0.2,0.7-0.8,0.5-1.3
		l-9.2-20.6c-1.6-3.8-4.7-6.6-8.5-7.7C411.5,80.2,410.2,80,408.9,80z"/>
</g>
<g id="XMLID_167_">
	<path class="st11" d="M825.1,135.1l-2.2,12.2c-0.2,1.2-1.6,1.7-2.6,1c-3.1-2.2-8.6-6.1-10.6-7.4c-2.9-1.8-5.3-5-5.3-5
		s5.8-4.2,5.3-5.9c-0.2-0.8,0.4-1.7,1.2-2.4c0.7-0.7,1.9-0.7,2.6,0C816.1,129.8,821.9,134.5,825.1,135.1z"/>
	<path class="st3" d="M821.3,150.4c-0.7,0-1.4-0.2-2-0.6c-3.1-2.2-8.5-6.1-10.5-7.3c-3.1-1.9-5.7-5.3-5.8-5.4l-1.1-1.4l1.5-1.1
		c2.1-1.5,4.2-3.5,4.6-4.3c-0.2-1,0.1-2.3,1.8-3.9c1.4-1.3,3.5-1.3,5-0.1c4.7,4,8.8,6.7,10.7,7.1l1.7,0.3l-2.5,13.9
		c-0.2,1.2-1,2.1-2.1,2.6C822.2,150.3,821.8,150.4,821.3,150.4z M807,136.2c0.9,1,2.2,2.3,3.7,3.2c2,1.3,7.4,5,10.5,7.3l1.9-10.4
		c-3.3-1.3-7.5-4.6-10.7-7.3c-0.1-0.1-0.2-0.1-0.3,0c-0.4,0.3-0.5,0.6-0.6,0.7C811.7,130.5,811.9,132.4,807,136.2z"/>
</g>
<g id="XMLID_166_">
	<path class="st11" d="M834.3,123.3c0,0-4.9,8.7-9.1,11.9l9,10.6c0.5,0.6,1.4,0.4,1.7-0.3c1.1-2.7,3.4-8.1,5.8-11.4
		c3.3-4.5,6.8-7.5,6.8-7.5s-2.6-2.7-5.6-4.2c-3-1.5-4.5-2.4-6-3.3C835.3,118.3,834.3,123.3,834.3,123.3z"/>
	<path class="st3" d="M834.9,147.9c-0.8,0-1.6-0.4-2.1-1l-10.2-12.1l1.5-1.1c3.1-2.3,7.1-8.6,8.5-11.1c0.4-2,1.3-4.4,2.8-5.1
		c0.7-0.3,1.5-0.3,2.2,0.1l0.8,0.5c1.3,0.7,2.7,1.6,5.1,2.8c3.3,1.6,6,4.5,6.1,4.6l1.3,1.4l-1.5,1.2c0,0-3.4,2.9-6.6,7.2
		c-2.3,3.2-4.7,8.7-5.6,11c-0.4,0.9-1.2,1.6-2.1,1.7C835.2,147.9,835,147.9,834.9,147.9z M827.6,135.3l7,8.3c1.3-3,3.3-7.6,5.5-10.6
		c2.1-2.9,4.3-5.1,5.7-6.4c-1-0.8-2.3-1.9-3.8-2.6c-2.5-1.2-4-2.1-5.2-2.8c-0.3,0.6-0.6,1.6-0.7,2.4l-0.1,0.3l-0.1,0.2
		C835.6,124.5,831.7,131.5,827.6,135.3z"/>
</g>
<g id="XMLID_165_">
	<path class="st0" d="M824.9,136c0,0,3.4,8.4,3.9,17.2c0.5,8.7,8.8,24.6,8.8,24.6"/>
	<path class="st3" d="M836.1,178.6c-0.3-0.7-8.5-16.3-9-25.3c-0.5-8.3-3.7-16.5-3.8-16.6l3.3-1.3c0.1,0.4,3.5,8.8,4,17.7
		c0.5,8.3,8.5,23.7,8.6,23.9L836.1,178.6z"/>
</g>
<g id="XMLID_164_">
	<circle class="st3" cx="818.1" cy="99.3" r="1.8"/>
</g>
<g id="XMLID_163_">
	<circle class="st3" cx="833.1" cy="98" r="1.8"/>
</g>
<g id="XMLID_130_">
	<g id="XMLID_162_">
		<circle class="st3" cx="764.1" cy="600.6" r="4"/>
	</g>
	<g id="XMLID_131_">
		<circle class="st3" cx="905" cy="600.6" r="4"/>
	</g>
</g>
<g id="XMLID_126_">
	<g id="XMLID_128_">
		<circle class="st3" cx="367.6" cy="593.1" r="4"/>
	</g>
	<g id="XMLID_127_">
		<circle class="st3" cx="508.5" cy="593.1" r="4"/>
	</g>
</g>
<g id="XMLID_125_">
	<path class="st1" d="M807.2,97.5"/>
</g>
<g id="XMLID_118_">
	<path class="st2" d="M836.1,84.2c0,0-1.9,2.8-8.9,2.6c-7-0.2-8.5-3.1-12.4,0c-3.9,3.1-10.3,10.2-10.3,10.2s-0.4-5.2,0-11.7
		c0.4-6.5,4.4-12.4,9.2-14.6c4.8-2.2,15-2.1,19.4,1.4s6.1,11.5,5.7,16.1L836.1,84.2z"/>
	<path class="st3" d="M804.5,98.8c-0.2,0-0.4,0-0.6-0.1c-0.7-0.2-1.1-0.8-1.2-1.5c0-0.2-0.4-5.4,0-11.9c0.5-7,4.7-13.6,10.3-16.1
		c5-2.2,16.1-2.5,21.2,1.7c5.1,4.1,6.8,12.8,6.4,17.6c-0.1,0.7-0.6,1.4-1.3,1.5c-0.7,0.2-1.5-0.1-1.9-0.7l-1.7-2.5
		c-1.5,0.9-4.2,1.9-8.5,1.7c-2.8-0.1-4.8-0.6-6.4-1c-2.3-0.6-3.1-0.8-4.9,0.6c-3.8,3-10.1,9.9-10.1,10
		C805.4,98.6,805,98.8,804.5,98.8z M822.1,71c-2.9,0-5.7,0.5-7.7,1.3c-4.4,2-7.8,7.5-8.2,13.1c-0.2,2.8-0.2,5.3-0.2,7.3
		c2.2-2.4,5.3-5.5,7.7-7.3c3.1-2.5,5.3-1.9,7.9-1.3c1.5,0.4,3.2,0.8,5.6,0.9c5.7,0.2,7.4-1.8,7.4-1.8c0.3-0.5,0.9-0.7,1.4-0.7
		c0,0,0,0,0,0c0.2,0,0.4,0,0.5,0.1c-0.7-3.4-2.2-7-4.6-9C829.9,71.8,825.9,71,822.1,71z"/>
</g>
<g id="XMLID_106_">
	<path class="st1" d="M848.5,92.8"/>
</g>
<g id="XMLID_81_">
	<path class="st4" d="M894.6,148.6c0,0-1.4-3.4-9.4-2.5c-8,0.9-11.3,3.8-12.8,7.6c-1.5,3.7-0.6,8.1-0.6,8.1s6.6-6.7,9.8-7.8
		c3.2-1.1,10.3-1.7,10.3-1.7L894.6,148.6z"/>
	<path class="st3" d="M870.9,164.9l-0.5-2.8c0-0.2-0.9-4.9,0.7-9c2-5,6.4-7.7,14-8.5c8.9-1,10.8,3,10.9,3.5l0.3,0.8l-3.6,4.9
		l-0.7,0.1c-0.1,0-7,0.7-10,1.6c-2.1,0.7-6.7,4.9-9.2,7.4L870.9,164.9z M887.7,147.5c-0.7,0-1.5,0-2.3,0.1c-8.2,0.9-10.5,4-11.5,6.6
		c-0.6,1.4-0.7,3-0.8,4.3c2.3-2.2,5.8-5.2,8-5.9c2.7-0.9,8.1-1.5,10-1.7l1.6-2.1C892,148.2,890.6,147.5,887.7,147.5z"/>
</g>
<g id="XMLID_77_">
	<path class="st4" d="M806.2,97c0,0-4.1,0.2-3.9,4.1c0.2,3.8,1.8,7.7,6.6,6.1L806.2,97z"/>
	<path class="st3" d="M806.8,109.1c-1.1,0-2.2-0.3-3.1-0.9c-2.3-1.6-2.9-4.7-3-7c-0.2-3.9,3.1-5.5,5.3-5.6l1.2-0.1l3.3,12.8
		l-1.3,0.4C808.4,108.9,807.6,109.1,806.8,109.1z M805.1,98.8c-0.7,0.3-1.4,0.9-1.3,2.2c0.1,2.3,0.7,4,1.7,4.7
		c0.4,0.3,0.9,0.4,1.5,0.4L805.1,98.8z"/>
</g>
<g id="XMLID_62_">
	<path class="st0" d="M1205.2,502.5l-59.4,72.6l-0.2-8.9l59.1-71.7c0.2-0.3,0.7-0.1,0.7,0.3v7.2
		C1205.4,502.1,1205.3,502.3,1205.2,502.5z"/>
	<path class="st3" d="M1144,580l-0.3-14.4l59.5-72.2c0.6-0.7,1.6-1,2.4-0.7c0.9,0.3,1.4,1.1,1.4,2.1v7.2c0,0.6-0.2,1.2-0.6,1.7l0,0
		L1144,580z M1147.4,566.8l0.1,3.4l56.1-68.6v-3L1147.4,566.8z"/>
</g>
<g id="XMLID_41_">
	<line class="st8" x1="1131.3" y1="577.8" x2="1131.3" y2="593.2"/>
	<rect x="1129.5" y="577.8" class="st1" width="3.6" height="15.4"/>
</g>
</svg>
