<svg xmlns="http://www.w3.org/2000/svg" width="20" height="16" viewBox="0 0 20 16">
  <metadata><?xpacket begin="﻿" id="W5M0MpCehiHzreSzNTczkc9d"?>
<x:xmpmeta xmlns:x="adobe:ns:meta/" x:xmptk="Adobe XMP Core 5.6-c138 79.159824, 2016/09/14-01:09:01        ">
   <rdf:RDF xmlns:rdf="http://www.w3.org/1999/02/22-rdf-syntax-ns#">
      <rdf:Description rdf:about=""/>
   </rdf:RDF>
</x:xmpmeta>
                                                                                                    
                                                                                                    
                                                                                                    
                                                                                                    
                                                                                                    
                                                                                                    
                                                                                                    
                                                                                                    
                                                                                                    
                                                                                                    
                                                                                                    
                                                                                                    
                                                                                                    
                                                                                                    
                                                                                                    
                                                                                                    
                                                                                                    
                                                                                                    
                                                                                                    
                                                                                                    
                           
<?xpacket end="w"?></metadata>
<defs>
    <style>
      .cls-1 {
        fill: #fff;
        fill-rule: evenodd;
      }
    </style>
  </defs>
  <path id="twitter" class="cls-1" d="M146.012,897.89a8.277,8.277,0,0,1-2.359.636,4.067,4.067,0,0,0,1.806-2.235,8.315,8.315,0,0,1-2.609.98,4.133,4.133,0,0,0-3-1.276,4.063,4.063,0,0,0-4,4.963,11.727,11.727,0,0,1-8.466-4.223,4.007,4.007,0,0,0,1.27,5.4,4.139,4.139,0,0,1-1.86-.506,4.062,4.062,0,0,0,3.295,4.015,4.178,4.178,0,0,1-1.855.069,4.1,4.1,0,0,0,3.838,2.806,8.36,8.36,0,0,1-6.082,1.674,11.761,11.761,0,0,0,6.3,1.816,11.511,11.511,0,0,0,11.676-12.023A8.267,8.267,0,0,0,146.012,897.89Z" transform="translate(-126 -896)"/>
</svg>
