<svg xmlns="http://www.w3.org/2000/svg" width="20.062" height="11.469" viewBox="0 0 20.062 11.469">
  <metadata><?xpacket begin="﻿" id="W5M0MpCehiHzreSzNTczkc9d"?>
<x:xmpmeta xmlns:x="adobe:ns:meta/" x:xmptk="Adobe XMP Core 5.6-c138 79.159824, 2016/09/14-01:09:01        ">
   <rdf:RDF xmlns:rdf="http://www.w3.org/1999/02/22-rdf-syntax-ns#">
      <rdf:Description rdf:about=""/>
   </rdf:RDF>
</x:xmpmeta>
                                                                                                    
                                                                                                    
                                                                                                    
                                                                                                    
                                                                                                    
                                                                                                    
                                                                                                    
                                                                                                    
                                                                                                    
                                                                                                    
                                                                                                    
                                                                                                    
                                                                                                    
                                                                                                    
                                                                                                    
                                                                                                    
                                                                                                    
                                                                                                    
                                                                                                    
                                                                                                    
                           
<?xpacket end="w"?></metadata>
<defs>
    <style>
      .cls-1 {
        fill: #fff;
        fill-rule: evenodd;
      }
    </style>
  </defs>
  <path class="cls-1" d="M247.87,908.956h1.2a1.01,1.01,0,0,0,.547-0.24,0.881,0.881,0,0,0,.165-0.527s-0.023-1.612.723-1.849,1.682,1.557,2.684,2.246a1.9,1.9,0,0,0,1.335.408l2.68-.038s1.4-.087.737-1.191a9.009,9.009,0,0,0-1.993-2.308c-1.68-1.563-1.455-1.31.569-4.012,1.233-1.646,1.725-2.65,1.571-3.08a1.167,1.167,0,0,0-1.053-.3l-3.018.019a0.68,0.68,0,0,0-.39.069,0.845,0.845,0,0,0-.265.323,17.53,17.53,0,0,1-1.115,2.357c-1.343,2.285-1.881,2.406-2.1,2.264-0.511-.331-0.384-1.329-0.384-2.037,0-2.215.336-3.138-.653-3.377a5.143,5.143,0,0,0-1.408-.14,6.5,6.5,0,0,0-2.5.256c-0.344.168-.608,0.544-0.447,0.565a1.352,1.352,0,0,1,.89.449,2.911,2.911,0,0,1,.3,1.367s0.177,2.607-.415,2.93c-0.407.223-.965-0.231-2.163-2.3a19.224,19.224,0,0,1-1.077-2.236,0.89,0.89,0,0,0-.249-0.336,1.235,1.235,0,0,0-.463-0.188l-2.868.019a0.973,0.973,0,0,0-.588.2,0.625,0.625,0,0,0-.012.511s2.245,5.26,4.788,7.911a6.877,6.877,0,0,0,4.977,2.271h0Z" transform="translate(-238.063 -897.531)"/>
</svg>
