<?xml version="1.0" encoding="utf-8"?>
<!-- Generator: Adobe Illustrator 22.0.0, SVG Export Plug-In . SVG Version: 6.00 Build 0)  -->
<svg version="1.1" id="Слой_1" xmlns="http://www.w3.org/2000/svg" xmlns:xlink="http://www.w3.org/1999/xlink" x="0px" y="0px"
	 viewBox="0 0 80 80" style="enable-background:new 0 0 80 80;" xml:space="preserve">
<style type="text/css">
	.st0{fill:#00AAFF;}
	.st1{fill:none;stroke:#000000;stroke-width:2;stroke-linecap:round;stroke-linejoin:round;stroke-miterlimit:10;}
	.st2{fill:none;stroke:#E6E6E6;stroke-linecap:round;stroke-linejoin:round;stroke-miterlimit:10;}
	.st3{fill:#E6E6E6;}
	.st4{fill:none;stroke:#E6E6E6;stroke-miterlimit:10;}
	.st5{fill:none;stroke:#000000;stroke-width:2;stroke-miterlimit:10;}
	.st6{fill:none;stroke:#000000;stroke-miterlimit:10;}
	.st7{fill:none;stroke:#E4E4E4;stroke-width:4;stroke-miterlimit:10;}
	.st8{fill:none;stroke:#000000;stroke-width:4;stroke-miterlimit:10;}
	.st9{fill:#002782;}
</style>
<g>
	<path class="st0" d="M65.1,21.1c1.2-0.6,2.2-1.4,3-2.3C71.7,15,72,9.2,72,7c-2.3,0.1-8.1,0.8-11.6,4.6c-0.8,0.8-1.9,2.4-2.4,3.5
		l-1.4-1.5c0.6-1.3,1.4-2.4,2.3-3.4c5-5.4,13.6-5.2,14-5.2h0.9l0.1,0.9c0,0.4,0.7,9-4.3,14.3c-0.8,0.8-1.7,1.6-2.7,2.2"/>
</g>
<g>
	<path class="st0" d="M63.7,29.4c-4.3,0-7.8-3.6-7.9-3.7L55.2,25l0.6-0.7c0.1-0.2,3.5-4.1,7.9-4.2c4.5-0.2,8,3.6,8.2,3.7l0.6,0.6
		l-0.6,0.7c-0.1,0.2-3.5,4.1-7.9,4.2l0,0C63.9,29.4,63.8,29.4,63.7,29.4z M58,24.9c1.1,0.9,3.4,2.5,5.9,2.5l0,0
		c2.5-0.1,4.7-1.8,5.8-2.8c-1.1-0.9-3.4-2.5-5.9-2.5C61.2,22.2,59,23.9,58,24.9z"/>
</g>
<g>
	<path class="st0" d="M54,23.9l-0.7-0.6c-0.2-0.1-4.1-3.5-4.2-7.9c-0.1-4.4,3.6-8,3.7-8.2l0.6-0.6l0.7,0.6c0.2,0.1,4.1,3.5,4.2,7.9
		c0.1,4.4-3.6,8-3.7,8.2L54,23.9z M53.6,9.4c-0.9,1.1-2.5,3.4-2.5,5.9c0.1,2.5,1.8,4.7,2.8,5.8c0.9-1.1,2.5-3.4,2.5-5.9
		C56.3,12.7,54.6,10.5,53.6,9.4z"/>
</g>
<g>
	<path class="st9" d="M9.4,76c-1,0-1.8-0.3-2.4-0.8c-5.7-5.4,16-34.5,26.6-45.8c6.4-6.9,10.9-10,14.5-10.1c0.1,0,0.1,0,0.2,0
		c2.9,0,4.9,1.9,6.8,3.7l0.8,0.8c2,1.8,4,3.7,4.1,6.7c0.1,3.6-2.7,8.3-9.1,15.2l0,0c-6.6,7.1-16.3,15.5-24.6,21.6
		C18.4,73.1,12.7,76,9.4,76z M48.3,21.4L48.3,21.4c-3.1,0.1-7.3,3.1-13.3,9.4c-14.8,15.9-29.8,40-26.6,43c0.9,0.9,5.5,0.1,16.8-8
		c8.3-6,17.8-14.4,24.4-21.3l0,0c5.9-6.3,8.7-10.7,8.6-13.7c-0.1-2.2-1.6-3.6-3.5-5.3l-0.9-0.8C51.9,22.8,50.4,21.4,48.3,21.4z"/>
</g>
<g>
	<rect x="43.2" y="41.7" transform="matrix(0.6837 -0.7297 0.7297 0.6837 -19.3548 46.6951)" class="st9" width="2" height="8"/>
</g>
<g>
	<rect x="26.9" y="41.1" transform="matrix(0.6837 -0.7298 0.7298 0.6837 -24.9255 35.0186)" class="st9" width="2" height="10.3"/>
</g>
<g>
	<rect x="40.1" y="25" transform="matrix(0.6837 -0.7297 0.7297 0.6837 -8.9819 39.5198)" class="st9" width="2" height="10.3"/>
</g>
<g>
	<rect x="21.4" y="48.5" transform="matrix(0.6837 -0.7297 0.7297 0.6837 -32.0573 33.3512)" class="st9" width="2" height="10.3"/>
</g>
<g>
	<rect x="20.2" y="58.3" transform="matrix(0.6837 -0.7298 0.7298 0.6837 -39.6149 35.5085)" class="st9" width="2" height="10.3"/>
</g>
</svg>
